<?xml version="1.0" encoding="iso-8859-1"?>
<!-- Generator: Adobe Illustrator 19.0.0, SVG Export Plug-In . SVG Version: 6.00 Build 0)  -->
<svg version="1.1" id="Layer_1" xmlns="http://www.w3.org/2000/svg" xmlns:xlink="http://www.w3.org/1999/xlink" x="0px" y="0px"
	 viewBox="0 0 512 512" style="enable-background:new 0 0 512 512;" xml:space="preserve">
<polygon style="fill:#326E7D;" points="512,0 0,0 0,25.319 11.253,33.758 0,42.198 0,92.835 11.253,101.275 0,109.714 0,365.714 
	512,365.714 512,109.714 500.747,101.275 512,92.835 512,75.956 500.747,67.516 512,59.077 512,42.198 500.747,33.758 512,25.319 
	"/>
<g>
	<rect x="418.602" y="317.89" style="fill:#4D392F;" width="16.879" height="56.264"/>
	<rect x="282.444" y="317.89" style="fill:#4D392F;" width="16.879" height="56.264"/>
</g>
<path style="fill:#A3DC93;" d="M376.967,25.319H106.901c-13.96,0-25.319,11.357-25.319,25.319s11.359,25.319,25.319,25.319h147.974
	c4.654,0,8.44,3.785,8.44,8.44s-3.785,8.44-8.44,8.44H0v16.879h254.875c13.96,0,25.319-11.357,25.319-25.319
	s-11.359-25.319-25.319-25.319H106.901c-4.654,0-8.44-3.785-8.44-8.44s3.785-8.44,8.44-8.44h270.066c4.662,0,8.44-3.779,8.44-8.44
	S381.629,25.319,376.967,25.319z"/>
<path style="fill:#CAED73;" d="M410.725,25.319c-4.662,0-8.44,3.779-8.44,8.44s3.778,8.44,8.44,8.44H512V25.319H410.725z"/>
<path style="fill:#83C49A;" d="M324.642,75.956H512V59.077H324.642c-13.96,0-25.319,11.357-25.319,25.319
	s11.359,25.319,25.319,25.319H512V92.835H324.642c-4.654,0-8.44-3.785-8.44-8.44S319.988,75.956,324.642,75.956z"/>
<path style="fill:#CAED73;" d="M59.167,25.319H0v16.879h59.167c4.662,0,8.44-3.779,8.44-8.44S63.829,25.319,59.167,25.319z"/>
<path style="fill:#55B9D3;" d="M307.369,148.3c-1.654-7.584-8.406-13.267-16.485-13.267v180.044l45.461-33.758L307.369,148.3z"/>
<path style="fill:#8CE6FE;" d="M296.499,148.3l9.869,133.019l-30.472,22.505l-30.472-22.505L274.398,148.3
	c1.654-7.584,8.406-13.267,16.485-13.267C293.64,135.033,295.936,140.716,296.499,148.3z"/>
<path style="fill:#63ABA1;" d="M341.69,305.838l-5.345-24.52h-29.977l-3.792,45.011h22.629c9.317,0,16.879-7.562,16.879-16.879
	C342.084,308.213,341.937,307.009,341.69,305.838z"/>
<path style="fill:#83C49A;" d="M308.19,305.838c0.09,1.17,0.135,2.374,0.135,3.612c0,9.317-2.577,16.879-5.75,16.879h-46.013
	c-9.317,0-16.879-7.562-16.879-16.879c0-1.238,0.146-2.442,0.394-3.612l5.345-24.52h60.945L308.19,305.838z"/>
<g>
	<polygon style="fill:#59473C;" points="186.233,276.255 186.233,388.22 141.222,388.22 163.727,253.749 	"/>
	<path style="fill:#59473C;" d="M72.864,199.736c-4.662,0-8.44,3.779-8.44,8.44v56.543h16.879v-56.543
		C81.303,203.515,77.526,199.736,72.864,199.736z"/>
</g>
<polygon style="fill:#875B51;" points="118.154,208.176 50.075,276.255 50.075,388.22 163.727,388.22 163.727,253.749 "/>
<g>
	<rect x="101.275" y="292.571" style="fill:#4D392F;" width="33.758" height="95.648"/>
	<path style="fill:#4D392F;" d="M202.549,301.011c-2.159,0-4.32-0.824-5.968-2.472l-78.427-78.428l-78.427,78.428
		c-3.297,3.296-8.64,3.296-11.936,0c-3.296-3.296-3.296-8.64,0-11.935l84.396-84.396c3.297-3.296,8.64-3.296,11.936,0l84.396,84.396
		c3.296,3.296,3.296,8.64,0,11.935C206.869,300.187,204.709,301.011,202.549,301.011z"/>
</g>
<polygon style="fill:#4393A8;" points="512,365.714 512,512 478.242,512 421.978,438.857 478.242,365.714 "/>
<rect y="365.714" style="fill:#55B9D3;" width="478.242" height="146.286"/>
<g>
	<path style="fill:#4393A8;" d="M264.44,452.782H247.56c-4.662,0-8.44-3.779-8.44-8.44s3.778-8.44,8.44-8.44h16.879
		c4.662,0,8.44,3.779,8.44,8.44S269.102,452.782,264.44,452.782z"/>
	<path style="fill:#4393A8;" d="M478.242,486.541h-16.879c-4.662,0-8.44-3.779-8.44-8.44c0-4.661,3.778-8.44,8.44-8.44h16.879
		c4.662,0,8.44,3.779,8.44,8.44C486.681,482.762,482.904,486.541,478.242,486.541z"/>
	<path style="fill:#4393A8;" d="M61.89,486.541H45.011c-4.662,0-8.44-3.779-8.44-8.44c0-4.661,3.778-8.44,8.44-8.44H61.89
		c4.662,0,8.44,3.779,8.44,8.44C70.33,482.762,66.552,486.541,61.89,486.541z"/>
	<path style="fill:#4393A8;" d="M433.231,452.782h-16.879c-4.662,0-8.44-3.779-8.44-8.44s3.778-8.44,8.44-8.44h16.879
		c4.662,0,8.44,3.779,8.44,8.44S437.893,452.782,433.231,452.782z"/>
	<path style="fill:#4393A8;" d="M196.923,407.771h-16.879c-4.662,0-8.44-3.779-8.44-8.44s3.778-8.44,8.44-8.44h16.879
		c4.662,0,8.44,3.779,8.44,8.44S201.585,407.771,196.923,407.771z"/>
</g>
<path style="fill:#55B9D3;" d="M443.527,148.3c-1.654-7.584-8.406-13.267-16.485-13.267v180.044l45.461-33.758L443.527,148.3z"/>
<path style="fill:#8CE6FE;" d="M432.657,148.3l9.869,133.019l-30.472,22.505l-30.472-22.505L410.557,148.3
	c1.654-7.584,8.406-13.267,16.485-13.267C429.799,135.033,432.094,140.716,432.657,148.3z"/>
<path style="fill:#63ABA1;" d="M477.848,305.838l-5.345-24.52h-29.977l-3.792,45.011h22.629c9.317,0,16.879-7.562,16.879-16.879
	C478.242,308.213,478.095,307.009,477.848,305.838z"/>
<path style="fill:#83C49A;" d="M444.349,305.838c0.09,1.17,0.135,2.374,0.135,3.612c0,9.317-2.577,16.879-5.75,16.879h-46.013
	c-9.317,0-16.879-7.562-16.879-16.879c0-1.238,0.146-2.442,0.394-3.612l5.345-24.52h60.945L444.349,305.838z"/>
<g>
</g>
<g>
</g>
<g>
</g>
<g>
</g>
<g>
</g>
<g>
</g>
<g>
</g>
<g>
</g>
<g>
</g>
<g>
</g>
<g>
</g>
<g>
</g>
<g>
</g>
<g>
</g>
<g>
</g>
</svg>
