<?xml version="1.0" encoding="iso-8859-1"?>
<!-- Generator: Adobe Illustrator 19.0.0, SVG Export Plug-In . SVG Version: 6.00 Build 0)  -->
<svg version="1.1" id="Layer_1" xmlns="http://www.w3.org/2000/svg" xmlns:xlink="http://www.w3.org/1999/xlink" x="0px" y="0px"
	 viewBox="0 0 512 512" style="enable-background:new 0 0 512 512;" xml:space="preserve">
<path style="fill:#FECB69;" d="M503.83,59.915h-32.681l-21.787,24.548l21.787,24.548c10.233-3.572,21.228-5.521,32.681-5.521V59.915
	z"/>
<path style="fill:#FFE0A2;" d="M8.17,59.915v43.574c54.749,0,99.132,44.383,99.132,99.132v109.669h49.566V202.621
	c0-54.749,44.383-99.132,99.132-99.132s99.132,44.383,99.132,99.132v109.669h49.566V202.621c0-43.297,27.76-80.105,66.451-93.611
	V59.915H8.17z"/>
<path style="fill:#FFA850;" d="M503.83,51.745h-23.149V27.234h-16.34v24.511h-45.209V27.234h-16.34v24.511h-45.208V27.234h-16.34
	v24.511h-45.209V27.234h-16.34v24.511h-45.209V27.234h-16.34v24.511h-45.209V27.234h-16.34v24.511h-45.209V27.234h-16.34v24.511
	H49.838V27.234h-16.34v24.511H8.17c-4.513,0-8.17,3.657-8.17,8.17s3.657,8.17,8.17,8.17h495.66c4.513,0,8.17-3.657,8.17-8.17
	S508.343,51.745,503.83,51.745z"/>
<path style="fill:#4B8D8F;" d="M503.83,245.106c-8.925,18.378-27.765,31.047-49.566,31.047l-32.681,108.392l32.681,108.391h49.566
	V245.106z"/>
<path style="fill:#63ABA1;" d="M404.698,245.106c-8.924,18.376-27.765,31.047-49.566,31.047s-40.642-12.67-49.566-31.047
	c-8.924,18.376-27.765,31.047-49.566,31.047s-40.642-12.67-49.566-31.047c-8.924,18.376-27.765,31.047-49.566,31.047
	s-40.642-12.67-49.566-31.047c-8.924,18.376-27.765,31.047-49.566,31.047S17.095,263.484,8.17,245.106v247.83h446.094V276.153
	C432.462,276.153,413.622,263.483,404.698,245.106z"/>
<g>
	<path style="fill:#FFFFFF;" d="M165.038,349.685h-16.34c-4.513,0-8.17-3.657-8.17-8.17c0-4.513,3.657-8.17,8.17-8.17h16.34
		c4.513,0,8.17,3.657,8.17,8.17C173.209,346.028,169.552,349.685,165.038,349.685z"/>
	<path style="fill:#FFFFFF;" d="M412.868,447.728h-16.34c-4.513,0-8.17-3.657-8.17-8.17s3.657-8.17,8.17-8.17h16.34
		c4.513,0,8.17,3.657,8.17,8.17S417.381,447.728,412.868,447.728z"/>
	<path style="fill:#FFFFFF;" d="M462.434,415.047h-16.34c-4.513,0-8.17-3.657-8.17-8.17c0-4.513,3.657-8.17,8.17-8.17h16.34
		c4.513,0,8.17,3.657,8.17,8.17C470.604,411.39,466.947,415.047,462.434,415.047z"/>
	<path style="fill:#FFFFFF;" d="M363.302,382.366h-16.34c-4.513,0-8.17-3.657-8.17-8.17c0-4.513,3.657-8.17,8.17-8.17h16.34
		c4.513,0,8.17,3.657,8.17,8.17C371.472,378.709,367.815,382.366,363.302,382.366z"/>
	<path style="fill:#FFFFFF;" d="M65.906,382.366h-16.34c-4.513,0-8.17-3.657-8.17-8.17c0-4.513,3.657-8.17,8.17-8.17h16.34
		c4.513,0,8.17,3.657,8.17,8.17C74.077,378.709,70.42,382.366,65.906,382.366z"/>
</g>
<path style="fill:#FECB69;" d="M503.83,35.404H8.17c-4.513,0-8.17-3.657-8.17-8.17s3.657-8.17,8.17-8.17h495.66
	c4.513,0,8.17,3.657,8.17,8.17S508.343,35.404,503.83,35.404z"/>
<g>
</g>
<g>
</g>
<g>
</g>
<g>
</g>
<g>
</g>
<g>
</g>
<g>
</g>
<g>
</g>
<g>
</g>
<g>
</g>
<g>
</g>
<g>
</g>
<g>
</g>
<g>
</g>
<g>
</g>
</svg>
