<?xml version="1.0" encoding="iso-8859-1"?>
<!-- Generator: Adobe Illustrator 19.0.0, SVG Export Plug-In . SVG Version: 6.00 Build 0)  -->
<svg version="1.1" id="Layer_1" xmlns="http://www.w3.org/2000/svg" xmlns:xlink="http://www.w3.org/1999/xlink" x="0px" y="0px"
	 viewBox="0 0 512 512" style="enable-background:new 0 0 512 512;" xml:space="preserve">
<polygon style="fill:#8CE6FE;" points="208.176,259.151 241.934,393.846 163.165,365.714 163.165,305.501 "/>
<polygon style="fill:#B3EFFF;" points="512,118.154 512,183.026 421.978,228.037 478.242,118.154 "/>
<polygon style="fill:#D9F7FF;" points="478.242,118.154 478.242,183.026 354.462,239.29 230.681,183.026 230.681,118.154 "/>
<polygon style="fill:#8CE6FE;" points="512,183.026 512,365.714 444.484,393.846 478.242,183.026 "/>
<polygon style="fill:#D9F7FF;" points="478.242,183.026 478.242,365.714 410.725,393.846 444.484,183.026 "/>
<polygon style="fill:#8CE6FE;" points="444.484,183.026 444.484,365.714 331.956,393.846 365.714,183.026 "/>
<g>
	<polygon style="fill:#B3EFFF;" points="365.714,183.026 365.714,393.846 208.176,393.846 208.176,259.151 230.681,183.026 	"/>
	<polygon style="fill:#B3EFFF;" points="512,365.714 512,512 478.242,512 433.231,438.857 478.242,365.714 	"/>
</g>
<rect y="365.714" style="fill:#D9F7FF;" width="478.242" height="146.286"/>
<path style="fill:#55B9D3;" d="M469.802,0h-33.758v84.396h33.758c23.304,0,42.198-18.893,42.198-42.198S493.107,0,469.802,0z"/>
<path style="fill:#8CE6FE;" d="M436.044,0c23.304,0,42.198,18.893,42.198,42.198s-18.893,42.198-42.198,42.198H120.967
	c-15.54,0-28.132-12.592-28.132-28.132H28.132C12.592,56.264,0,43.672,0,28.132S12.592,0,28.132,0H436.044z"/>
<path style="fill:#55B9D3;" d="M157.538,399.338H123.78v45.011h33.758c12.434,0,22.505-10.082,22.505-22.505
	C180.044,409.409,169.973,399.338,157.538,399.338z"/>
<path style="fill:#8CE6FE;" d="M123.78,399.338c12.434,0,22.505,10.071,22.505,22.505c0,12.423-10.071,22.505-22.505,22.505H56.264
	c-12.434,0-22.505-10.082-22.505-22.505c0-12.434,10.071-22.505,22.505-22.505H123.78z"/>
<g>
	<path style="fill:#B3EFFF;" d="M264.44,464.035H247.56c-4.662,0-8.44-3.779-8.44-8.44c0-4.661,3.778-8.44,8.44-8.44h16.879
		c4.662,0,8.44,3.779,8.44,8.44C272.879,460.257,269.102,464.035,264.44,464.035z"/>
	<path style="fill:#B3EFFF;" d="M478.242,486.541h-16.879c-4.662,0-8.44-3.779-8.44-8.44c0-4.661,3.778-8.44,8.44-8.44h16.879
		c4.662,0,8.44,3.779,8.44,8.44C486.681,482.762,482.904,486.541,478.242,486.541z"/>
	<path style="fill:#B3EFFF;" d="M50.637,486.541H33.758c-4.662,0-8.44-3.779-8.44-8.44c0-4.661,3.778-8.44,8.44-8.44h16.879
		c4.662,0,8.44,3.779,8.44,8.44C59.077,482.762,55.299,486.541,50.637,486.541z"/>
</g>
<path style="fill:#8CE6FE;" d="M444.484,452.782h-16.879c-4.662,0-8.44-3.779-8.44-8.44s3.778-8.44,8.44-8.44h16.879
	c4.662,0,8.44,3.779,8.44,8.44S449.146,452.782,444.484,452.782z"/>
<path style="fill:#B3EFFF;" d="M230.681,430.277h-16.879c-4.662,0-8.44-3.779-8.44-8.44s3.778-8.44,8.44-8.44h16.879
	c4.662,0,8.44,3.779,8.44,8.44S235.343,430.277,230.681,430.277z"/>
<g>
</g>
<g>
</g>
<g>
</g>
<g>
</g>
<g>
</g>
<g>
</g>
<g>
</g>
<g>
</g>
<g>
</g>
<g>
</g>
<g>
</g>
<g>
</g>
<g>
</g>
<g>
</g>
<g>
</g>
</svg>
