<?xml version="1.0" encoding="iso-8859-1"?>
<!-- Generator: Adobe Illustrator 19.0.0, SVG Export Plug-In . SVG Version: 6.00 Build 0)  -->
<svg version="1.1" id="Layer_1" xmlns="http://www.w3.org/2000/svg" xmlns:xlink="http://www.w3.org/1999/xlink" x="0px" y="0px"
	 viewBox="0 0 512 512" style="enable-background:new 0 0 512 512;" xml:space="preserve">
<g>
	<path style="fill:#4D392F;" d="M70.809,281.872c-4.513,0-8.17-3.658-8.17-8.17s3.657-8.17,8.17-8.17
		c12.765,0,23.149-10.995,23.149-24.511V208.34c0-4.512,3.657-8.17,8.17-8.17s8.17,3.658,8.17,8.17v32.681
		C110.298,263.547,92.583,281.872,70.809,281.872z"/>
	<path style="fill:#4D392F;" d="M133.447,47.66c-4.513,0-8.17,3.658-8.17,8.17v21.787c0,10.471-6.234,19.424-14.979,22.93V55.83
		c0-4.512-3.657-8.17-8.17-8.17s-8.17,3.658-8.17,8.17v54.468c0,13.516-10.385,24.511-23.149,24.511c-4.513,0-8.17,3.658-8.17,8.17
		c0,4.512,3.657,8.17,8.17,8.17c19.324,0,35.439-14.437,38.825-33.43c18.196-3.637,31.984-20.232,31.984-40.102V55.83
		C141.617,51.318,137.96,47.66,133.447,47.66z"/>
	<path style="fill:#4D392F;" d="M503.83,69.447c-4.513,0-8.17,3.658-8.17,8.17v32.681c0,10.471-6.234,19.424-14.979,22.93V34.043
		c0-4.512-3.657-8.17-8.17-8.17c-4.513,0-8.17,3.658-8.17,8.17v163.404c0,13.516-10.384,24.511-23.149,24.511
		c-4.513,0-8.17,3.658-8.17,8.17s3.657,8.17,8.17,8.17c21.774,0,39.489-18.325,39.489-40.851v-47.182
		C498.547,146.36,512,129.926,512,110.298V77.617C512,73.105,508.343,69.447,503.83,69.447z"/>
</g>
<path style="fill:#59473C;" d="M441.191,4.085c-4.513,0-8.17,3.658-8.17,8.17v153.653c-8.744-3.504-14.979-12.459-14.979-22.93
	V34.043c0-4.512-3.657-8.17-8.17-8.17c-4.513,0-8.17,3.658-8.17,8.17v66.504c-8.744-3.506-14.979-12.459-14.979-22.93V55.83
	c0-4.512-3.657-8.17-8.17-8.17c-4.513,0-8.17,3.658-8.17,8.17v21.787c0,19.628,13.453,36.062,31.319,39.967v25.395
	c0,19.628,13.453,36.062,31.319,39.967v124.579c-8.744-3.504-14.979-12.459-14.979-22.93v-65.362c0-4.512-3.657-8.17-8.17-8.17
	c-4.513,0-8.17,3.658-8.17,8.17v65.362c0,19.628,13.453,36.062,31.319,39.966v117.992c0,4.512,3.657,8.17,8.17,8.17
	c4.513,0,8.17-3.658,8.17-8.17V12.255C449.362,7.743,445.705,4.085,441.191,4.085z"/>
<path style="fill:#B3EFFF;" d="M264.17,205.617v-8.17c0-4.512-3.657-8.17-8.17-8.17s-8.17,3.658-8.17,8.17v8.17h-62.638v16.34
	h46.298v144.34h16.34v-144.34h16.34v144.34h16.34v-144.34h46.298v-16.34H264.17z"/>
<polygon style="fill:#8CE6FE;" points="168.851,153.872 201.532,453.447 136.17,453.447 136.17,186.553 "/>
<polygon style="fill:#55B9D3;" points="375.83,186.553 375.83,453.447 310.468,453.447 343.149,153.872 "/>
<path style="fill:#B3EFFF;" d="M343.149,153.872v299.574H168.851V153.872v-32.681h174.298V153.872z M305.021,344.511V213.787
	c0-27.071-21.951-49.021-49.021-49.021c-27.071,0-49.021,21.951-49.021,49.021v130.723H305.021z"/>
<path style="fill:#59473C;" d="M70.809,4.085c-4.513,0-8.17,3.658-8.17,8.17V198.59c-8.744-3.504-14.979-12.459-14.979-22.93V34.043
	c0-4.512-3.657-8.17-8.17-8.17s-8.17,3.658-8.17,8.17v131.866c-8.744-3.506-14.979-12.459-14.979-22.93V77.617
	c0-4.512-3.657-8.17-8.17-8.17S0,73.105,0,77.617v65.362c0,19.87,13.788,36.464,31.984,40.102
	c2.894,16.24,15.095,29.146,30.655,32.546v226.927c0,4.512,3.657,8.17,8.17,8.17s8.17-3.658,8.17-8.17V12.255
	C78.979,7.743,75.322,4.085,70.809,4.085z"/>
<polygon style="fill:#69744A;" points="503.83,420.766 503.83,507.915 471.149,507.915 438.468,464.34 471.149,420.766 "/>
<rect x="8.17" y="420.766" style="fill:#95AC66;" width="462.979" height="87.149"/>
<g>
	<path style="fill:#69744A;" d="M40.851,467.064c-4.513,0-8.17-3.658-8.17-8.17V448c0-4.512,3.657-8.17,8.17-8.17
		s8.17,3.658,8.17,8.17v10.894C49.021,463.406,45.364,467.064,40.851,467.064z"/>
	<path style="fill:#69744A;" d="M73.532,488.851c-4.513,0-8.17-3.658-8.17-8.17v-10.894c0-4.512,3.657-8.17,8.17-8.17
		s8.17,3.658,8.17,8.17v10.894C81.702,485.193,78.045,488.851,73.532,488.851z"/>
	<path style="fill:#69744A;" d="M106.213,467.064c-4.513,0-8.17-3.658-8.17-8.17V448c0-4.512,3.657-8.17,8.17-8.17
		s8.17,3.658,8.17,8.17v10.894C114.383,463.406,110.726,467.064,106.213,467.064z"/>
	<path style="fill:#69744A;" d="M441.191,467.064c-4.513,0-8.17-3.658-8.17-8.17V448c0-4.512,3.657-8.17,8.17-8.17
		c4.513,0,8.17,3.658,8.17,8.17v10.894C449.362,463.406,445.705,467.064,441.191,467.064z"/>
	<path style="fill:#69744A;" d="M318.638,488.851c-4.513,0-8.17-3.658-8.17-8.17v-10.894c0-4.512,3.657-8.17,8.17-8.17
		c4.513,0,8.17,3.658,8.17,8.17v10.894C326.809,485.193,323.152,488.851,318.638,488.851z"/>
	<path style="fill:#69744A;" d="M351.319,467.064c-4.513,0-8.17-3.658-8.17-8.17V448c0-4.512,3.657-8.17,8.17-8.17
		c4.513,0,8.17,3.658,8.17,8.17v10.894C359.489,463.406,355.832,467.064,351.319,467.064z"/>
	<path style="fill:#69744A;" d="M198.809,488.851c-4.513,0-8.17-3.658-8.17-8.17v-10.894c0-4.512,3.657-8.17,8.17-8.17
		s8.17,3.658,8.17,8.17v10.894C206.979,485.193,203.322,488.851,198.809,488.851z"/>
</g>
<g>
</g>
<g>
</g>
<g>
</g>
<g>
</g>
<g>
</g>
<g>
</g>
<g>
</g>
<g>
</g>
<g>
</g>
<g>
</g>
<g>
</g>
<g>
</g>
<g>
</g>
<g>
</g>
<g>
</g>
</svg>
