<?xml version="1.0" encoding="iso-8859-1"?>
<!-- Generator: Adobe Illustrator 19.0.0, SVG Export Plug-In . SVG Version: 6.00 Build 0)  -->
<svg version="1.1" id="Layer_1" xmlns="http://www.w3.org/2000/svg" xmlns:xlink="http://www.w3.org/1999/xlink" x="0px" y="0px"
	 viewBox="0 0 512 512" style="enable-background:new 0 0 512 512;" xml:space="preserve">
<path style="fill:#875B51;" d="M256,0c-4.585,0-8.303,3.716-8.303,8.303v11.07h16.605V8.303C264.303,3.716,260.586,0,256,0z"/>
<polygon style="fill:#FFE0A2;" points="222.789,52.584 4.151,19.373 4.151,119.005 222.789,85.795 256,85.795 256,52.584 "/>
<polygon style="fill:#FCDA49;" points="289.211,52.584 256,52.584 256,85.795 289.211,85.795 507.849,119.005 507.849,19.373 "/>
<polygon style="fill:#FFFFFF;" points="222.789,85.795 222.789,119.005 289.211,119.005 289.211,85.795 256,63.654 "/>
<polygon style="fill:#FE9528;" points="289.211,44.281 256,19.373 244.93,52.584 256,85.795 289.211,85.795 "/>
<polygon style="fill:#FCDA49;" points="222.789,44.281 222.789,85.795 256,85.795 256,19.373 "/>
<path style="fill:#4B8D8F;" d="M507.849,260.151c-9.07,18.676-28.215,31.55-50.37,31.55l-33.211,110.149L457.479,512h50.37V260.151z
	"/>
<path style="fill:#63ABA1;" d="M407.109,260.151c-9.069,18.674-28.215,31.55-50.37,31.55s-41.301-12.876-50.37-31.55
	c-9.069,18.674-28.215,31.55-50.37,31.55s-41.301-12.876-50.37-31.55c-9.069,18.674-28.215,31.55-50.37,31.55
	s-41.301-12.876-50.37-31.55c-9.069,18.674-28.215,31.55-50.37,31.55s-41.3-12.875-50.37-31.55V512h453.328V291.702
	C435.324,291.702,416.178,278.826,407.109,260.151z"/>
<g>
	<path style="fill:#FFFFFF;" d="M465.782,366.426h-16.605c-4.586,0-8.303-3.716-8.303-8.303c0-4.586,3.716-8.303,8.303-8.303h16.605
		c4.586,0,8.303,3.716,8.303,8.303C474.084,362.71,470.368,366.426,465.782,366.426z"/>
	<path style="fill:#FFFFFF;" d="M62.824,399.637H46.218c-4.585,0-8.303-3.716-8.303-8.303c0-4.586,3.717-8.303,8.303-8.303h16.605
		c4.585,0,8.303,3.716,8.303,8.303C71.126,395.92,67.409,399.637,62.824,399.637z"/>
</g>
<polygon style="fill:#B3EFFF;" points="314.975,321.038 283.676,271.222 307.728,221.405 300.281,119.005 211.719,119.005 
	209.303,152.216 264.655,152.216 256,271.222 290.822,445.578 324.032,445.578 "/>
<polygon style="fill:#FFFFFF;" points="209.303,152.216 204.272,221.405 228.324,271.222 197.025,321.038 187.968,445.578 
	290.822,445.578 269.486,152.216 "/>
<polygon style="fill:#D3552B;" points="307.728,221.405 274.517,221.405 256,271.222 281.764,321.038 314.975,321.038 "/>
<polygon style="fill:#E86C16;" points="204.272,221.405 197.025,321.038 281.764,321.038 274.517,221.405 "/>
<polygon style="fill:#705147;" points="474.638,423.438 452.497,467.719 474.638,512 507.849,512 507.849,423.438 "/>
<rect x="156.368" y="423.438" style="fill:#875B51;" width="318.27" height="88.562"/>
<path style="fill:#D3552B;" d="M300.274,60.886c-1.733,0-3.482-0.54-4.975-1.661L256,29.751l-39.299,29.475
	c-3.669,2.752-8.873,2.008-11.624-1.661c-2.751-3.668-2.008-8.873,1.661-11.624l44.281-33.211c2.952-2.213,7.012-2.213,9.963,0
	l44.281,33.211c3.668,2.751,4.411,7.956,1.661,11.624C305.292,59.741,302.798,60.886,300.274,60.886z"/>
<path style="fill:#875B51;" d="M322.422,77.492H189.578c-4.585,0-8.303,3.716-8.303,8.303v33.211c0,4.586,3.717,8.303,8.303,8.303
	h132.843c4.586,0,8.303-3.716,8.303-8.303V85.795C330.724,81.208,327.008,77.492,322.422,77.492z M264.303,94.097h16.605v16.605
	h-16.605V94.097z M247.697,110.703h-16.605V94.097h16.605V110.703z M197.881,94.097h16.605v16.605h-16.605V94.097z M314.119,110.703
	h-16.605V94.097h16.605V110.703z"/>
<g>
</g>
<g>
</g>
<g>
</g>
<g>
</g>
<g>
</g>
<g>
</g>
<g>
</g>
<g>
</g>
<g>
</g>
<g>
</g>
<g>
</g>
<g>
</g>
<g>
</g>
<g>
</g>
<g>
</g>
</svg>
