<?xml version="1.0" encoding="iso-8859-1"?>
<!-- Generator: Adobe Illustrator 19.0.0, SVG Export Plug-In . SVG Version: 6.00 Build 0)  -->
<svg version="1.1" id="Layer_1" xmlns="http://www.w3.org/2000/svg" xmlns:xlink="http://www.w3.org/1999/xlink" x="0px" y="0px"
	 viewBox="0 0 512 512" style="enable-background:new 0 0 512 512;" xml:space="preserve">
<g>
	<rect x="131.459" y="210.335" style="fill:#875B51;" width="16.605" height="49.816"/>
	<rect x="29.613" y="210.335" style="fill:#875B51;" width="16.605" height="49.816"/>
	<rect x="465.782" y="210.335" style="fill:#875B51;" width="16.605" height="49.816"/>
	<rect x="363.935" y="210.335" style="fill:#875B51;" width="16.605" height="49.816"/>
</g>
<path style="fill:#FFA850;" d="M256.554,0v132.843c36.684,0,66.422-29.738,66.422-66.422S293.237,0,256.554,0z"/>
<path style="fill:#FCDA49;" d="M289.764,66.422C289.764,29.738,274.896,0,256.554,0c-36.684,0-66.422,29.738-66.422,66.422
	s29.738,66.422,66.422,66.422C274.896,132.843,289.764,103.105,289.764,66.422z"/>
<polygon style="fill:#A3DC93;" points="475.191,251.849 453.051,377.773 475.191,503.697 508.402,503.697 508.402,251.849 "/>
<polygon style="fill:#CAED73;" points="311.905,251.849 256.554,317.44 201.202,251.849 4.705,251.849 4.705,503.697 
	123.71,503.697 256.554,438.106 389.397,503.697 475.191,503.697 475.191,251.849 "/>
<polygon style="fill:#AAC36D;" points="139.762,135.611 174.08,218.638 139.762,218.638 132.22,190.333 "/>
<polygon style="fill:#CAED73;" points="139.762,135.611 139.762,218.638 105.444,218.638 "/>
<polygon style="fill:#AAC36D;" points="37.916,135.611 72.234,218.638 37.916,218.638 30.374,190.333 "/>
<polygon style="fill:#CAED73;" points="37.916,135.611 37.916,218.638 3.598,218.638 "/>
<polygon style="fill:#AAC36D;" points="474.084,135.611 508.402,218.638 474.084,218.638 466.542,190.333 "/>
<polygon style="fill:#CAED73;" points="474.084,135.611 474.084,218.638 439.767,218.638 "/>
<polygon style="fill:#AAC36D;" points="372.238,135.611 406.556,218.638 372.238,218.638 364.696,190.333 "/>
<polygon style="fill:#CAED73;" points="372.238,135.611 372.238,218.638 337.92,218.638 "/>
<polygon style="fill:#59473C;" points="311.905,251.849 201.202,251.849 123.71,503.697 389.397,503.697 "/>
<g>
	<path style="fill:#AAC36D;" d="M441.981,381.924c-4.585,0-8.303-3.716-8.303-8.303v-11.07c0-4.586,3.717-8.303,8.303-8.303
		c4.585,0,8.303,3.716,8.303,8.303v11.07C450.283,378.208,446.566,381.924,441.981,381.924z"/>
	<path style="fill:#AAC36D;" d="M104.337,404.065c-4.585,0-8.303-3.716-8.303-8.303v-11.07c0-4.586,3.717-8.303,8.303-8.303
		s8.303,3.716,8.303,8.303v11.07C112.64,400.349,108.923,404.065,104.337,404.065z"/>
	<path style="fill:#AAC36D;" d="M71.126,370.854c-4.585,0-8.303-3.716-8.303-8.303v-11.07c0-4.586,3.717-8.303,8.303-8.303
		s8.303,3.716,8.303,8.303v11.07C79.429,367.138,75.712,370.854,71.126,370.854z"/>
</g>
<g>
	<path style="fill:#A3DC93;" d="M408.77,337.643c-4.585,0-8.303-3.716-8.303-8.303v-11.07c0-4.586,3.717-8.303,8.303-8.303
		s8.303,3.716,8.303,8.303v11.07C417.072,333.927,413.355,337.643,408.77,337.643z"/>
	<path style="fill:#A3DC93;" d="M37.916,478.789c-4.585,0-8.303-3.716-8.303-8.303v-11.07c0-4.586,3.717-8.303,8.303-8.303
		s8.303,3.716,8.303,8.303v11.07C46.218,475.073,42.501,478.789,37.916,478.789z"/>
</g>
<g>
	<path style="fill:#FFFFFF;" d="M256.554,512c-4.585,0-8.303-3.716-8.303-8.303v-45.204c0-4.586,3.717-8.303,8.303-8.303
		c4.585,0,8.303,3.716,8.303,8.303v45.204C264.856,508.284,261.139,512,256.554,512z"/>
	<path style="fill:#FFFFFF;" d="M256.554,422.516c-4.585,0-8.303-3.716-8.303-8.303v-39.669c0-4.586,3.717-8.303,8.303-8.303
		c4.585,0,8.303,3.716,8.303,8.303v39.669C264.856,418.799,261.139,422.516,256.554,422.516z"/>
	<path style="fill:#FFFFFF;" d="M256.554,338.565c-4.585,0-8.303-3.716-8.303-8.303v-45.203c0-4.586,3.717-8.303,8.303-8.303
		c4.585,0,8.303,3.716,8.303,8.303v45.203C264.856,334.849,261.139,338.565,256.554,338.565z"/>
</g>
<g>
</g>
<g>
</g>
<g>
</g>
<g>
</g>
<g>
</g>
<g>
</g>
<g>
</g>
<g>
</g>
<g>
</g>
<g>
</g>
<g>
</g>
<g>
</g>
<g>
</g>
<g>
</g>
<g>
</g>
</svg>
