<svg height="512" viewBox="0 0 58 60" width="512" xmlns="http://www.w3.org/2000/svg"><g id="037---Down-Arrow" fill="none"><g id="Icons"><path id="Shape" d="m57 28v5c-.0480752 2.6443265-1.1969917 5.1487471-3.17 6.91l-18.82 16.8c-1.0585494.9335408-2.3176947 1.6110157-3.68 1.98-2.9092033.7745577-6.0131092.0510627-8.28-1.93-.75-.76-3.601-3.209-18.87-16.84-1.9743576-1.7654356-3.12621348-4.2719899-3.18-6.92v-5c.049681 2.6489504 1.20225501 5.1570674 3.18 6.92 15.27 13.63 18.12 16.08 18.87 16.84 3.4042501 2.973341 8.4807533 2.9776105 11.89.01.02-.02.05-.04.07-.06l18.82-16.8c1.9730083-1.7612529 3.1219248-4.2656735 3.17-6.91z" fill="#7facfa"/><path id="Shape" d="m57 28c-.0480752 2.6443265-1.1969917 5.1487471-3.17 6.91l-18.82 16.8c-.02.02-.05.04-.07.06-3.4092467 2.9676105-8.4857499 2.963341-11.89-.01-.75-.76-3.6-3.21-18.87-16.84-1.97774499-1.7629326-3.130319-4.2710496-3.18-6.92-.03916919-2.0045257.61423893-3.9612181 1.85-5.54 1.5391389-1.9634759 3.82180659-3.2029567 6.30677718-3.4245585 2.48497062-.2216018 4.95094062.5944105 6.81322282 2.2545585 1.27 1.13.74.66 2.34 2.09.2943809.2657075.7179586.3323576 1.0797126.1698933.3617539-.1624643.5933272-.523344.5902874-.9198933v-12.32c-.0576997-4.82325543 3.6143126-8.87467995 8.42-9.29 2.4880595-.16824378 4.9346106.70199169 6.7575473 2.40365197 1.8229368 1.70166027 2.8592797 4.08260868 2.8624527 6.57634803v12.63c-.0030398.3965493.2285335.757429.5902874.9198933.361754.1624643.7853317.0958142 1.0797126-.1698933l2.34-2.09c1.8321201-1.6299934 4.2476081-2.4461282 6.6928904-2.2613651 2.4452822.184763 4.7107135 1.3545833 6.2771096 3.2413651 1.3256557 1.612065 2.0345878 3.6431554 2 5.73z" fill="#e8edfc"/><g fill="#cad9fc"><path id="Shape" d="m35.02 10v12.63c-.0030398.3965493.2285335.757429.5902874.9198933.361754.1624643.7853317.0958142 1.0797126-.1698933l1.33-1.188v-12.192c-.0027535-2.65428043-1.175724-5.17230449-3.205909-6.88214695-2.0301849-1.70984247-4.7110041-2.43751943-7.327091-1.98885305 4.342255.7173797 7.5287772 4.46988713 7.533 8.871z"/><path id="Shape" d="m55 22.27c-2.0513765-2.4735029-5.2635711-3.6691722-8.433-3.139 2.1293762.3594375 4.0580666 1.4737683 5.433 3.139 3.0478868 3.8497698 2.5327424 9.4150907-1.17 12.64l-18.82 16.8c-.02.02-.05.04-.07.06-1.2519483 1.0852876-2.7757921 1.8091826-4.408 2.094 2.6582624.4455835 5.3763679-.3227363 7.408-2.094.02-.02.05-.04.07-.06l18.82-16.8c3.7027424-3.2249093 4.2178868-8.7902302 1.17-12.64z"/></g></g><g id="Layer_3" fill="#fff" transform="translate(1 1)"><path id="Shape" d="m18.98 9.31v11.88l1.33 1.19c.2943809.2657075.7179586.3323576 1.0797126.1698933.3617539-.1624643.5933272-.523344.5902874-.9198933v-12.32c-.0395375-4.46550747 3.1086693-8.32522327 7.491-9.184-2.6574021-.40595744-5.3584989.38169413-7.381181 2.15238448s-3.1607008 4.34386586-3.109819 7.03161552z"/><path id="Shape" d="m.007 27h-.007v5c.05378652 2.6480101 1.2056424 5.1545644 3.18 6.92 16.743 14.947 18.054 16.021 18.87 16.84 2.0337943 1.7829197 4.762786 2.5543402 7.429 2.1-1.6401831-.2831071-3.1717395-1.0092909-4.429-2.1-.75-.76-3.601-3.209-18.87-16.84-1.9743576-1.7654356-3.12621348-4.2719899-3.18-6.92v-5h.007c-.06484224-4.4002086 3.11221424-8.1800453 7.458-8.873-2.61044864-.4581584-5.28942389.268651-7.31038274 1.9833161-2.02095886 1.7146651-3.17444002 4.2394704-3.14761726 6.8896839z"/></g><g id="Layer_2" transform="translate(-1 -1)"><path id="Rectangle-path" d="m7.164 39.584h2v8h-2z" fill="#fff" transform="matrix(.666 -.746 .746 .666 -29.786 20.649)"/><g fill="#428dff"><path id="Shape" d="m11.814 45.5c-.4120044-.3678216-1.0441784-.3320044-1.412.08s-.3320044 1.0441784.08 1.412l12.772 11.408.008-.009c.0258208.0360246.0568222.0680369.092.095 3.8032076 3.3735386 9.5304816 3.3627901 13.321-.025l18.825-16.804c2.1836314-1.9524044 3.4524424-4.7282004 3.5-7.657v-5c.0153313-3.9438806-2.2954019-7.5261913-5.8946939-9.1384959-3.599292-1.6123045-7.8106919-.9515864-10.7433061 1.6854959l-2.342 2.085v-12.632c-.0034745-2.77006161-1.1542146-5.41494261-3.1785974-7.30574342s-4.7415459-2.85859356-7.5054026-2.67325658c-5.3370139.43832374-9.4244137 4.93245379-9.356 10.287v12.325l-2.337-2.086c-2.947001-2.6432459-7.1777482-3.2947469-10.78343896-1.6605629-3.60569076 1.6341841-5.90461616 5.2450867-5.85956104 9.2035629v4.77c.01337929 2.9814401 1.2895478 5.817572 3.512 7.805.41145214.3689262 1.04407376.3344521 1.41299996-.077.3689262-.4114522.33445215-1.0440738-.07699996-1.413-1.46615587-1.3151483-2.43418916-3.0954679-2.741-5.041.893 1.179-.163.129 20.293 18.377 3.7746294 3.297526 9.4028881 3.3064882 13.188.021.1-.076-.855.771 18.908-16.873.5167622-.4628921.9857778-.9764641 1.4-1.533-.298585 1.9449868-1.2635936 3.7258342-2.73 5.038-20.075 17.917-19.298 17.429-20.882 18.136-2.9176855 1.3120334-6.3358921.7662991-8.7-1.389zm42.346-10.333c-23.187 20.7-18.019 16.089-18.878 16.847-3.0543457 2.6540308-7.6032684 2.6313525-10.631-.053l-18.808-16.792c-1.77044604-1.5669519-2.80189236-3.8050779-2.843-6.169-.0138879-3.1550599 1.83404638-6.0215399 4.71343558-7.3113903 2.87938922-1.2898504 6.24855422-.7604207 8.59356442 1.3503903l2.337 2.086c.5880355.5278568 1.4317378.6599966 2.1530016.3372008.7212638-.3227959 1.1848484-1.0400013 1.1829984-1.8302008v-12.324c-.0703957-4.3006404 3.1995338-7.92224569 7.485-8.29 2.2125669-.15208206 4.389089.62044902 6.0106663 2.1334157s2.5429059 3.63079733 2.5443337 5.8485843v12.632c-.0022466.7903808.4611904 1.5079486 1.18254 1.830999.7213496.3230505 1.5652897.1909807 2.15346-.336999l2.338-2.087c1.6282683-1.4528633 3.7776007-2.1806663 5.9535954-2.0159954s4.191322 1.2076392 5.5824046 2.8889954c2.6885045 3.4406089 2.2186718 8.3826344-1.07 11.255z"/><path id="Shape" d="m7.418 42.918c-.36778733.4119958-.33195697 1.0441331.08003005 1.4119303.41198701.3677972 1.04412512.331982 1.41193222-.0799962.36780711-.4119781.33200709-1.0441171-.07996227-1.4119341-.19784733-.1766433-.4577651-.2674527-.72256939-.2524497-.26480428.0150031-.5128016.1345897-.68943061.3324497z"/><path id="Shape" d="m8.919 32.244c-.41200442-.3678216-1.04417836-.3320044-1.412.08s-.33200442 1.0441784.08 1.412c12.199 10.891 11.322 10.254 11.867 10.254.4148026.0000224.7865552-.2560395.9343891-.6436042.1478339-.3875646.0410536-.8261597-.2683891-1.1023958z"/><path id="Shape" d="m23.666 45.41c-.4140298-.3429611-1.0251314-.2971839-1.3834453.1036328-.358314.4008166-.3355894 1.0132089.0514453 1.3863672 4.255 3.8 4.14 3.825 4.666 3.825.4148026.0000224.7865552-.2560395.9343891-.6436042.1478339-.3875646.0410536-.8261597-.2683891-1.1023958z"/></g></g></g></svg>