<svg xmlns="http://www.w3.org/2000/svg" width="198.363" height="254.346" viewBox="0 0 198.363 254.346">
  <g id="Group_40" data-name="Group 40" transform="translate(-1937 -737)">
    <g id="_069-spiritual_wellness" data-name="069-spiritual_wellness" transform="translate(1908.181 736)">
      <g id="Group_3" data-name="Group 3">
        <path id="Path_151" data-name="Path 151" d="M112.762,98.906H97.491a15.215,15.215,0,0,0-10.928,4.616l-31.8,36.12,20.331,20.33,7.964-6.152,1.878,28.333V207.7a15.2,15.2,0,0,0,15.2,15.2h55.783a15.2,15.2,0,0,0,15.2-15.2c0-31.925-.421-19.64,1.847-53.858l7.935,6.13,20.331-20.33-30.752-35c-.262-.327-.541-.639-.829-.944l-.188-.207a15.216,15.216,0,0,0-10.9-4.583H112.762Z" fill="#e0ebfc"/>
      </g>
      <g id="Group_4" data-name="Group 4">
        <path id="Path_152" data-name="Path 152" d="M54.763,139.643l-19.447,21.3,18.462,14.393,21.316-15.36Z" fill="#f9cfcf"/>
      </g>
      <g id="Group_5" data-name="Group 5">
        <path id="Path_153" data-name="Path 153" d="M201.239,139.643l21.3,23.038-21.3,13.819-20.33-16.527Z" fill="#f9cfcf"/>
      </g>
      <g id="Group_6" data-name="Group 6">
        <path id="Path_154" data-name="Path 154" d="M53.777,177.333a2,2,0,0,1-1.23-.423L34.086,162.516a2,2,0,0,1-.247-2.926l19.447-21.3a2,2,0,0,1,1.432-.65,1.921,1.921,0,0,1,1.459.585l20.331,20.33a2,2,0,0,1-.244,3.037l-21.316,15.36a2,2,0,0,1-1.171.378ZM38.251,160.691l15.574,12.143,18.192-13.109L54.829,142.537Z" fill="#3762cc"/>
      </g>
      <g id="Group_7" data-name="Group 7">
        <path id="Path_155" data-name="Path 155" d="M201.239,178.5a2,2,0,0,1-1.262-.448l-20.33-16.527a2,2,0,0,1-.152-2.966l20.33-20.33a2.1,2.1,0,0,1,1.453-.586,2,2,0,0,1,1.43.643l21.3,23.039a2,2,0,0,1-.38,3.035l-21.3,13.818a2,2,0,0,1-1.089.322Zm-17.348-18.681,17.481,14.211,18.09-11.734-18.279-19.769Z" fill="#3762cc"/>
      </g>
      <g id="Group_8" data-name="Group 8">
        <path id="Path_156" data-name="Path 156" d="M112.762,87.731v13.594a15.254,15.254,0,0,0,30.508,0V87.731Z" fill="#f9cfcf"/>
      </g>
      <g id="Group_16" data-name="Group 16">
        <path id="Path_161" data-name="Path 161" d="M83.058,155.821a2,2,0,0,1-2-2V120.667a2,2,0,0,1,4,0v33.154A2,2,0,0,1,83.058,155.821Z" fill="#3762cc"/>
      </g>
      <g id="Group_17" data-name="Group 17">
        <path id="Path_162" data-name="Path 162" d="M172.974,155.843a2,2,0,0,1-2-2V120.667a2,2,0,0,1,4,0v33.176A2,2,0,0,1,172.974,155.843Z" fill="#3762cc"/>
      </g>
      <g id="Group_18" data-name="Group 18">
        <path id="Path_163" data-name="Path 163" d="M155.923,224.9H100.14a17.224,17.224,0,0,1-17.2-17.2v-25.48L81.31,157.7l-4.994,3.858a2,2,0,0,1-2.637-.169l-20.331-20.33a2,2,0,0,1-.087-2.735l31.8-36.12c.022-.025.045-.051.069-.075a17.132,17.132,0,0,1,12.36-5.22H110.76V87.73a2,2,0,0,1,2-2h30.508a2,2,0,0,1,2,2v9.176h13.3a17.138,17.138,0,0,1,12.326,5.183l.239.261c.291.307.6.647.883,1l30.723,34.968a2,2,0,0,1-.089,2.734l-20.33,20.33a2,2,0,0,1-2.637.169l-4.967-3.837c-.254,3.785-.47,6.92-.651,9.573a262.19,262.19,0,0,0-.961,28c.009,3.235.02,7.243.02,12.407A17.22,17.22,0,0,1,155.923,224.9ZM83.058,151.82a2,2,0,0,1,2,1.868l1.878,28.334c0,.044,0,.088,0,.132V207.7a13.218,13.218,0,0,0,13.2,13.2h55.783a13.219,13.219,0,0,0,13.2-13.2c0-5.159-.011-9.164-.02-12.4a264.647,264.647,0,0,1,.97-28.287c.239-3.479.535-7.788.9-13.306a2,2,0,0,1,3.219-1.451l6.543,5.054,17.76-17.761-29.515-33.593c-.021-.024-.041-.049-.061-.073-.227-.284-.47-.554-.719-.817l-.214-.234a13.135,13.135,0,0,0-9.42-3.93h-15.3a2,2,0,0,1-2-2V89.73H114.76v9.176a2,2,0,0,1-2,2H97.491a13.16,13.16,0,0,0-9.462,3.978L57.5,139.556l17.759,17.759,6.571-5.077a2,2,0,0,1,1.223-.418Z" fill="#3762cc"/>
      </g>
      <g id="Group_19" data-name="Group 19">
        <path id="Path_164" data-name="Path 164" d="M128.031,84.066A38.584,38.584,0,0,1,89.447,45.482V35.068a9.417,9.417,0,0,1,9.417-9.417h67.75V45.483A38.583,38.583,0,0,1,128.031,84.066Z" fill="#4671c6"/>
      </g>
      <g id="Group_20" data-name="Group 20">
        <path id="Path_165" data-name="Path 165" d="M128.031,86.065A40.629,40.629,0,0,1,87.447,45.482V35.067A11.43,11.43,0,0,1,98.864,23.65h67.75a2,2,0,0,1,2,2V45.482A40.628,40.628,0,0,1,128.031,86.065ZM98.865,27.65a7.425,7.425,0,0,0-7.417,7.417V45.482a36.584,36.584,0,0,0,73.168,0V27.65Z" fill="#3762cc"/>
      </g>
      <g id="Group_21" data-name="Group 21">
        <path id="Path_166" data-name="Path 166" d="M160.893,51.755V48.678a32.863,32.863,0,0,0-65.724,0v3.077a9.937,9.937,0,1,0,.868,19.8,32.927,32.927,0,0,0,63.988,0,9.937,9.937,0,1,0,.868-19.8Z" fill="#f9cfcf"/>
      </g>
      <g id="Group_22" data-name="Group 22">
        <path id="Path_167" data-name="Path 167" d="M128.027,80.758a11.791,11.791,0,0,1-3.483-.469,10.33,10.33,0,0,1-4.348-2.535,1,1,0,0,1,1.42-1.408,8.357,8.357,0,0,0,3.51,2.03,11.217,11.217,0,0,0,5.8,0,8.382,8.382,0,0,0,3.512-2.031,1,1,0,0,1,1.42,1.408,10.342,10.342,0,0,1-4.349,2.536,11.858,11.858,0,0,1-3.483.468Z" fill="#3762cc"/>
      </g>
      <g id="Group_23" data-name="Group 23">
        <path id="Path_168" data-name="Path 168" d="M128.031,98.7A34.647,34.647,0,0,1,94.5,73.6a12.079,12.079,0,0,1-7.618-3.08,11.919,11.919,0,0,1,6.283-20.642v-1.2a34.863,34.863,0,0,1,69.724,0v1.2a11.9,11.9,0,0,1,6.285,20.641,12.086,12.086,0,0,1-7.62,3.081,34.648,34.648,0,0,1-33.527,25.1ZM96.039,69.557A2,2,0,0,1,97.984,71.1a30.927,30.927,0,0,0,60.094,0,2.008,2.008,0,0,1,2.157-1.531,7.99,7.99,0,0,0,8.892-7.888,7.967,7.967,0,0,0-8.193-7.925,2.162,2.162,0,0,1-1.439-.571,2,2,0,0,1-.6-1.429V48.678a30.863,30.863,0,0,0-61.724,0v3.077a2,2,0,0,1-.6,1.429,2.037,2.037,0,0,1-1.44.571,7.928,7.928,0,0,0-5.815,2.286,7.876,7.876,0,0,0,.247,11.51,7.963,7.963,0,0,0,6.266,2.017c.07-.007.141-.011.211-.011Z" fill="#3762cc"/>
      </g>
      <g id="Group_24" data-name="Group 24">
        <path id="Path_169" data-name="Path 169" d="M158.826,47.325H113.678A19.546,19.546,0,0,1,94.132,27.779V22.546A19.545,19.545,0,0,1,113.677,3h30.48a22.458,22.458,0,0,1,22.458,22.458V39.535a7.79,7.79,0,0,1-7.789,7.79Z" fill="#4671c6"/>
      </g>
      <g id="Group_25" data-name="Group 25">
        <path id="Path_170" data-name="Path 170" d="M158.825,49.324H113.677A21.57,21.57,0,0,1,92.131,27.779V22.546A21.57,21.57,0,0,1,113.677,1h30.48a24.486,24.486,0,0,1,24.458,24.458V39.535a9.8,9.8,0,0,1-9.79,9.789ZM113.677,5A17.566,17.566,0,0,0,96.131,22.546v5.233a17.566,17.566,0,0,0,17.546,17.545h45.148a5.8,5.8,0,0,0,5.79-5.789V25.458A20.482,20.482,0,0,0,144.157,5Z" fill="#3762cc"/>
      </g>
      <g id="Group_28" data-name="Group 28">
        <g id="Group_26" data-name="Group 26">
          <path id="Path_171" data-name="Path 171" d="M143.741,66.073a7.837,7.837,0,0,1-7.4-5.267,1.5,1.5,0,1,1,2.834-.982,4.837,4.837,0,0,0,9.171-.1,1.5,1.5,0,0,1,2.856.922A7.815,7.815,0,0,1,143.741,66.073Z" fill="#3762cc"/>
        </g>
        <g id="Group_27" data-name="Group 27">
          <path id="Path_172" data-name="Path 172" d="M112.278,66.073a7.839,7.839,0,0,1-7.4-5.267,1.5,1.5,0,1,1,2.834-.982,4.837,4.837,0,0,0,9.171-.1,1.5,1.5,0,1,1,2.854.922A7.81,7.81,0,0,1,112.278,66.073Z" fill="#3762cc"/>
        </g>
      </g>
      <g id="Group_33" data-name="Group 33">
        <g id="Group_29" data-name="Group 29">
          <path id="Path_173" data-name="Path 173" d="M165.871,162.218c-.085-.018-9.966-2.076-10.053-2.076-32.643,0-31.35-.3-31.35.545v.813a5.549,5.549,0,0,0,4.587,5.466l6.773,1.194a1.742,1.742,0,0,1-.353,3.457l-24.853-.714a5.264,5.264,0,0,0-5.415,5.262.546.546,0,0,0,.446.536c.111.02,35.064,6.46,35.177,6.451.035,0,25.109-2.087,25.144-2.087H214a11.177,11.177,0,0,0,0-22.354c-.04,0-10.518,0-10.557,0-.127.014-37.451,3.531-37.576,3.505Z" fill="#f9cfcf"/>
        </g>
        <g id="Group_30" data-name="Group 30">
          <path id="Path_174" data-name="Path 174" d="M140.917,185.15c-.448,0-2.624-.4-35.608-6.479a2.545,2.545,0,0,1-2.1-2.506,7.265,7.265,0,0,1,7.473-7.261l21.325.612-3.3-.581a7.541,7.541,0,0,1-6.24-7.437v-.813a2.193,2.193,0,0,1,.59-1.7c.874-.927.868-.929,13.2-.884,4.546.016,10.844.037,19.563.037.285,0,.287,0,10.185,2.06,3.182-.27,35.173-3.277,37.249-3.478.152-.012.16-.012,10.716-.012A13.177,13.177,0,1,1,214,183.064h-47.95c-1.479.12-24.821,2.061-25.058,2.08a.483.483,0,0,1-.08.006Zm-33.495-10.156c11.583,2.134,31.176,5.738,33.491,6.146,9.418-.785,24.9-2.073,25.061-2.073H214a9.177,9.177,0,0,0,0-18.354c-.677,0-9.523,0-10.461,0-1.51.147-35.927,3.464-38,3.464a.527.527,0,0,1-.079,0h0l-.157-.033c-5.281-1.1-8.888-1.845-9.676-2-8.629,0-14.873-.021-19.392-.038-4.89-.015-8.062-.026-9.719.011A3.546,3.546,0,0,0,129.4,165l6.773,1.194a3.744,3.744,0,0,1,2.707,5.341,3.785,3.785,0,0,1-3.464,2.085l-24.854-.714a3.274,3.274,0,0,0-3.143,2.09Zm-1.412-.26h0Z" fill="#3762cc"/>
        </g>
        <g id="Group_31" data-name="Group 31">
          <path id="Path_175" data-name="Path 175" d="M100.182,160.142c32.643,0,31.35-.3,31.35.545v.813a5.549,5.549,0,0,1-4.587,5.466l-6.773,1.194a1.742,1.742,0,0,0,.353,3.457l24.853-.714a5.264,5.264,0,0,1,5.415,5.262.546.546,0,0,1-.446.536c-.111.02-35.064,6.46-35.177,6.451l-25.1-2.085-.045,0H42a11.177,11.177,0,0,1,0-22.354c.04,0,10.518,0,10.557,0l37.414,3.512c.181.019,10.05-2.083,10.215-2.083Z" fill="#f9cfcf"/>
        </g>
        <g id="Group_32" data-name="Group 32">
          <path id="Path_176" data-name="Path 176" d="M115.078,185.15a.638.638,0,0,1-.081-.005l-25.032-2.079H42a13.177,13.177,0,0,1,0-26.354c10.59,0,10.6,0,10.705.008l37.2,3.491c.795-.149,3.572-.729,5.652-1.162a38.8,38.8,0,0,1,4.629-.907c8.719,0,15.016-.021,19.563-.037,12.32-.046,12.322-.043,13.2.884a2.219,2.219,0,0,1,.59,1.729v.782a7.541,7.541,0,0,1-6.239,7.437l-3.3.581,21.323-.612a7.264,7.264,0,0,1,7.473,7.261,2.543,2.543,0,0,1-2.09,2.5c-32.977,6.075-35.169,6.479-35.625,6.479ZM45.933,160.713h-3.9A9.177,9.177,0,1,0,42,179.067h48.03c.043,0,.131,0,.174.006l24.886,2.067c2.314-.407,21.93-4.016,33.492-6.146a3.265,3.265,0,0,0-.774-1.168,3.188,3.188,0,0,0-2.369-.923l-24.853.714a3.755,3.755,0,0,1-3.464-2.086,3.742,3.742,0,0,1,2.706-5.34L126.6,165a3.547,3.547,0,0,0,2.881-2.882c-1.657-.038-4.828-.027-9.72-.011-4.52.017-10.769.038-19.4.038-.525.1-2.353.482-3.984.823-6.194,1.291-6.193,1.289-6.6,1.251l-37.319-3.5Zm104.033,14.025-.008,0Z" fill="#3762cc"/>
        </g>
      </g>
      <g id="Group_38" data-name="Group 38">
        <g id="Group_34" data-name="Group 34">
          <path id="Path_177" data-name="Path 177" d="M198.877,242.7l-97.712,1.372-14.972,5.8a54.068,54.068,0,0,1-14.824,3.449,4.44,4.44,0,0,1-4.81-4.036l-2.794-31.931a4.44,4.44,0,0,1,4.036-4.81h0a54.024,54.024,0,0,1,15.2.822l15.754,3.117,96.5-15.5a20.988,20.988,0,1,1,3.622,41.708Z" fill="#f9cfcf"/>
        </g>
        <g id="Group_35" data-name="Group 35">
          <path id="Path_178" data-name="Path 178" d="M70.976,255.346a6.448,6.448,0,0,1-6.41-5.879l-2.793-31.932a6.448,6.448,0,0,1,5.854-6.976,55.99,55.99,0,0,1,15.759.852l15.4,3.048,96.148-15.439a22.988,22.988,0,1,1,3.969,45.682l-97.353,1.367-14.637,5.675a56.016,56.016,0,0,1-15.373,3.576c-.189.017-.378.026-.566.026Zm1.538-41q-2.27,0-4.538.2a2.443,2.443,0,0,0-2.219,2.644l2.793,31.931a2.453,2.453,0,0,0,2.644,2.218,52.056,52.056,0,0,0,14.275-3.321l14.972-5.806a2.016,2.016,0,0,1,.695-.135l97.712-1.372a18.988,18.988,0,1,0-3.278-37.733l-96.5,15.5a2.012,2.012,0,0,1-.705-.013l-15.754-3.117a51.959,51.959,0,0,0-10.094-.99ZM198.877,242.7h.01Z" fill="#3762cc"/>
        </g>
        <g id="Group_36" data-name="Group 36">
          <path id="Path_179" data-name="Path 179" d="M57.126,242.7l97.712,1.372,14.972,5.8a54.067,54.067,0,0,0,14.824,3.449,4.44,4.44,0,0,0,4.81-4.036l2.794-31.931a4.44,4.44,0,0,0-4.036-4.81h0a54.024,54.024,0,0,0-15.2.822l-15.754,3.117-96.5-15.5A20.988,20.988,0,1,0,57.126,242.7Z" fill="#f9cfcf"/>
        </g>
        <g id="Group_37" data-name="Group 37">
          <path id="Path_180" data-name="Path 180" d="M185.026,255.346c-.188,0-.376-.009-.566-.025a55.99,55.99,0,0,1-15.373-3.577L154.45,246.07,57.1,244.7a22.988,22.988,0,1,1,3.968-45.682l96.148,15.439,15.4-3.048a56.073,56.073,0,0,1,15.759-.852,6.448,6.448,0,0,1,5.855,6.976l-2.794,31.932a6.448,6.448,0,0,1-6.409,5.878ZM57.154,240.7l97.712,1.372a2.01,2.01,0,0,1,.694.135l14.973,5.8a51.974,51.974,0,0,0,14.275,3.322,2.453,2.453,0,0,0,1.781-.562,2.423,2.423,0,0,0,.862-1.657l2.794-31.931a2.445,2.445,0,0,0-2.219-2.643,52.1,52.1,0,0,0-14.635.791l-15.753,3.117a2.043,2.043,0,0,1-.706.013l-96.5-15.5A18.988,18.988,0,1,0,57.154,240.7Z" fill="#3762cc"/>
        </g>
      </g>
    </g>
    <g id="Group_39" data-name="Group 39" transform="translate(3 12)">
      <g id="Path_181" data-name="Path 181" transform="translate(1972 838)" fill="#8598af">
        <path d="M 105.6818923950195 91.41527557373047 L 22.49267196655273 91.41527557373047 C 20.9462718963623 91.41527557373047 19.65190887451172 91.23536682128906 18.64556312561035 90.88053131103516 C 17.76829147338867 90.57120513916016 17.0912914276123 90.12698364257812 16.57585525512695 89.5224609375 C 15.51547241210938 88.27880859375 15 86.15411376953125 15 83.02698516845703 L 15 82.84407806396484 L 14.96681785583496 82.66420745849609 L 2.00148868560791 12.37405776977539 C 2.098910570144653 6.637464046478271 6.99529504776001 2.00000524520874 13 2.00000524520874 L 116 2.00000524520874 C 122.0047073364258 2.00000524520874 126.9010925292969 6.637464046478271 126.9985122680664 12.37405776977539 L 114.0331802368164 82.66420745849609 L 114 82.84407806396484 L 114 83.02698516845703 C 114 86.01683807373047 113.3781967163086 88.11003875732422 112.0990905761719 89.42618560791016 C 110.7982940673828 90.76464080810547 108.6992034912109 91.41527557373047 105.6818923950195 91.41527557373047 Z" stroke="none"/>
        <path d="M 13 4 C 8.153694152832031 4 4.18975830078125 7.657356262207031 4.006614685058594 12.21891784667969 L 16.93363952636719 82.30139923095703 L 17 82.66116333007812 L 17 83.0269775390625 C 17 85.62171936035156 17.36933898925781 87.37052154541016 18.09774017333984 88.22483825683594 C 18.77126312255859 89.01476287841797 20.24993896484375 89.415283203125 22.49268341064453 89.415283203125 L 105.681884765625 89.415283203125 C 108.0964584350586 89.415283203125 109.7729797363281 88.94998168945312 110.6648406982422 88.03230285644531 C 111.55078125 87.12070465087891 112 85.43666076660156 112 83.0269775390625 L 112 82.66116333007812 L 112.0663604736328 82.30139923095703 L 124.9933853149414 12.21891784667969 C 124.8102416992188 7.657356262207031 120.846305847168 4 116 4 L 13 4 M 13 0 L 116 0 C 123.1797027587891 0 129 5.618324279785156 129 12.54888153076172 L 116 83.0269775390625 C 116 89.95751953125 112.8615798950195 93.415283203125 105.681884765625 93.415283203125 L 22.49268341064453 93.415283203125 C 15.31298065185547 93.415283203125 13 89.95751953125 13 83.0269775390625 L 0 12.54888153076172 C 0 5.618324279785156 5.820297241210938 0 13 0 Z" stroke="none" fill="#3465cf"/>
      </g>
      <g id="Path_182" data-name="Path 182" transform="translate(1985 927)" fill="#919191">
        <path d="M 97.5 11 L 6.5 11 C 4.018692493438721 11 2 8.981307983398438 2 6.5 C 2 4.018692493438721 4.018692493438721 2 6.5 2 L 97.5 2 C 99.98130798339844 2 102 4.018692493438721 102 6.5 C 102 8.981307983398438 99.98130798339844 11 97.5 11 Z" stroke="none"/>
        <path d="M 6.5 4 C 5.121498107910156 4 4 5.121500015258789 4 6.5 C 4 7.878499984741211 5.121498107910156 9 6.5 9 L 97.5 9 C 98.87850189208984 9 100 7.878499984741211 100 6.5 C 100 5.121500015258789 98.87850189208984 4 97.5 4 L 6.5 4 M 6.5 0 L 97.5 0 C 101.0898513793945 0 104 2.910149574279785 104 6.5 C 104 10.0898494720459 101.0898513793945 13 97.5 13 L 6.5 13 C 2.910148620605469 13 0 10.0898494720459 0 6.5 C 0 2.910149574279785 2.910148620605469 0 6.5 0 Z" stroke="none" fill="#3068d2"/>
      </g>
      <g id="Path_183" data-name="Path 183" transform="translate(2023.799 878)" fill="rgba(255,255,255,0.38)">
        <path d="M 12.10058879852295 20.15234184265137 C 10.78012847900391 20.15234184265137 9.472348213195801 19.8597526550293 8.21354866027832 19.28270149230957 C 7.027288436889648 18.73890113830566 5.895108222961426 17.93599128723145 4.939418315887451 16.96077156066895 C 3.057268381118774 15.04016208648682 1.933598399162292 12.55081176757812 1.933598399162292 10.30176162719727 C 1.933598399162292 8.152241706848145 2.952208518981934 6.107781887054443 4.801778316497803 4.545001983642578 C 6.744138240814209 2.903831958770752 9.336238861083984 2.000001907348633 12.10058879852295 2.000001907348633 C 14.91240882873535 2.000001907348633 17.76168823242188 2.949081897735596 19.91782760620117 4.603901863098145 C 22.00741767883301 6.207632064819336 23.1582088470459 8.231171607971191 23.1582088470459 10.30176162719727 C 23.1582088470459 12.4664421081543 21.89380836486816 14.93075180053711 19.77592849731445 16.89380264282227 C 17.541748046875 18.96465110778809 14.7441987991333 20.15234184265137 12.10058879852295 20.15234184265137 Z" stroke="none"/>
        <path d="M 12.10058879852295 4.000001907348633 C 9.841378211975098 4.000001907348633 7.651538848876953 4.755472183227539 6.092578887939453 6.072690963745117 C 4.700328826904297 7.249052047729492 3.933588027954102 8.750962257385254 3.933588027954102 10.30176162719727 C 3.933588027954102 12.03948211669922 4.843599319458008 14.00553226470947 6.36785888671875 15.56093215942383 C 7.981758117675781 17.20781135559082 10.07125854492188 18.15234184265137 12.10058879852295 18.15234184265137 C 16.68008804321289 18.15234184265137 21.15819931030273 13.6570520401001 21.15819931030273 10.30176162719727 C 21.15819931030273 9.625831604003906 20.96435928344727 8.942811965942383 20.58205795288086 8.271652221679688 C 20.16041946411133 7.531432151794434 19.50965881347656 6.811781883239746 18.70013809204102 6.190482139587402 C 16.88632965087891 4.798402786254883 14.48087882995605 4.000001907348633 12.10058879852295 4.000001907348633 M 12.10058879852295 1.9073486328125e-06 C 18.7835578918457 1.9073486328125e-06 25.15819931030273 4.612251281738281 25.15819931030273 10.30176162719727 C 25.15819931030273 15.99126243591309 18.7835578918457 22.15234184265137 12.10058879852295 22.15234184265137 C 5.417617797851562 22.15234184265137 -0.06641197204589844 15.99126243591309 -0.06641197204589844 10.30176162719727 C -0.06641197204589844 4.612251281738281 5.417617797851562 1.9073486328125e-06 12.10058879852295 1.9073486328125e-06 Z" stroke="none" fill="#3068d2"/>
      </g>
    </g>
  </g>
</svg>
