<svg id="Layer_1" enable-background="new 0 0 256 256" height="512" viewBox="0 0 256 256" width="512" xmlns="http://www.w3.org/2000/svg"><g><g><path d="m190.006 59.677c-.169 1.764.34-2.977-5.074 46.784-4.671.275-9.112 2.118-12.605 5.231l-8.393 7.481h-21.059v-15.484h-30v15.484h-21.059v.001l-8.394-7.482c-3.493-3.113-7.934-4.957-12.605-5.231-5.415-49.761-4.906-45.02-5.074-46.784h-18.894v62.027c0 3.773 1.934 7.283 5.123 9.298l39.845 25.185v6.817c0 1.712.488 3.388 1.407 4.832l4.532 7.122v20.714c0 2.419-.657 4.793-1.901 6.868-2.713 4.527-3.914 9.338-3.914 14.53l28.726 15.667h7.333 7.333l28.726-15.667c0-5.37-1.438-10.324-4.119-14.655-1.272-2.055-1.946-4.425-1.946-6.842v-20.616l4.533-7.122c.919-1.444 1.408-3.121 1.408-4.833v-6.817l39.844-25.184c3.189-2.016 5.123-5.525 5.123-9.298v-62.026z" fill="#f9cfcf"/></g><g><path d="m135.333 234.738h-14.666c-.335 0-.664-.084-.958-.244l-28.726-15.667c-.643-.351-1.042-1.024-1.042-1.756 0-5.755 1.373-10.845 4.197-15.558 1.059-1.765 1.617-3.784 1.617-5.841v-20.132l-4.22-6.631c-1.125-1.768-1.72-3.81-1.72-5.905v-5.715l-38.913-24.596c-3.791-2.396-6.055-6.504-6.055-10.989v-62.027c0-1.104.896-2 2-2h18.895c1.03 0 1.893.783 1.991 1.809l.031.34c.071.766.071.766 2.309 21.321l2.556 23.481c4.482.606 8.735 2.551 12.123 5.571l7.825 6.975 18.297-.001v-13.484c0-1.104.896-2 2-2h30c1.104 0 2 .896 2 2v13.484h18.297l7.824-6.974c3.389-3.02 7.641-4.964 12.123-5.57l2.731-25.09c2.064-18.966 2.064-18.966 2.133-19.713l.031-.337c.098-1.027.96-1.811 1.991-1.811h18.896c1.104 0 2 .896 2 2v62.027c0 4.484-2.264 8.592-6.055 10.989l-38.912 24.596v5.715c0 2.098-.595 4.141-1.721 5.907l-4.219 6.63-.001 20.034c0 2.046.569 4.048 1.647 5.79 2.932 4.737 4.418 10.021 4.418 15.707 0 .732-.399 1.405-1.042 1.756l-28.726 15.667c-.292.158-.621.242-.956.242zm-14.156-4h13.646l27.211-14.84c-.188-4.484-1.463-8.66-3.795-12.428-1.47-2.375-2.246-5.104-2.246-7.895l.001-20.616c0-.38.108-.753.313-1.074l4.532-7.122c.717-1.124 1.095-2.424 1.095-3.759v-6.817c0-.686.352-1.324.932-1.69l39.844-25.184c2.624-1.659 4.191-4.503 4.191-7.608v-60.028h-15.086c-.191 1.797-.67 6.19-1.987 18.293l-2.907 26.707c-.105.971-.896 1.723-1.871 1.78-4.202.247-8.247 1.926-11.391 4.728l-8.394 7.481c-.366.326-.84.507-1.331.507h-21.059c-1.104 0-2-.896-2-2v-13.484h-26v13.484c0 1.104-.896 2-2 2h-21.059c-.49 0-.964-.18-1.331-.507l-8.395-7.481c-3.143-2.802-7.188-4.48-11.391-4.728-.975-.057-1.766-.81-1.871-1.78l-2.73-25.097c-1.451-13.33-1.963-18.029-2.163-19.903h-15.086v60.027c0 3.104 1.567 5.949 4.191 7.608l39.845 25.185c.58.366.932 1.004.932 1.69v6.817c0 1.333.379 2.633 1.095 3.758l4.532 7.122c.204.321.313.693.313 1.074v20.714c0 2.781-.756 5.512-2.186 7.897-2.249 3.753-3.434 7.796-3.606 12.327zm63.755-124.277h.01z" fill="#3762cc"/></g><g><path d="m35.545 40.877h184.91v10.181h-184.91z" fill="#a4c9ff"/></g><g><path d="m220.455 53.059h-184.91c-1.104 0-2-.896-2-2v-10.182c0-1.104.896-2 2-2h184.91c1.104 0 2 .896 2 2v10.181c0 1.105-.895 2.001-2 2.001zm-182.91-4h180.91v-6.181h-180.91z" fill="#3762cc"/></g><g><path d="m91.941 217.071-3.514 27.764c-.227 1.792 1.17 3.377 2.976 3.377h24.069c1.46 0 2.708-1.051 2.956-2.491l2.238-12.984z" fill="#f9cfcf"/></g><g><path d="m164.059 217.071 3.514 27.764c.227 1.792-1.17 3.377-2.976 3.377h-24.069c-1.46 0-2.708-1.051-2.956-2.491l-2.238-12.984z" fill="#f9cfcf"/></g><g><path d="m115.473 250.212h-24.07c-1.436 0-2.803-.618-3.751-1.695-.949-1.077-1.39-2.51-1.209-3.934l3.514-27.763c.083-.656.485-1.229 1.073-1.53.589-.3 1.287-.291 1.869.025l28.726 15.667c.751.41 1.158 1.252 1.013 2.096l-2.237 12.984c-.415 2.404-2.488 4.15-4.928 4.15zm-21.915-29.981-3.146 24.855c-.05.39.13.66.241.787s.357.339.75.339h24.069c.488 0 .903-.349.986-.83l1.994-11.573z" fill="#3762cc"/></g><g><path d="m164.597 250.212h-24.069c-2.44 0-4.514-1.746-4.928-4.15l-2.237-12.984c-.146-.844.262-1.686 1.013-2.096l28.726-15.667c.581-.316 1.28-.326 1.869-.025.588.301.99.874 1.073 1.53l3.514 27.764c.181 1.422-.26 2.856-1.209 3.933-.95 1.077-2.317 1.695-3.752 1.695zm-27.05-16.403 1.994 11.573c.083.481.498.83.986.83h24.069c.393 0 .639-.212.75-.339s.291-.396.241-.786l-3.146-24.856z" fill="#3762cc"/></g><g><path d="m239.152 84.148h-15.697c-1.657 0-3-1.343-3-3v-70.36c0-1.657 1.343-3 3-3h15.697c1.657 0 3 1.343 3 3v70.36c0 1.657-1.344 3-3 3z" fill="#4671c6"/></g><g><path d="m242.152 77.785h8.848c1.105 0 2-.895 2-2v-59.634c0-1.105-.895-2-2-2h-8.848z" fill="#4671c6"/></g><g><path d="m16.848 7.788h15.697c1.657 0 3 1.343 3 3v70.36c0 1.657-1.343 3-3 3h-15.697c-1.657 0-3-1.343-3-3v-70.36c0-1.657 1.344-3 3-3z" fill="#4671c6"/></g><g><path d="m13.848 14.151h-8.848c-1.105 0-2 .895-2 2v59.633c0 1.105.895 2 2 2h8.848z" fill="#4671c6"/></g><g><path d="m131.031 187.429h6.491c.828 0 1.5-.671 1.5-1.5s-.672-1.5-1.5-1.5h-6.491c-.827 0-1.5-.673-1.5-1.5v-2.314c0-.827.673-1.5 1.5-1.5h6.491c.828 0 1.5-.671 1.5-1.5s-.672-1.5-1.5-1.5h-6.491c-1.161 0-2.21.454-3.009 1.178-.799-.724-1.848-1.178-3.009-1.178h-6.491c-.828 0-1.5.671-1.5 1.5s.672 1.5 1.5 1.5h6.491c.827 0 1.5.673 1.5 1.5v2.313c0 .827-.673 1.5-1.5 1.5h-6.491c-.828 0-1.5.671-1.5 1.5 0 .829.672 1.5 1.5 1.5h6.491c.827 0 1.5.673 1.5 1.5v2.313c0 .825-.67 1.497-1.495 1.5-.002 0-.003 0-.005 0h-6.491c-.828 0-1.5.671-1.5 1.5 0 .829.672 1.5 1.5 1.5h6.491.005c.825.003 1.495.674 1.495 1.5v2.313c0 .827-.673 1.5-1.5 1.5h-6.491c-.828 0-1.5.671-1.5 1.5s.672 1.5 1.5 1.5h6.491c1.161 0 2.21-.454 3.009-1.178.799.724 1.848 1.178 3.009 1.178h6.491c.828 0 1.5-.671 1.5-1.5s-.672-1.5-1.5-1.5h-6.491c-.827 0-1.5-.673-1.5-1.5v-2.313c0-.825.67-1.497 1.495-1.5h.005 6.491c.828 0 1.5-.671 1.5-1.5 0-.829-.672-1.5-1.5-1.5h-6.491c-.002 0-.003 0-.005 0-.825-.003-1.495-.674-1.495-1.5v-2.313c0-.826.673-1.499 1.5-1.499z" fill="#f9a7a7"/></g><g><path d="m91.816 158.188c-1.104 0-2-.896-2-2v-22.188c0-1.104.896-2 2-2s2 .896 2 2v22.188c0 1.104-.895 2-2 2z" fill="#3762cc"/></g><g><path d="m163.934 158.187c-1.104 0-2-.896-2-2v-22.187c0-1.104.896-2 2-2s2 .896 2 2v22.187c0 1.105-.896 2-2 2z" fill="#3762cc"/></g><g><g><ellipse cx="152.282" cy="88.459" fill="#f9cfcf" rx="6.92" ry="9.004"/></g><g><path d="m152.282 99.463c-1.276 0-2.507-.322-3.659-.956-.968-.533-1.32-1.749-.787-2.717.532-.967 1.749-1.32 2.717-.787.554.305 1.136.46 1.729.46 2.667 0 4.92-3.208 4.92-7.004s-2.253-7.003-4.92-7.003c-1.191 0-2.35.638-3.262 1.796-.684.868-1.941 1.017-2.809.333s-1.018-1.941-.334-2.809c1.688-2.142 3.962-3.321 6.404-3.321 4.919 0 8.92 4.936 8.92 11.003s-4 11.005-8.919 11.005z" fill="#3762cc"/></g></g><g><g><ellipse cx="103.718" cy="88.459" fill="#f9cfcf" rx="6.92" ry="9.004"/></g><g><path d="m103.718 99.463c-4.919 0-8.92-4.937-8.92-11.004s4.001-11.003 8.92-11.003c2.442 0 4.717 1.179 6.404 3.321.684.868.534 2.125-.334 2.809-.865.684-2.125.534-2.809-.333-.912-1.159-2.07-1.796-3.262-1.796-2.667 0-4.92 3.207-4.92 7.003s2.253 7.004 4.92 7.004c.594 0 1.176-.155 1.729-.46.969-.532 2.185-.179 2.717.787.533.968.181 2.184-.787 2.717-1.151.633-2.382.955-3.658.955z" fill="#3762cc"/></g></g><g><path d="m128 116.288c-14.045 0-25.431-11.386-25.431-25.431v-8.976c0-14.045 11.386-25.431 25.431-25.431 14.045 0 25.431 11.386 25.431 25.431v8.976c0 14.046-11.386 25.431-25.431 25.431z" fill="#f9cfcf"/></g><g><path d="m116.503 94.432c-2.126 0-3.85-1.724-3.85-3.85v-4.619c0-2.126 1.724-3.85 3.85-3.85 2.126 0 3.85 1.724 3.85 3.85v4.619c0 2.126-1.724 3.85-3.85 3.85z" fill="#3762cc"/></g><g><path d="m131.15 103.094h-6.301c-.828 0-1.5-.671-1.5-1.5s.672-1.5 1.5-1.5h6.301c.828 0 1.5.671 1.5 1.5s-.671 1.5-1.5 1.5z" fill="#3762cc"/></g><g><path d="m139.603 94.432c-2.126 0-3.85-1.724-3.85-3.85v-4.619c0-2.126 1.724-3.85 3.85-3.85 2.126 0 3.85 1.724 3.85 3.85v4.619c-.001 2.126-1.724 3.85-3.85 3.85z" fill="#3762cc"/></g><g><path d="m128 118.288c-15.125 0-27.431-12.305-27.431-27.431v-8.976c0-15.125 12.306-27.43 27.431-27.43s27.431 12.305 27.431 27.43v8.976c0 15.126-12.306 27.431-27.431 27.431zm0-59.836c-12.92 0-23.431 10.511-23.431 23.43v8.976c0 12.92 10.511 23.431 23.431 23.431s23.431-10.511 23.431-23.431v-8.976c0-12.92-10.511-23.43-23.431-23.43z" fill="#3762cc"/></g><g><path d="m62.722 61.499h-12.619c-5.946 0-10.765-4.82-10.765-10.765v-11.643c0-4.779 3.874-8.654 8.654-8.654h16.842c4.779 0 8.654 3.874 8.654 8.654v11.642c-.001 5.946-4.82 10.766-10.766 10.766z" fill="#f9cfcf"/></g><g><path d="m205.791 61.499h-12.619c-5.946 0-10.765-4.82-10.765-10.765v-11.643c0-4.779 3.874-8.654 8.654-8.654h16.842c4.779 0 8.654 3.874 8.654 8.654v11.642c-.001 5.946-4.82 10.766-10.766 10.766z" fill="#f9cfcf"/></g><g><path d="m62.722 63.499h-12.619c-7.038 0-12.765-5.727-12.765-12.765v-11.643c0-5.875 4.779-10.654 10.653-10.654h16.842c5.875 0 10.654 4.779 10.654 10.654v11.642c0 7.039-5.726 12.766-12.765 12.766zm-14.731-31.061c-3.669 0-6.653 2.985-6.653 6.654v11.642c0 4.833 3.932 8.765 8.765 8.765h12.619c4.833 0 8.766-3.932 8.766-8.765v-11.643c0-3.669-2.985-6.654-6.654-6.654h-16.843z" fill="#3762cc"/></g><g><path d="m205.791 63.499h-12.619c-7.039 0-12.766-5.727-12.766-12.765v-11.643c0-5.875 4.779-10.654 10.654-10.654h16.842c5.875 0 10.654 4.779 10.654 10.654v11.642c.001 7.039-5.726 12.766-12.765 12.766zm-14.73-31.061c-3.669 0-6.654 2.985-6.654 6.654v11.642c0 4.833 3.933 8.765 8.766 8.765h12.619c4.833 0 8.766-3.932 8.766-8.765v-11.643c0-3.669-2.985-6.654-6.654-6.654h-16.843z" fill="#3762cc"/></g><g><path d="m91.941 217.071 28.726 15.667h7.333 7.333l28.726-15.667c0-2.655-.327-5.225-1.129-7.946h-69.923c-.807 2.823-1.066 5.272-1.066 7.946z" fill="#4671c6"/></g><g><path d="m135.333 234.738h-14.666c-.335 0-.664-.084-.958-.244l-28.726-15.667c-.643-.351-1.042-1.024-1.042-1.756 0-3.111.353-5.731 1.143-8.496.245-.859 1.03-1.451 1.923-1.451h69.923c.887 0 1.668.584 1.918 1.435.815 2.765 1.211 5.549 1.211 8.512 0 .732-.399 1.405-1.042 1.756l-28.726 15.667c-.294.16-.623.244-.958.244zm-14.156-4h13.646l27.212-14.841c-.066-1.648-.276-3.208-.644-4.771h-66.833c-.35 1.544-.539 3.064-.597 4.77z" fill="#3762cc"/></g><g><path d="m239.151 86.148h-15.696c-2.757 0-5-2.243-5-5v-70.36c0-2.757 2.243-5 5-5h15.696c2.757 0 5 2.243 5 5v70.36c0 2.757-2.243 5-5 5zm-15.696-76.36c-.552 0-1 .449-1 1v70.36c0 .551.448 1 1 1h15.696c.552 0 1-.449 1-1v-70.36c0-.551-.448-1-1-1z" fill="#3762cc"/></g><g><path d="m251 79.785h-8.849c-1.104 0-2-.896-2-2v-63.634c0-1.104.896-2 2-2h8.849c2.206 0 4 1.794 4 4v59.633c0 2.206-1.794 4.001-4 4.001zm-6.849-4h6.849v-59.634h-6.849z" fill="#3762cc"/></g><g><path d="m32.545 86.148h-15.696c-2.757 0-5-2.243-5-5v-70.36c0-2.757 2.243-5 5-5h15.696c2.757 0 5 2.243 5 5v70.36c0 2.757-2.243 5-5 5zm-15.696-76.36c-.552 0-1 .449-1 1v70.36c0 .551.448 1 1 1h15.696c.552 0 1-.449 1-1v-70.36c0-.551-.448-1-1-1z" fill="#3762cc"/></g><g><path d="m13.849 79.785h-8.849c-2.206 0-4-1.794-4-4v-59.634c0-2.206 1.794-4 4-4h8.849c1.104 0 2 .896 2 2v63.633c0 1.105-.896 2.001-2 2.001zm-8.849-63.634v59.633h6.849v-59.633z" fill="#3762cc"/></g><g><path d="m157.313 146.485c-.008-1.1-.901-1.985-2-1.985-.005 0-.01 0-.015 0-1.104.008-1.993.91-1.985 2.015l.104 14.336c.004.554-.446 1.007-1 1.007h-21.541c-.407 0-.744-.251-.899-.601 0-1.068.014 1.378-.101-14.771-.007-1.066-.869-1.986-2-1.986-.002 0-.005.001-.007.001-.003 0-.005-.001-.008-.001-1.075.007-1.985.882-1.985 2v14.768c-.175.383-.524.59-.897.59h-21.54c-.552 0-1-.449-1-1v-14.358c0-1.104-.895-2-2-2-1.104 0-2 .896-2 2v14.358c0 2.757 2.243 5 5 5h21.54c1.08 0 2.097-.354 2.95-.982.829.61 1.842.982 2.947.982h21.541c2.777 0 5.02-2.257 5-5.036z" fill="#f9a7a7"/></g></g></svg>