<svg enable-background="new 0 0 35.881 35.881" height="35.881" viewBox="0 0 35.881 35.881" width="35.881" xmlns="http://www.w3.org/2000/svg"><path d="m22.52 1.449c-1.294-.374-2.683-.451-4.021-.507-.072-.01-.154-.016-.258-.012-.03-.001-.06 0-.092.003-.051.004-.54.031-1.09.083-8.379.786-15.094 6.246-16.834 14.757-1.454 7.11 4.278 19.796 12.975 19.109 1.571-.124 2.027-2.734 1.091-3.752-1.407-1.531-4.125-.51-5.291-2.739-.021-.038-.043-.08-.068-.125-.039-.067.275.169.767.421 1.235.633 2.733.728 3.878-.234 3.851-3.234-1.883-3.598-3.869-5.598-2.461-2.479-1.643-6.627-.616-9.474.23-.639.115-4.525 2.063-3.68 1.062.462 1.484.501 2.635.693 1.735.292 11.681-1.452 12.467.306.864 1.93 1.45 6.442 1.348 8.431-.201 3.857-2.896 4.964-5.907 6.339-.444.203-.98.76-.921 1.275.218 1.899-.503 5.498.317 7.128.933 1.85 3.032.93 4.592.115 4.354-2.273 7.34-5.614 9.132-10.194 3.779-9.658-3.035-19.666-12.298-22.345zm-15.949 27.764c-.124.115-.436-.021-.69-.31s-.329-.642-.176-.781c.153-.142.451.006.675.319.224.316.316.657.191.772zm4.013 2.994c.213-.214.765-.146 1.188.209.903.758 1.349 1.48-.333.792-.215-.088-.424-.186-.629-.287-.342-.172-.44-.501-.226-.714zm-1.407-1.196c.32.147.631.241.679.255.047.014-.079.177-.282.363-.204.186-.739.083-1.17-.263-.384-.309-.754-.636-1.11-.976-.399-.381-.613-.803-.499-.919s.482.147.875.535c.314.309.63.558.943.707.183.111.372.21.564.298zm1.81-5.32c.188.068.177.063-.031.017s-.363-.086-.342-.108c.022-.021.187.023.373.091zm-1.944-.633c.141-.129.518-.044.864.151.348.194.625.338.597.364-.028.025-.815-.132-.852.42-.018.264.163.423-.618-.483-.038-.044-.078-.08-.119-.114-.07-.058-.013-.209.128-.338zm22.125 2.467c-1.311 2.215-3.351 3.873-5.495 5.222-1.086.683-1.758.761-2.167.493-.462-.304-.183-1.165.201-1.562.268-.277.542-.56.824-.851.384-.397.695-1.029.697-1.413.001-.227.001-.457.001-.694 0-.117-.007-.227-.016-.334-.015-.184-.349-.015-.737.377-.275.278-.55.554-.822.829-.39.392-.678.389-.646-.008.021-.275.038-.522.039-.721 0-.027.001-.052.002-.075.001-.041.315-.393.704-.784.157-.159.315-.317.471-.477.39-.393.691-.763.682-.827-.011-.065-.324.208-.704.607-.153.161-.306.322-.458.482-.381.399-.702.274-.625-.272.156-1.108.656-1.485 2.162-2.297 1.585-.854 3.103-2.075 3.673-3.874.096-.301.176-.594.244-.881.117-.491.484-1.222.861-1.626.35-.374.697-.747 1.045-1.119.376-.404.675-1.07.615-1.483-.058-.412-.463-.424-.854-.033-.213.211-.426.423-.64.635-.392.389-.72.255-.79-.292-.136-1.06-.427-2.132-.852-3.312-.044-.123-.08-.254-.11-.391-.049-.219.263-.697.676-1.063.167-.147.334-.296.501-.444.413-.367.747-.707.743-.763-.004-.057-.327.209-.726.594-.185.179-.369.357-.554.537-.396.384-.767.339-.808-.103-.04-.441.244-1.108.645-1.49.081-.077.162-.154.243-.231.398-.381.688-.733.641-.782s-.408.226-.804.611c-.042.042-.085.083-.127.124-.395.386-.403.378-.014-.013.041-.042.083-.083.124-.124.393-.39.37-.412-.03-.033-.03.027-.061.057-.091.085-.399.38-.764.239-.981-.268-.25-.581-.681-1.032-1.466-1.211-2.034-.46-3.892 1.027-5.934.995-2.132-.034-4.227-.195-6.299-.515-.546-.084-.963-.188-.934-.216.029-.029-.001-.042-.064-.018-.064.026-.467-.016-.899-.098-.261-.05-.521-.103-.781-.161-4.242-.96-3.878 3.964-4.789 6.487-1.146 3.176-.644 7.022 1.659 9.333.39.391.583.651.39.729-.133.053-.229.138-.202.277.002.009.006.018.01.025.006.016-.354-.229-.867-.401-.299-.101-.614-.179-.941-.272-.803-.23-1.573.224-2.13.729-.167.151-.266.362-.116.561.116.154.245.341.385.55.207.31.23.691.06.853-.172.16-.576-.072-.87-.539-.29-.46-.552-.928-.784-1.402-.243-.496-.097-1.232.288-1.629.123-.126.245-.253.368-.378.385-.396.625-.983.551-1.312-.074-.33-.441-.282-.833.106-.159.159-.318.316-.477.475-.392.389-.847.277-.975-.26-.008-.033-.016-.065-.024-.099-.126-.538.122-1.296.514-1.686.257-.256.516-.513.774-.769.104-.114.209-.229.313-.343.173-.189-.012-.035-.41.348-.235.227-.465.447-.684.658-.398.383-.764.422-.8.084s.264-.927.656-1.315c.28-.275.56-.552.839-.827.394-.389.723-1.064.759-1.509.035-.443-.229-.479-.613-.083-.344.355-.689.711-1.033 1.066-.384.396-.692.28-.651-.257s.418-1.291.803-1.688c.451-.463.897-.922 1.335-1.373.385-.396.812-1.148.987-1.673.184-.551.395-1.089.632-1.613.228-.503.121-.582-.272-.193-.659.648-1.322 1.303-1.987 1.958-.393.388-.573.274-.368-.237 1.731-4.331 5.243-7.985 9.773-9.635.518-.189.855-.219.739-.105s.137.026.576-.169c.439-.194 1.242-.429 1.788-.51.522-.077 1.054-.129 1.595-.151 8.248.333 14.446 5.846 16.081 13.849.823 4.035-.374 8.16-2.415 11.608z"/><path d="m30.923 20.208c-1.391 1.473-2.741 2.9-4.058 4.292-.38.4-.586.701-.462.667.125-.033.54-.381.929-.773 1.161-1.172 2.301-2.322 3.407-3.438.389-.393.748-.878.795-1.09.046-.213-.232-.059-.611.342z"/></svg>