<svg xmlns="http://www.w3.org/2000/svg" width="511.412" height="452.225" viewBox="0 0 511.412 452.225">
  <g id="Group_86" data-name="Group 86" transform="translate(0 -59.775)">
    <g id="Group_42" data-name="Group 42" opacity="0.6">
      <path id="Path_184" data-name="Path 184" d="M392.518,81.15a19.691,19.691,0,0,0-5.957,1.008,33.107,33.107,0,0,0-54.472,0,19.7,19.7,0,0,0-5.957-1.008,19.916,19.916,0,0,0-19.916,19.916H412.434A19.916,19.916,0,0,0,392.518,81.15Z" fill="#fff"/>
    </g>
    <g id="Group_43" data-name="Group 43" opacity="0.4">
      <circle id="Ellipse_2" data-name="Ellipse 2" cx="175.194" cy="175.194" r="175.194" transform="translate(129.162 131.421)" fill="#fffff4"/>
    </g>
    <g id="Group_44" data-name="Group 44" opacity="0.5">
      <circle id="Ellipse_3" data-name="Ellipse 3" cx="110.486" cy="110.486" r="110.486" transform="translate(193.87 196.129)" fill="#fffff4"/>
    </g>
    <g id="Group_45" data-name="Group 45">
      <circle id="Ellipse_4" data-name="Ellipse 4" cx="50.615" cy="50.615" r="50.615" transform="translate(253.741 256)" fill="#fff"/>
    </g>
    <g id="Group_46" data-name="Group 46">
      <path id="Path_185" data-name="Path 185" d="M.594,239.392C.242,244.888,0,250.415,0,256A254.981,254.981,0,0,0,22.281,360.431c69.036,7.728,162.446,6.68,184.171,4.491,25.806-2.6,96-13.955,107.355-19.116s5.047-40.258,5.047-40.258C220.9,305.548,172.475,209.787.594,239.392Z" fill="#53dc92"/>
    </g>
    <g id="Group_47" data-name="Group 47">
      <path id="Path_186" data-name="Path 186" d="M318.853,305.548c-97.949,0-146.378-95.761-318.259-66.157-.058.9-.046,1.821-.1,2.724C152.33,215.359,197.325,316.95,286.363,316.95c0,0,3.34,22.22.4,35.5,12.962-2.532,23.275-4.93,27.045-6.644C325.161,340.645,318.853,305.548,318.853,305.548Z" fill="#74ff9e"/>
    </g>
    <g id="Group_48" data-name="Group 48">
      <path id="Path_187" data-name="Path 187" d="M511.412,272.523c-165.914.158-228.783,66.057-362.767,66.057v55.742l228.911,87.02A255.98,255.98,0,0,0,511.412,272.523Z" fill="#52c883"/>
    </g>
    <g id="Group_49" data-name="Group 49">
      <path id="Path_188" data-name="Path 188" d="M148.645,338.581v18.28c10.662,4.4,10.432,6.121,30.328,6.121,59.26,0,169.368-67.412,217.848-78.66C306.694,303.315,246.69,338.581,148.645,338.581Z" fill="#6bee97"/>
    </g>
    <g id="Group_50" data-name="Group 50">
      <path id="Path_189" data-name="Path 189" d="M7.172,316.134C34.232,428.492,135.335,512,256,512a258.577,258.577,0,0,0,27.954-1.548C297,474.671,314.839,404.645,314.839,404.645c-66.065,0-137.806-90.839-306.581-90.839Z" fill="#34be69"/>
    </g>
    <g id="Group_52" data-name="Group 52" opacity="0.3">
      <g id="Group_51" data-name="Group 51">
        <path id="Path_190" data-name="Path 190" d="M309.614,404.426C244.934,399.9,172.6,313.807,8.258,313.807l-1.086,2.327c.612,2.541,1.3,5.049,1.991,7.56,117.568.906,175.385,80.753,300.465,80.753Z" fill="#74ff9e"/>
      </g>
    </g>
    <g id="Group_53" data-name="Group 53">
      <path id="Path_191" data-name="Path 191" d="M220.716,186.689a29.325,29.325,0,0,0-36.772-28.684,42.231,42.231,0,0,0-73.335,28.684H220.716Z" fill="#fff"/>
    </g>
    <g id="Group_54" data-name="Group 54">
      <path id="Path_192" data-name="Path 192" d="M416.406,186.689a16.361,16.361,0,0,0-20.517-16,23.563,23.563,0,0,0-40.918,16h61.435Z" fill="#fff"/>
    </g>
    <g id="Group_55" data-name="Group 55">
      <path id="Path_193" data-name="Path 193" d="M256,512c106.248,0,197.365-64.732,236.1-156.9h-4.873c-146.177,0-249.242,114.951-370.612,115.584A254.719,254.719,0,0,0,256,512Z" fill="#43ab5f"/>
    </g>
    <g id="Group_56" data-name="Group 56">
      <path id="Path_194" data-name="Path 194" d="M302.618,179.04a27.094,27.094,0,0,0-8.2,1.388,45.565,45.565,0,0,0-74.972,0,27.125,27.125,0,0,0-8.2-1.388,27.411,27.411,0,0,0-27.411,27.411H330.03A27.413,27.413,0,0,0,302.618,179.04Z" fill="#fff"/>
    </g>
    <g id="Group_57" data-name="Group 57" transform="translate(385.69 148.302)">
      <path id="Path_195" data-name="Path 195" d="M392.364,166.168a21.688,21.688,0,0,1,17.147-1.345,38.286,38.286,0,0,1,63,0,22.758,22.758,0,0,1,6.889-1.166,23.031,23.031,0,0,1,23.032,23.032H385.69C387.645,179.728,389.85,172.876,392.364,166.168Z" transform="translate(-385.69 -148.302)" fill="#fff"/>
    </g>
    <g id="Group_59" data-name="Group 59" opacity="0.6">
      <path id="Path_197" data-name="Path 197" d="M203.255,101.066A28.592,28.592,0,0,1,239.108,73.1a41.175,41.175,0,0,1,71.5,27.966H203.255Z" fill="#fff"/>
    </g>
    <g id="Group_60" data-name="Group 60">
      <path id="Path_198" data-name="Path 198" d="M247.742,115.613A28.592,28.592,0,0,1,283.6,87.646a41.175,41.175,0,0,1,71.5,27.966H247.742Z" fill="#fff"/>
    </g>
    <g id="Group_65" data-name="Group 65">
      <g id="Group_62" data-name="Group 62">
        <g id="Group_61" data-name="Group 61">
          <path id="Path_199" data-name="Path 199" d="M72.552,240.722a2.772,2.772,0,0,1-2.774-2.772V208.092a2.774,2.774,0,0,1,5.548,0V237.95A2.773,2.773,0,0,1,72.552,240.722Z" fill="#53dc92"/>
        </g>
      </g>
      <g id="Group_64" data-name="Group 64">
        <g id="Group_63" data-name="Group 63">
          <path id="Path_200" data-name="Path 200" d="M89.613,205.959a17.062,17.062,0,0,1-34.124,0c0-9.423,7.639-38.389,17.062-38.389S89.613,196.536,89.613,205.959Z" fill="#53dc92"/>
        </g>
      </g>
    </g>
    <g id="Group_70" data-name="Group 70">
      <g id="Group_67" data-name="Group 67">
        <g id="Group_66" data-name="Group 66">
          <path id="Path_201" data-name="Path 201" d="M412.435,294.464a4.462,4.462,0,0,1-4.464-4.46V241.962a4.464,4.464,0,0,1,8.928,0V290A4.462,4.462,0,0,1,412.435,294.464Z" fill="#52c883"/>
        </g>
      </g>
      <g id="Group_69" data-name="Group 69">
        <g id="Group_68" data-name="Group 68">
          <path id="Path_202" data-name="Path 202" d="M439.886,238.531a27.452,27.452,0,1,1-54.9,0c0-15.161,12.291-61.768,27.452-61.768S439.886,223.369,439.886,238.531Z" fill="#52c883"/>
        </g>
      </g>
    </g>
    <g id="Group_75" data-name="Group 75">
      <g id="Group_72" data-name="Group 72">
        <g id="Group_71" data-name="Group 71">
          <path id="Path_203" data-name="Path 203" d="M466.311,289.29a2.8,2.8,0,0,1-2.8-2.794V256.4a2.8,2.8,0,0,1,5.594,0v30.1A2.8,2.8,0,0,1,466.311,289.29Z" fill="#52c883"/>
        </g>
      </g>
      <g id="Group_74" data-name="Group 74">
        <g id="Group_73" data-name="Group 73">
          <path id="Path_204" data-name="Path 204" d="M483.509,254.247a17.2,17.2,0,0,1-34.4,0c0-9.5,7.7-38.7,17.2-38.7S483.509,244.748,483.509,254.247Z" fill="#52c883"/>
        </g>
      </g>
    </g>
    <g id="Group_79" data-name="Group 79">
      <g id="Group_77" data-name="Group 77">
        <g id="Group_76" data-name="Group 76">
          <path id="Path_205" data-name="Path 205" d="M187.622,348.046a2.863,2.863,0,0,1-2.864-2.862V314.358a2.864,2.864,0,0,1,5.728,0v30.826A2.863,2.863,0,0,1,187.622,348.046Z" fill="#6bee97"/>
        </g>
      </g>
      <g id="Group_78" data-name="Group 78">
        <path id="Path_206" data-name="Path 206" d="M205.236,312.157a17.615,17.615,0,0,1-35.23,0c0-9.728,7.886-39.633,17.615-39.633S205.236,302.428,205.236,312.157Z" fill="#6bee97"/>
      </g>
    </g>
    <g id="Group_84" data-name="Group 84">
      <g id="Group_81" data-name="Group 81">
        <g id="Group_80" data-name="Group 80">
          <path id="Path_207" data-name="Path 207" d="M105.274,242.931a1.722,1.722,0,0,1-1.723-1.721V222.668a1.723,1.723,0,0,1,3.446,0V241.21A1.721,1.721,0,0,1,105.274,242.931Z" fill="#74ff9e"/>
        </g>
      </g>
      <g id="Group_83" data-name="Group 83">
        <g id="Group_82" data-name="Group 82">
          <path id="Path_208" data-name="Path 208" d="M115.869,221.344a10.6,10.6,0,1,1-21.19,0c0-5.852,4.744-23.839,10.6-23.839S115.869,215.493,115.869,221.344Z" fill="#74ff9e"/>
        </g>
      </g>
    </g>
    <g id="Group_85" data-name="Group 85" transform="translate(-171)" opacity="0.6">
      <path id="Path_197-2" data-name="Path 197" d="M203.255,101.066A28.592,28.592,0,0,1,239.108,73.1a41.175,41.175,0,0,1,71.5,27.966H203.255Z" fill="#fff"/>
    </g>
  </g>
</svg>
