<svg id="Layer_1" enable-background="new 0 0 256 256" height="512" viewBox="0 0 256 256" width="512" xmlns="http://www.w3.org/2000/svg"><g><g><g><path d="m189.507 231.693h-164.441c-4.21 0-7.623-3.413-7.623-7.623v-213.447c0-4.21 3.413-7.623 7.623-7.623h164.441c4.21 0 7.623 3.413 7.623 7.623v213.447c0 4.21-3.413 7.623-7.623 7.623z" fill="#e0ebfc"/></g><g><g><path d="m174.805 40.117h-135.038c-1.804 0-3.267-1.463-3.267-3.267v-10.89c0-1.804 1.463-3.267 3.267-3.267h135.038c1.804 0 3.267 1.463 3.267 3.267v10.89c0 1.805-1.463 3.267-3.267 3.267z" fill="#a4c9ff"/></g><g><path d="m57.192 81.318h-18.514c-1.203 0-2.178-.975-2.178-2.178v-18.513c0-1.203.975-2.178 2.178-2.178h18.513c1.203 0 2.178.975 2.178 2.178v18.513c.001 1.203-.975 2.178-2.177 2.178z" fill="#a4c9ff"/></g><g><g><path d="m173.716 74.24h-95.47c-2.406 0-4.356-1.95-4.356-4.356 0-2.406 1.95-4.356 4.356-4.356h95.47c2.406 0 4.356 1.95 4.356 4.356 0 2.406-1.95 4.356-4.356 4.356z" fill="#a4c9ff"/></g></g><g><path d="m57.192 124.879h-18.514c-1.203 0-2.178-.975-2.178-2.178v-18.513c0-1.203.975-2.178 2.178-2.178h18.513c1.203 0 2.178.975 2.178 2.178v18.513c.001 1.203-.975 2.178-2.177 2.178z" fill="#a4c9ff"/></g><g><g><path d="m173.716 117.801h-95.47c-2.406 0-4.356-1.95-4.356-4.356 0-2.406 1.95-4.356 4.356-4.356h95.47c2.406 0 4.356 1.95 4.356 4.356 0 2.405-1.95 4.356-4.356 4.356z" fill="#a4c9ff"/></g></g><g><path d="m57.192 168.44h-18.514c-1.203 0-2.178-.975-2.178-2.178v-18.513c0-1.203.975-2.178 2.178-2.178h18.513c1.203 0 2.178.975 2.178 2.178v18.513c.001 1.202-.975 2.178-2.177 2.178z" fill="#a4c9ff"/></g><g><g><path d="m173.716 161.361h-95.47c-2.406 0-4.356-1.95-4.356-4.356 0-2.406 1.95-4.356 4.356-4.356h95.47c2.406 0 4.356 1.95 4.356 4.356 0 2.406-1.95 4.356-4.356 4.356z" fill="#a4c9ff"/></g></g><g><path d="m57.192 212h-18.514c-1.203 0-2.178-.975-2.178-2.178v-18.513c0-1.203.975-2.178 2.178-2.178h18.513c1.203 0 2.178.975 2.178 2.178v18.513c.001 1.203-.975 2.178-2.177 2.178z" fill="#a4c9ff"/></g><g><g><path d="m173.716 204.922h-95.47c-2.406 0-4.356-1.95-4.356-4.356 0-2.406 1.95-4.356 4.356-4.356h95.47c2.406 0 4.356 1.95 4.356 4.356 0 2.405-1.95 4.356-4.356 4.356z" fill="#a4c9ff"/></g></g></g><g><g><path d="m47.935 77.354c-.022 0-.045 0-.068 0-.952-.019-1.854-.424-2.501-1.123l-6.716-7.26c-1.313-1.419-1.227-3.633.193-4.946 1.419-1.313 3.633-1.227 4.946.193l4.245 4.589 14.08-14.08c1.367-1.366 3.583-1.366 4.95 0 1.367 1.367 1.367 3.583 0 4.95l-16.654 16.652c-.657.657-1.548 1.025-2.475 1.025z" fill="#f9a7a7"/></g></g><g><g><path d="m47.935 120.915c-.022 0-.045 0-.068 0-.952-.019-1.855-.424-2.501-1.123l-6.716-7.26c-1.313-1.419-1.227-3.634.192-4.946s3.634-1.226 4.946.192l4.245 4.589 14.08-14.08c1.367-1.366 3.583-1.366 4.95 0 1.367 1.367 1.367 3.583 0 4.95l-16.653 16.653c-.657.656-1.548 1.025-2.475 1.025z" fill="#f9a7a7"/></g></g><g><g><path d="m47.935 164.476c-.022 0-.045 0-.068 0-.952-.019-1.854-.424-2.501-1.123l-6.716-7.26c-1.313-1.419-1.227-3.633.193-4.946 1.419-1.313 3.633-1.227 4.946.193l4.245 4.589 14.08-14.08c1.367-1.366 3.583-1.366 4.95 0 1.367 1.367 1.367 3.583 0 4.95l-16.654 16.652c-.657.656-1.548 1.025-2.475 1.025z" fill="#f9a7a7"/></g></g><g><g><path d="m47.935 208.036c-.022 0-.045 0-.068 0-.952-.019-1.854-.424-2.501-1.123l-6.716-7.26c-1.313-1.419-1.227-3.633.193-4.946 1.419-1.313 3.633-1.227 4.946.193l4.245 4.589 14.08-14.08c1.367-1.366 3.583-1.366 4.95 0 1.367 1.367 1.367 3.583 0 4.95l-16.654 16.652c-.657.657-1.548 1.025-2.475 1.025z" fill="#f9a7a7"/></g></g><g><path d="m189.507 233.693h-164.442c-5.306 0-9.623-4.317-9.623-9.623v-213.447c0-5.306 4.317-9.623 9.623-9.623h164.441c5.306 0 9.623 4.317 9.623 9.623v213.447c.001 5.306-4.316 9.623-9.622 9.623zm-164.442-228.693c-3.101 0-5.623 2.522-5.623 5.623v213.447c0 3.101 2.522 5.623 5.623 5.623h164.441c3.101 0 5.623-2.522 5.623-5.623v-213.447c0-3.101-2.522-5.623-5.623-5.623z" fill="#3762cc"/></g></g><g><g><path d="m241.546 199.759c7.165-7.543 11.159-17.549 11.159-27.952v-16.299-15.301c0-6.258-4.97-11.343-11.176-11.555v-.02h-.399-99.123-11.177v26.876 16.299c0 10.403 3.995 20.409 11.159 27.952l8.266 8.703h11.176 24.748 11.176 24.748 11.176z" fill="#f9a7a7"/></g><g><path d="m241.546 199.759c7.165-7.543 11.159-17.549 11.159-27.952 0-18.628 0-19.475 0-31.6 0-6.258-4.97-11.343-11.176-11.555v-.02h-.399-99.123-11.177v26.876 16.299c0 10.403 3.995 20.409 11.159 27.952l8.266 8.703h11.176 24.748 11.176 24.748 11.176z" fill="#f9a7a7"/></g><g><path d="m233.28 210.462h-83.024c-.548 0-1.073-.225-1.45-.623l-8.266-8.703c-7.551-7.949-11.709-18.366-11.709-29.33v-43.175c0-1.104.896-2 2-2h110.699c.128 0 .253.012.375.035 7.203.403 12.802 6.293 12.802 13.54v31.6c0 10.964-4.158 21.38-11.709 29.33l-8.266 8.703c-.379.398-.904.623-1.452.623zm-82.165-4h81.306l7.675-8.08c6.842-7.203 10.609-16.641 10.609-26.575v-31.6c0-5.182-4.061-9.379-9.245-9.556-.073-.002-.145-.009-.215-.019h-108.415v41.175c0 9.935 3.768 19.373 10.61 26.575zm90.431-6.703h.01z" fill="#3762cc"/></g><g><path d="m231.151 154.443h-89.943c-5.732 0-10.378-4.646-10.378-10.378v-30.336c0-11.463 9.293-20.756 20.756-20.756h69.187c11.463 0 20.756 9.293 20.756 20.756v30.336c0 5.732-4.646 10.378-10.378 10.378z" fill="#f9a7a7"/></g><g><path d="m231.151 154.443h-89.943c-5.732 0-10.378-4.646-10.378-10.378v-30.336c0-11.463 9.293-20.756 20.756-20.756h69.187c11.463 0 20.756 9.293 20.756 20.756v30.336c0 5.732-4.646 10.378-10.378 10.378z" fill="#f9a7a7"/></g><g><path d="m231.151 156.443h-89.942c-6.825 0-12.378-5.553-12.378-12.378v-30.335c0-12.548 10.208-22.756 22.756-22.756h69.187c12.548 0 22.756 10.208 22.756 22.756v30.335c-.001 6.826-5.554 12.378-12.379 12.378zm-79.565-61.469c-10.342 0-18.756 8.414-18.756 18.756v30.335c0 4.62 3.758 8.378 8.378 8.378h89.942c4.62 0 8.378-3.758 8.378-8.378v-30.335c0-10.342-8.414-18.756-18.756-18.756z" fill="#3762cc"/></g><g><path d="m241.546 199.759c7.165-7.543 11.159-17.549 11.159-27.952v-16.299-15.301c0-6.258-4.97-11.343-11.176-11.555-.623-.032-27.397-.02-26.776-.02-7.128 0-12.906 5.778-12.906 12.906s5.778 12.906 12.906 12.906h26.776v45.334z" fill="#f9a7a7"/></g><g><path d="m241.532 201.764c-.493 0-.986-.18-1.371-.544-.801-.759-.844-2.015-.086-2.817l.017-.018c6.845-7.206 10.612-16.644 10.612-26.578v-31.6c0-5.182-4.061-9.379-9.245-9.556-.962-.03-25.992-.02-26.7-.019-.002 0-.005 0-.007 0-6.014 0-10.906 4.892-10.906 10.906s4.892 10.906 10.906 10.906h26.775c1.104 0 2 .896 2 2s-.896 2-2 2h-26.775c-8.219 0-14.906-6.687-14.906-14.906 0-8.217 6.682-14.902 14.898-14.906h.008c.129 0 .255.012.377.036.794-.036 1.957-.037 3.711-.037h9.064c13.289.002 13.595.018 13.725.024 7.317.25 13.075 6.203 13.075 13.553v31.6c0 10.964-4.158 21.38-11.709 29.33-.394.415-.929.626-1.463.626z" fill="#3762cc"/></g><g><path d="m211.768 210.462c-1.104 0-2-.896-2-2v-15.573c0-15.889 7.731-30.871 20.682-40.076.9-.639 2.149-.429 2.789.472.64.9.429 2.149-.472 2.789-11.897 8.456-19 22.219-19 36.815v15.573c.001 1.104-.895 2-1.999 2z" fill="#3762cc"/></g><g><path d="m201.727 208.462h-19.951v-25.188c0-2.066 1.675-3.741 3.741-3.741h12.47c2.066 0 3.741 1.675 3.741 3.741v25.188z" fill="#4671c6"/></g><g><path d="m201.727 210.462h-19.952c-1.104 0-2-.896-2-2v-25.188c0-3.166 2.576-5.741 5.741-5.741h12.469c3.166 0 5.741 2.576 5.741 5.741v25.188c.001 1.104-.894 2-1.999 2zm-17.952-4h15.952v-23.188c0-.96-.781-1.741-1.741-1.741h-12.469c-.96 0-1.741.781-1.741 1.741v23.188z" fill="#3762cc"/></g><g><g><path d="m174.925 202.098c0-1.253.629-2.477 1.772-3.184l26.186-16.21c1.757-1.087 4.062-.546 5.15 1.212 1.088 1.757.545 4.064-1.212 5.15l-26.186 16.21c-1.757 1.087-4.062.546-5.15-1.212-.379-.614-.56-1.294-.56-1.966z" fill="#e0ebfc"/></g></g><g><g><path d="m178.677 207.837c-.441 0-.885-.051-1.325-.154-1.493-.351-2.76-1.263-3.567-2.567-.563-.909-.86-1.952-.86-3.018 0-2.005 1.017-3.832 2.72-4.885l26.186-16.21c1.303-.807 2.844-1.059 4.336-.707 1.493.351 2.76 1.263 3.567 2.567.807 1.303 1.058 2.844.707 4.337-.352 1.493-1.264 2.76-2.568 3.566l-26.185 16.21c-.919.569-1.956.861-3.011.861zm26.173-23.695c-.32 0-.634.089-.913.262l-26.186 16.21c-.517.32-.825.875-.825 1.484 0 .321.09.637.261.913.245.396.628.672 1.081.778.452.107.918.03 1.315-.214l26.186-16.211c.396-.245.672-.628.779-1.081.106-.453.03-.92-.214-1.315-.245-.396-.629-.672-1.082-.779-.134-.031-.269-.047-.402-.047z" fill="#3762cc"/></g></g><g><g><path d="m174.925 185.88c0-.672.181-1.352.561-1.965 1.087-1.757 3.393-2.299 5.15-1.212l26.186 16.21c1.757 1.087 2.3 3.391 1.212 5.15-1.087 1.757-3.393 2.299-5.15 1.212l-26.186-16.21c-1.144-.708-1.773-1.932-1.773-3.185z" fill="#e0ebfc"/></g></g><g><path d="m204.842 207.837c-1.055 0-2.092-.292-3.012-.862l-26.186-16.21c-1.703-1.054-2.72-2.88-2.72-4.885 0-1.065.297-2.109.86-3.018.807-1.304 2.074-2.216 3.566-2.567 1.494-.35 3.032-.099 4.337.707l26.186 16.21c2.691 1.666 3.525 5.211 1.86 7.903-.807 1.305-2.074 2.216-3.567 2.567-.438.105-.883.155-1.324.155zm-26.173-23.695c-.134 0-.268.016-.402.047-.452.106-.836.383-1.081.778-.173.28-.261.587-.261.913 0 .609.308 1.164.825 1.483l26.187 16.21c.396.245.861.322 1.315.215.452-.106.836-.383 1.081-.778.505-.817.252-1.892-.564-2.397l-26.186-16.21c-.279-.172-.593-.261-.914-.261z" fill="#3762cc"/></g><g><path d="m150.256 236.502h83.024v12.757c0 2.066-1.675 3.741-3.741 3.741h-75.542c-2.066 0-3.741-1.675-3.741-3.741z" fill="#4671c6"/></g><g><path d="m229.539 255h-75.542c-3.166 0-5.741-2.575-5.741-5.741v-12.758c0-1.104.896-2 2-2h83.024c1.104 0 2 .896 2 2v12.758c0 3.166-2.575 5.741-5.741 5.741zm-77.283-16.499v10.758c0 .96.781 1.741 1.741 1.741h75.542c.96 0 1.741-.781 1.741-1.741v-10.758z" fill="#3762cc"/></g><g><path d="m150.256 235.604v-27.142h83.024v27.142c0 2.645-2.144 4.79-4.79 4.79h-73.444c-2.646 0-4.79-2.144-4.79-4.79z" fill="#f9a7a7"/></g><g><path d="m183.519 234.806v-20.756c0-3.086 2.502-5.588 5.588-5.588h44.173v27.142c0 2.645-2.144 4.79-4.79 4.79h-39.383c-3.086 0-5.588-2.502-5.588-5.588z" fill="#f9a7a7"/></g><g><path d="m228.49 242.394h-73.444c-3.744 0-6.79-3.046-6.79-6.79v-27.143c0-1.104.896-2 2-2h83.024c1.104 0 2 .896 2 2v27.143c0 3.744-3.046 6.79-6.79 6.79zm-76.234-31.932v25.143c0 1.538 1.251 2.79 2.79 2.79h73.444c1.538 0 2.79-1.251 2.79-2.79v-25.143z" fill="#3762cc"/></g><g><path d="m228.49 242.394h-39.383c-4.184 0-7.588-3.404-7.588-7.588v-20.756c0-4.184 3.404-7.588 7.588-7.588h44.173c1.104 0 2 .896 2 2v27.143c0 3.743-3.046 6.789-6.79 6.789zm-39.383-31.932c-1.979 0-3.588 1.61-3.588 3.588v20.756c0 1.979 1.61 3.588 3.588 3.588h39.383c1.538 0 2.79-1.251 2.79-2.79v-25.143h-42.173z" fill="#3762cc"/></g></g></g></svg>