<svg id="Layer_1" enable-background="new 0 0 256 256" height="512" viewBox="0 0 256 256" width="512" xmlns="http://www.w3.org/2000/svg"><g><g><path d="m171.498 253h-153.328c-5.014 0-9.079-4.065-9.079-9.079v-201.747c0-5.014 4.065-9.079 9.079-9.079h153.328c5.014 0 9.079 4.065 9.079 9.079v201.747c0 5.014-4.065 9.079-9.079 9.079z" fill="#4671c6"/></g><g><path d="m24.681 232.825v-185.103c0-2.786 2.258-5.044 5.044-5.044h130.219c2.786 0 5.044 2.258 5.044 5.044v185.103c0 2.786-2.258 5.044-5.044 5.044h-130.219c-2.786 0-5.044-2.258-5.044-5.044z" fill="#e0ebfc"/></g><g><g><path d="m149.293 87.652h-108.917c-1.455 0-2.635-1.18-2.635-2.635v-8.784c0-1.455 1.18-2.635 2.635-2.635h108.917c1.455 0 2.635 1.18 2.635 2.635v8.784c0 1.456-1.18 2.635-2.635 2.635z" fill="#a4c9ff"/></g><g><path d="m54.429 120.884h-14.932c-.97 0-1.757-.787-1.757-1.757v-14.932c0-.97.787-1.757 1.757-1.757h14.932c.97 0 1.757.787 1.757 1.757v14.932c0 .97-.786 1.757-1.757 1.757z" fill="#a4c9ff"/></g><g><g><path d="m148.415 115.175h-77.004c-1.94 0-3.513-1.573-3.513-3.513 0-1.94 1.573-3.513 3.513-3.513h77.003c1.94 0 3.513 1.573 3.513 3.513.001 1.94-1.572 3.513-3.512 3.513z" fill="#a4c9ff"/></g></g><g><path d="m54.429 156.019h-14.932c-.97 0-1.757-.787-1.757-1.757v-14.932c0-.97.787-1.757 1.757-1.757h14.932c.97 0 1.757.787 1.757 1.757v14.932c0 .97-.786 1.757-1.757 1.757z" fill="#a4c9ff"/></g><g><g><path d="m148.415 150.309h-77.004c-1.94 0-3.513-1.573-3.513-3.513 0-1.94 1.573-3.513 3.513-3.513h77.003c1.94 0 3.513 1.573 3.513 3.513.001 1.94-1.572 3.513-3.512 3.513z" fill="#a4c9ff"/></g></g><g><path d="m54.429 191.153h-14.932c-.97 0-1.757-.787-1.757-1.757v-14.932c0-.97.787-1.757 1.757-1.757h14.932c.97 0 1.757.787 1.757 1.757v14.932c0 .971-.786 1.757-1.757 1.757z" fill="#a4c9ff"/></g><g><g><path d="m148.415 185.444h-77.004c-1.94 0-3.513-1.573-3.513-3.513 0-1.94 1.573-3.513 3.513-3.513h77.003c1.94 0 3.513 1.573 3.513 3.513.001 1.94-1.572 3.513-3.512 3.513z" fill="#a4c9ff"/></g></g><g><path d="m54.429 226.288h-14.932c-.97 0-1.757-.787-1.757-1.757v-14.932c0-.97.787-1.757 1.757-1.757h14.932c.97 0 1.757.787 1.757 1.757v14.932c0 .97-.786 1.757-1.757 1.757z" fill="#a4c9ff"/></g><g><g><path d="m148.415 220.579h-77.004c-1.94 0-3.513-1.573-3.513-3.513 0-1.94 1.573-3.513 3.513-3.513h77.003c1.94 0 3.513 1.573 3.513 3.513.001 1.94-1.572 3.513-3.512 3.513z" fill="#a4c9ff"/></g></g></g><g><g><path d="m46.963 117.863c-.02 0-.039 0-.059 0-.815-.016-1.59-.363-2.144-.962l-5.417-5.855c-1.125-1.216-1.051-3.114.165-4.239s3.114-1.052 4.239.165l3.298 3.566 11.227-11.226c1.171-1.172 3.071-1.172 4.242 0 1.172 1.171 1.172 3.071 0 4.242l-13.432 13.432c-.561.562-1.324.877-2.119.877z" fill="#f9a7a7"/></g></g><g><g><path d="m46.963 152.998c-.02 0-.039 0-.059 0-.815-.016-1.59-.363-2.144-.962l-5.417-5.855c-1.125-1.216-1.051-3.114.165-4.239s3.114-1.052 4.239.165l3.298 3.566 11.227-11.226c1.171-1.172 3.071-1.172 4.242 0 1.172 1.171 1.172 3.071 0 4.242l-13.432 13.432c-.561.562-1.324.877-2.119.877z" fill="#f9a7a7"/></g></g><g><g><path d="m46.963 188.133c-.02 0-.039 0-.059 0-.815-.016-1.59-.363-2.144-.962l-5.417-5.855c-1.125-1.216-1.051-3.114.165-4.239s3.114-1.052 4.239.165l3.298 3.566 11.227-11.226c1.171-1.172 3.071-1.172 4.242 0 1.172 1.171 1.172 3.071 0 4.242l-13.432 13.432c-.561.561-1.324.877-2.119.877z" fill="#f9a7a7"/></g></g><g><g><path d="m46.963 223.268c-.02 0-.039 0-.059 0-.815-.016-1.59-.363-2.144-.962l-5.417-5.855c-1.125-1.216-1.051-3.114.165-4.239s3.114-1.052 4.239.165l3.298 3.566 11.227-11.226c1.171-1.172 3.071-1.172 4.242 0 1.172 1.171 1.172 3.071 0 4.242l-13.432 13.432c-.561.561-1.324.877-2.119.877z" fill="#f9a7a7"/></g></g><g><path d="m159.943 239.869h-130.218c-3.884 0-7.044-3.16-7.044-7.044v-185.103c0-3.884 3.16-7.044 7.044-7.044h130.218c3.884 0 7.044 3.16 7.044 7.044v185.103c0 3.884-3.159 7.044-7.044 7.044zm-130.218-195.191c-1.678 0-3.044 1.366-3.044 3.044v185.103c0 1.678 1.366 3.044 3.044 3.044h130.218c1.678 0 3.044-1.366 3.044-3.044v-185.103c0-1.678-1.366-3.044-3.044-3.044z" fill="#3762cc"/></g><g><path d="m171.498 255h-153.328c-6.109 0-11.079-4.97-11.079-11.079v-201.747c0-6.109 4.97-11.079 11.079-11.079h153.328c6.109 0 11.079 4.97 11.079 11.079v201.747c0 6.109-4.97 11.079-11.079 11.079zm-153.328-219.905c-3.903 0-7.079 3.176-7.079 7.079v201.747c0 3.903 3.175 7.079 7.079 7.079h153.328c3.903 0 7.079-3.175 7.079-7.079v-201.747c0-3.903-3.175-7.079-7.079-7.079z" fill="#3762cc"/></g><g><g><circle cx="196.908" cy="140.274" fill="#6bdddd" r="50"/></g><g><circle cx="196.908" cy="140.274" fill="#4671c6" r="38"/></g><g><path d="m196.908 192.274c-28.673 0-52-23.327-52-52s23.327-52 52-52 52 23.327 52 52-23.327 52-52 52zm0-100c-26.467 0-48 21.533-48 48s21.533 48 48 48 48-21.533 48-48-21.533-48-48-48z" fill="#3762cc"/></g></g><g><g><path d="m207.823 152.467h12.587c1.094 0 1.981.887 1.981 1.981v6.19c0 2.188-1.774 3.962-3.962 3.962h-13.495c-2.553 0-4.622-2.069-4.622-4.622 0-4.149 3.363-7.511 7.511-7.511z" fill="#f9cfcf"/></g><g><path d="m218.429 166.599h-13.495c-3.651 0-6.622-2.97-6.622-6.622 0-5.244 4.266-9.511 9.51-9.511h12.587c2.195 0 3.981 1.786 3.981 3.981v6.19c.001 3.288-2.674 5.962-5.961 5.962zm1.962-12.151-12.568.019c-3.039 0-5.51 2.472-5.51 5.511 0 1.445 1.176 2.622 2.622 2.622h13.495c1.082 0 1.962-.88 1.962-1.961v-6.191z" fill="#3762cc"/></g><g><path d="m173.524 121.957 3.658-4.682c1.001-1.281 2.536-2.03 4.162-2.03h31.127c1.626 0 3.161.749 4.162 2.03l3.658 4.682c1.36 1.74 2.098 3.885 2.098 6.094v26.644c0 1.459-1.182 2.641-2.641 2.641h-7.459c-1.459 0-2.641-1.182-2.641-2.641 0 1.459-1.182 2.641-2.641 2.641h-7.459c-1.459 0-2.641-1.182-2.641-2.641 0 1.459-1.182 2.641-2.641 2.641h-7.459c-1.459 0-2.641-1.182-2.641-2.641 0 1.459-1.182 2.641-2.641 2.641h-7.459c-1.459 0-2.641-1.182-2.641-2.641 0-30.501 0-9.73 0-26.644.001-2.208.74-4.353 2.099-6.094z" fill="#f9cfcf"/></g><g><path d="m224.391 154.695c0 2.559-2.082 4.641-4.641 4.641h-7.459c-.98 0-1.891-.306-2.641-.827-.75.521-1.661.827-2.641.827h-7.459c-.98 0-1.891-.306-2.641-.827-.75.521-1.661.827-2.641.827h-7.459c-.98 0-1.891-.306-2.641-.827-.75.521-1.661.827-2.641.827h-7.459c-2.559 0-4.641-2.082-4.641-4.641v-26.644c0-2.642.896-5.244 2.522-7.326l3.658-4.682c1.39-1.778 3.481-2.798 5.738-2.798h31.127c2.257 0 4.349 1.02 5.739 2.798l3.658 4.682c1.626 2.083 2.522 4.684 2.522 7.326zm-12.742 0c0 .354.288.641.641.641h7.459c.354 0 .641-.288.641-.641v-26.644c0-1.753-.595-3.48-1.675-4.863l-3.658-4.682c-.626-.802-1.569-1.261-2.586-1.261h-31.127c-1.018 0-1.96.459-2.586 1.261l-3.658 4.682c-1.08 1.382-1.674 3.109-1.674 4.863v26.644c0 .354.288.641.641.641h7.459c.354 0 .641-.288.641-.641 0-1.104.896-2 2-2s2 .896 2 2c0 .354.288.641.641.641h7.459c.354 0 .641-.288.641-.641 0-1.104.896-2 2-2s2 .896 2 2c0 .354.288.641.641.641h7.459c.354 0 .641-.288.641-.641 0-1.104.896-2 2-2s2 .896 2 2z" fill="#3762cc"/></g><g><path d="m209.649 156.695c-1.104 0-2-.896-2-2v-20.138c0-1.104.896-2 2-2s2 .896 2 2v20.138c0 1.105-.895 2-2 2z" fill="#3762cc"/></g><g><path d="m196.908 156.695c-1.104 0-2-.896-2-2v-20.138c0-1.104.896-2 2-2s2 .896 2 2v20.138c0 1.105-.895 2-2 2z" fill="#3762cc"/></g><g><path d="m184.167 156.695c-1.104 0-2-.896-2-2v-20.138c0-1.104.896-2 2-2s2 .896 2 2v20.138c0 1.105-.895 2-2 2z" fill="#3762cc"/></g></g><g><path d="m127.618 24.521h-15.804v-4.541c0-9.378-7.602-16.98-16.98-16.98s-16.98 7.602-16.98 16.98v4.541h-15.804c-2.786 0-5.044 2.258-5.044 5.044v26.227c0 2.786 2.258 5.044 5.044 5.044h65.568c2.786 0 5.044-2.258 5.044-5.044v-26.227c0-2.786-2.258-5.044-5.044-5.044z" fill="#f9a7a7"/></g><g><path d="m127.618 62.836h-65.568c-3.884 0-7.043-3.16-7.043-7.044v-26.227c0-3.884 3.16-7.043 7.043-7.043h13.804v-2.542c0-10.465 8.514-18.98 18.98-18.98s18.98 8.515 18.98 18.98v2.541h13.804c3.884 0 7.043 3.16 7.043 7.043v26.227c.001 3.885-3.159 7.045-7.043 7.045zm-65.568-36.315c-1.678 0-3.043 1.365-3.043 3.043v26.227c0 1.678 1.365 3.044 3.043 3.044h65.568c1.678 0 3.043-1.366 3.043-3.044v-26.226c0-1.678-1.365-3.043-3.043-3.043h-15.804c-1.104 0-2-.896-2-2v-4.542c0-8.26-6.72-14.98-14.98-14.98s-14.98 6.72-14.98 14.98v4.541c0 1.104-.896 2-2 2z" fill="#3762cc"/></g><g><circle cx="94.498" cy="18.467" fill="#a4c9ff" r="6.052"/></g><g><path d="m94.498 26.52c-4.44 0-8.053-3.612-8.053-8.052s3.612-8.052 8.053-8.052c4.44 0 8.052 3.612 8.052 8.052s-3.612 8.052-8.052 8.052zm0-12.105c-2.235 0-4.053 1.818-4.053 4.052s1.818 4.052 4.053 4.052c2.234 0 4.052-1.818 4.052-4.052s-1.818-4.052-4.052-4.052z" fill="#3762cc"/></g></g></svg>