<svg enable-background="new 0 0 45.884 45.884" height="45.884" viewBox="0 0 45.884 45.884" width="45.884" xmlns="http://www.w3.org/2000/svg"><path d="m4.652 12.861c2.738.115 5.506-.69 6.785-3.304 1.603-3.277-1.319-6.338-4.443-6.483-.015-.001-.033 0-.052.001-.029.003-.074.005-.103.005-.016 0-.033 0-.052 0-2.591.086-5.312.965-6.434 3.502-1.325 2.997 1.291 6.152 4.299 6.279zm-2.294-6.541c.389-1.009 1.165-1.856 2.331-2.24.525-.172.654.11.254.492-.682.652-1.386 1.326-2.112 2.022-.398.382-.671.241-.473-.274zm.463.364c.75-.719 1.49-1.428 2.216-2.123.399-.382 1.177-.678 1.705-.518 4.175 1.273 4.287 8.727-1.259 7.976-.09-.012-.175-.031-.258-.052-.141-.036-.066-.26.166-.496.232-.235.325-.496.208-.586-.07-.054-.14-.11-.203-.174-.046-.047-.087-.097-.126-.148-.066-.085-.377.095-.694.401s-.583.549-.596.544.236-.263.557-.573c.321-.311.303-.328-.024-.021-.327.308-.86.404-1.148.141s-.151-.836.245-1.221c.016-.016.033-.032.049-.048.396-.386.606-.995.535-1.377-.07-.381-.394-.382-.787.007-.12.119-.24.239-.36.358-.392.389-.874.282-.944-.266-.006-.044-.011-.089-.015-.134-.054-.549.334-1.308.733-1.69z"/><path d="m6.23 15.687c-.134 0-.269.01-.446.039-.238.039-.463.086-.679.141-.37.095-1.084.286-1.548.529-.28.148-.542.329-.78.538-3.27 2.574-2.128 8.217-2.128 12.52 0 5.033-1.778 13.907 5.896 13.242 6.856-.594 5.375-7.78 5.375-12.783-.001-5.439 2.034-14.226-5.69-14.226zm3.568 24.071c-.184 1.142-.677 1.806-1.324 2.117-.498.238-.813.187-.626.133.187-.055.355-.134.382-.162.027-.027-.284-.073-.677-.185-.393-.113-.811-.158-.963-.019-.151.14-.706.114-1.188-.155-.387-.216-.761-.48-1.103-.783-.414-.366-.429-.989-.101-1.321.327-.333.563-.726.541-.88-.022-.155-.35.014-.743.376-.393.363-.906.379-1.081 0-.175-.378.084-1.012.494-1.382.174-.157.347-.314.521-.471.41-.371.741-1.041.741-1.494 0-.454-.328-.518-.731-.142-.209.195-.418.39-.627.586-.404.377-.73.234-.73-.317 0-.915 0-1.831 0-2.746 0-.553.311-1.321.696-1.719.232-.238.464-.478.697-.717.385-.396.696-1.044.696-1.448 0-.403-.317-.414-.709-.024-.229.227-.456.454-.683.679-.392.391-.729.258-.766-.294-.008-.122-.017-.248-.025-.378-.038-.551.168-1.234.461-1.525.177-.176.353-.352.531-.526.117-.128.234-.257.351-.385.194-.213.03-.074-.368.31-.112.108-.223.215-.332.321-.397.383-.739.405-.761.05-.021-.357.282-.96.675-1.347.304-.301.608-.601.913-.899.393-.388.712-1.038.712-1.452s-.311-.429-.696-.032c-.333.345-.667.688-1 1.031-.384.397-.708.32-.711-.172s.318-1.212.703-1.608c.339-.349.675-.694 1.006-1.035.385-.396.697-1.039.697-1.436v-.72c0-.129.007-.256.02-.382.022-.21-.263-.063-.656.324-.296.289-.592.582-.888.874-.393.388-.66.257-.548-.284.293-1.423.816-2.597 1.7-3.227.45-.32 1.353-.412 1.898-.327 4.8.746 3.792 6.033 3.792 9.999 0 4.306.497 8.933-.19 13.194z"/><path d="m15.232 30.109c0 2.625-1.23 8.873.777 10.897 1.893 1.91 6.565 2.659 8.763.461 2.723-2.722 1.726-7.479 1.726-11.024 0-.88 0-1.761 0-2.642 0-2.439.78-7.582 6.248-4.206 2.257 1.393 1.678 5.813 1.678 8.121 0 4.144-1.283 10.088 4.16 10.967 2.997.483 5.902-.801 6.854-3.562.18-.522.236-.989.243-1.014.004-.018.012-.029.012-.042 0-6.557 1.353-14.666-3.126-20.036-3.427-4.109-10.832-3.868-15.303-.786-.455.313-.774.36-.852.076-.049-.183-.137-.336-.282-.437-.809-.559-1.349-.952-2.405-1.051-2.118-.199-4.127-.165-6.234.16-4.007.618-2.256 5.857-2.256 8.87-.003 1.75-.003 3.499-.003 5.248zm4.633-13.643c1.31 0 3.095-.101 4.139.906.398.383.473 1.176.492 1.727.021.514.066 1.053.115 1.083.419.264 1.618-.083 1.863-.499.492-.839 1.059-1.527 1.676-2.083.41-.37.701-.538.599-.437s-.184.196-.179.212c.005.017.14-.101.306-.264.166-.164.318-.307.339-.318.021-.012-.112.125-.299.305-.186.181-.332.398-.331.485s.324-.151.723-.532c.397-.381 1.128-.882 1.656-1.04.176-.052.353-.098.53-.137.54-.119.9-.064.79.042-.109.105-.019.1.206-.001.226-.101.425-.183.439-.196.014-.012.475-.041 1.024.006 3.34.285 6.679 2.413 8.377 5.185 1.254 2.048 1.428 4.71 1.428 7.04v9.604c0 .553-.062 1.448-.25 1.967-.269.748-.673 1.304-1.154 1.686-.434.343-1.188.414-1.552.262-.365-.152-.769-.198-.939-.025-.171.174-.607.243-.95.089-.343-.153-.384-.544-.123-.81.262-.265.34-.646.203-.874-.138-.226-.482-.16-.807.164s-.843.327-1.088-.047-.069-1.031.318-1.424c.108-.109.216-.22.324-.328.388-.394.703-.906.703-1.146 0-.238-.317-.115-.708.274-.182.181-.363.362-.544.543-.391.39-.742.59-.779.445-.021-.086-.042-.175-.057-.266-.012-.075-.02-.151-.025-.229-.009-.127.3-.547.69-.938.243-.244.481-.483.718-.72.39-.392.705-.883.705-1.099 0-.217-.317-.075-.708.314-.245.245-.491.489-.736.733-.391.39-.701.332-.682-.128.019-.459.346-1.149.736-1.54.228-.229.456-.458.685-.688.39-.391.707-.969.707-1.292s-.322-.272-.718.112c-.241.233-.454.438-.642.62-.396.384-.405.376-.012-.011.19-.188.409-.399.654-.64.396-.385.393-.387-.005-.004-.21.202-.422.406-.638.613-.396.383-.712.246-.7-.308.01-.488.02-.979.025-1.472.007-.552.322-1.318.711-1.71.207-.209.414-.418.619-.625.389-.393.704-.833.704-.983v-.271c0-.048-.003-.093-.006-.138-.006-.076-.321.184-.707.58-.208.213-.416.426-.624.639-.385.396-.704.268-.731-.284-.022-.474-.058-.946-.109-1.415-.062-.549.178-1.311.562-1.706.106-.107.211-.216.317-.325.386-.395.607-.936.471-1.196-.083-.159-.174-.312-.271-.457-.029-.042-.063-.079-.099-.114-.058-.059-.406.199-.784.578-.376.38-.754.439-.88.149s-.032-.74.251-1.026c.283-.287.402-.595.26-.683-.144-.087-.454.056-.682.299s-.634.151-.982-.122c-.351-.274-.629-.479-.563-.549.066-.071.053-.134-.029-.143-.047-.006-.095-.011-.146-.011-.106 0-.21.004-.312.011-.171.011-.742-.095-1.294-.121-3.326-.158-7.52 2.802-7.52 6.25v9.071c0 2.225-.333 4.834-3.446 4.834-.046 0-.087-.004-.128-.009-.071-.01-.016-.131.123-.275.14-.145-.066-.418-.403-.69-.337-.271-.79-.313-1.078-.024-.288.29-.93.317-1.312-.082-.124-.129-.237-.27-.341-.418-.315-.454-.157-1.21.22-1.614.113-.121.225-.241.338-.361.377-.402.686-1.178.689-1.729.001-.198.002-.396.003-.591.003-.552-.065-.928-.152-.84-.052.053-.105.105-.158.158-.384.389-.772.774-1.162 1.16-.392.39-.751.257-.764-.295-.02-.795.011-1.602.051-2.368.029-.551.372-1.313.762-1.706.245-.244.489-.489.736-.736.39-.392.707-.906.707-1.15 0-.245-.33-.141-.738.231-.211.191-.418.382-.623.568-.408.372-.735.581-.732.464.002-.071.004-.143.004-.21.001-.604.001-1.209.001-1.812 0-.553.325-1.308.726-1.688.213-.2.425-.401.636-.602.401-.38.727-.727.727-.774s-.32.228-.715.612c-.22.216-.44.431-.66.646-.394.386-.715.252-.714-.301 0-.545 0-1.09 0-1.635 0-.553.327-1.304.732-1.679.208-.193.415-.385.622-.578.405-.375.734-1.074.734-1.56 0-.485-.328-.575-.732-.199-.208.193-.416.386-.624.58-.404.376-.732.573-.732.441 0-.08 0-.159 0-.239 0-.216-.009-.441-.024-.672-.023-.371.276-.979.679-1.356.233-.217.465-.434.696-.651.403-.377.729-.86.727-1.076s-.326-.078-.719.31c-.231.227-.487.48-.775.764-.393.389-.754.257-.763-.295-.023-1.707.398-3.172 2.882-3.172z"/><path d="m18.924 40.141c-.355.361-.347.369.009.009.357-.359.346-.371-.009-.009z"/></svg>