<svg xmlns="http://www.w3.org/2000/svg" width="512" height="461.01" viewBox="0 0 512 461.01">
  <g id="Group_224" data-name="Group 224" transform="translate(0 -50.99)">
    <g id="Group_146" data-name="Group 146">
      <path id="Path_244" data-name="Path 244" d="M21.5,153.291A254.005,254.005,0,0,0,4.461,208.549C4.131,217.864,4,226.723,4,234a241.161,241.161,0,0,0,9.7,67.638C60.33,304,134.133,304,134.133,304l40.533-62L148,241.333C98.017,241.333,63.857,171.386,21.5,153.291Z" fill="#7e7e92"/>
    </g>
    <g id="Group_147" data-name="Group 147">
      <path id="Path_245" data-name="Path 245" d="M439.467,205.333C412,205.333,400.667,241.6,364,241.6L376,326s94,7.88,102,9.94c4.53,1.167,14.826-2.174,22.911-5.292A255.928,255.928,0,0,0,512,256c0-1.826-.1-3.626-.138-5.443C510.377,249.372,455.12,205.333,439.467,205.333Z" fill="#7e7e92"/>
    </g>
    <g id="Group_148" data-name="Group 148">
      <path id="Path_246" data-name="Path 246" d="M338.667,460l136.077-70.951A254.386,254.386,0,0,0,507.441,304h0S453.5,305.5,432,296c-26.436-11.681-86.354-94.344-123.83-143.968-6.968-8.764-13.73-16.9-20.17-24.032-11.113-12.306-43.567-16-48-16-3.841,0-34.938,36.584-57.636,64C148.147,217.787,107.86,268.14,88,288L54.725,356Z" fill="#6e6e84"/>
    </g>
    <g id="Group_149" data-name="Group 149">
      <path id="Path_247" data-name="Path 247" d="M480.667,319.321c-39.333,0-78.38,5.879-124.667-33.321-18-15.244-35.8-29.9-51-11.5C295.5,286,277.9,324,256,308s-31.127-65.45-52-66c-17-.448-31,24.342-43.522,10.667-8.244-9-83.978,43.833-83.978,43.833S154,365.312,165,364.656s75.9,9.256,75.9,9.256,23.023,27.117,34.847,22.755,40.716,4.735,57.279-2.606S428.589,354,430.294,350,480.667,319.321,480.667,319.321Z" fill="#5f5f74"/>
    </g>
    <g id="Group_150" data-name="Group 150">
      <path id="Path_248" data-name="Path 248" d="M175.75,304c-12.7-5.8-9.941-20.9-24-25.5C138,274,136.25,270.75,128.5,264s-18.28,2.316-25.25-11.5C99.214,244.5,82,241,74.75,234S54.558,229.316,49,227c-12-5-7.25-12.25-21.5-10.75-9.968,1.049-15.265-6.946-22.721-9.482A256.158,256.158,0,0,0,.437,241.462L63,275.5s61,19.75,65.5,21.5,73.284,31.466,71.252,28.74C196.125,320.875,185.875,308.625,175.75,304Z" fill="#36b294"/>
    </g>
    <g id="Group_151" data-name="Group 151">
      <path id="Path_249" data-name="Path 249" d="M230.691,359.286a56.245,56.245,0,0,1-20.024-16.619C203.065,332.6,203,326,194,321.5c-10.119-5.06-10-5.5-22-11.5s-12-10-19.25-18.5c-7.954-9.325-20.3-8.813-32.3-14.146S103.372,262.543,96,259s-12,.333-18.667-3.066c-9.035-4.607-9.564-17.685-20.839-16.352S42.412,244.9,34.666,238c-12.917-11.5-18.917-4.25-33.282-8.67A259.073,259.073,0,0,0,0,256a256.447,256.447,0,0,0,7.748,62.626c11.393,2.223,23.875,4.591,36.309,7.374,38.723,8.667,140.61,40.667,176.61,46.667S234.424,361.147,230.691,359.286Z" fill="#00a07d"/>
    </g>
    <g id="Group_152" data-name="Group 152">
      <path id="Path_250" data-name="Path 250" d="M.955,277.354A255.605,255.605,0,0,0,101.378,460h92.409L320,384C215.033,384,156.522,277.8.955,277.354Z" fill="#52c883"/>
    </g>
    <g id="Group_153" data-name="Group 153">
      <path id="Path_251" data-name="Path 251" d="M256,512c124.97,0,228.963-89.569,251.44-208-94.659.028-210.448,118.481-315.44,104-58-8-73-24.033-147.943-8.4A255.724,255.724,0,0,0,256,512Z" fill="#34be71"/>
    </g>
    <g id="Group_159" data-name="Group 159">
      <g id="Group_155" data-name="Group 155">
        <g id="Group_154" data-name="Group 154">
          <path id="Path_252" data-name="Path 252" d="M221.022,445.779a2.417,2.417,0,0,1-2.419-2.417V417.327a2.419,2.419,0,0,1,4.838,0v26.035A2.417,2.417,0,0,1,221.022,445.779Z" fill="#674447"/>
        </g>
      </g>
      <g id="Group_157" data-name="Group 157">
        <g id="Group_156" data-name="Group 156">
          <path id="Path_253" data-name="Path 253" d="M236.257,415.109a15.235,15.235,0,0,1-30.47,0c0-8.414,6.821-34.279,15.235-34.279S236.257,406.7,236.257,415.109Z" fill="#00a07d"/>
        </g>
      </g>
      <g id="Group_158" data-name="Group 158">
        <path id="Path_254" data-name="Path 254" d="M221.021,380.83c-2.112,0-4.123,1.633-5.952,4.207h0c7.7,0,13.944,23.673,13.944,31.374a13.941,13.941,0,0,1-11.026,13.627,15.23,15.23,0,0,0,18.268-14.929C236.257,406.7,229.436,380.83,221.021,380.83Z" fill="#36b294"/>
      </g>
    </g>
    <g id="Group_165" data-name="Group 165">
      <g id="Group_161" data-name="Group 161">
        <g id="Group_160" data-name="Group 160">
          <path id="Path_255" data-name="Path 255" d="M417.67,373.912a3.338,3.338,0,0,1-3.34-3.337V334.63a3.34,3.34,0,0,1,6.68,0v35.945A3.338,3.338,0,0,1,417.67,373.912Z" fill="#674447"/>
        </g>
      </g>
      <g id="Group_163" data-name="Group 163">
        <g id="Group_162" data-name="Group 162">
          <path id="Path_256" data-name="Path 256" d="M438.7,331.568a21.035,21.035,0,0,1-42.069,0c0-11.617,9.417-47.328,21.034-47.328S438.7,319.951,438.7,331.568Z" fill="#00a07d"/>
        </g>
      </g>
      <g id="Group_164" data-name="Group 164">
        <path id="Path_257" data-name="Path 257" d="M417.669,284.24c-2.916,0-5.693,2.254-8.218,5.809h0c10.633,0,19.252,32.684,19.252,43.317a19.247,19.247,0,0,1-15.223,18.814A21.031,21.031,0,0,0,438.7,331.568C438.7,319.951,429.286,284.24,417.669,284.24Z" fill="#36b294"/>
      </g>
    </g>
    <g id="Group_171" data-name="Group 171">
      <g id="Group_167" data-name="Group 167">
        <g id="Group_166" data-name="Group 166">
          <path id="Path_258" data-name="Path 258" d="M471.837,378.6a3.338,3.338,0,0,1-3.34-3.337V339.314a3.34,3.34,0,0,1,6.68,0v35.945A3.339,3.339,0,0,1,471.837,378.6Z" fill="#674447"/>
        </g>
      </g>
      <g id="Group_169" data-name="Group 169">
        <g id="Group_168" data-name="Group 168">
          <path id="Path_259" data-name="Path 259" d="M492.87,336.251a21.035,21.035,0,0,1-42.069,0c0-11.617,9.417-47.328,21.034-47.328S492.87,324.634,492.87,336.251Z" fill="#00a07d"/>
        </g>
      </g>
      <g id="Group_170" data-name="Group 170">
        <path id="Path_260" data-name="Path 260" d="M471.836,288.924c-2.916,0-5.693,2.254-8.218,5.809h0c10.633,0,19.252,32.684,19.252,43.317a19.247,19.247,0,0,1-15.223,18.814,21.031,21.031,0,0,0,25.223-20.612C492.871,324.634,483.453,288.924,471.836,288.924Z" fill="#36b294"/>
      </g>
    </g>
    <g id="Group_177" data-name="Group 177">
      <g id="Group_173" data-name="Group 173">
        <g id="Group_172" data-name="Group 172">
          <path id="Path_261" data-name="Path 261" d="M292.213,424.264a3.338,3.338,0,0,1-3.34-3.337V384.982a3.34,3.34,0,0,1,6.68,0v35.945A3.338,3.338,0,0,1,292.213,424.264Z" fill="#674447"/>
        </g>
      </g>
      <g id="Group_175" data-name="Group 175">
        <g id="Group_174" data-name="Group 174">
          <path id="Path_262" data-name="Path 262" d="M313.247,381.92a21.035,21.035,0,1,1-42.069,0c0-11.618,9.417-47.328,21.035-47.328S313.247,370.3,313.247,381.92Z" fill="#00a07d"/>
        </g>
      </g>
      <g id="Group_176" data-name="Group 176">
        <path id="Path_263" data-name="Path 263" d="M292.212,334.592c-2.916,0-5.693,2.254-8.218,5.809h0c10.633,0,19.252,32.684,19.252,43.317a19.247,19.247,0,0,1-15.223,18.814,21.031,21.031,0,0,0,25.223-20.612C313.247,370.3,303.829,334.592,292.212,334.592Z" fill="#36b294"/>
      </g>
    </g>
    <g id="Group_183" data-name="Group 183">
      <g id="Group_179" data-name="Group 179">
        <g id="Group_178" data-name="Group 178">
          <path id="Path_264" data-name="Path 264" d="M248.215,440.113a3.108,3.108,0,0,1-3.11-3.107V403.537a3.11,3.11,0,0,1,6.22,0v33.469A3.108,3.108,0,0,1,248.215,440.113Z" fill="#674447"/>
        </g>
      </g>
      <g id="Group_181" data-name="Group 181">
        <g id="Group_180" data-name="Group 180">
          <path id="Path_265" data-name="Path 265" d="M267.8,400.685a19.586,19.586,0,0,1-39.172,0c0-10.817,8.769-44.068,19.586-44.068S267.8,389.868,267.8,400.685Z" fill="#00a07d"/>
        </g>
      </g>
      <g id="Group_182" data-name="Group 182">
        <path id="Path_266" data-name="Path 266" d="M248.214,356.617c-2.715,0-5.3,2.1-7.652,5.409h0c9.9,0,17.926,30.433,17.926,40.333a17.921,17.921,0,0,1-14.174,17.518A19.582,19.582,0,0,0,267.8,400.684C267.8,389.868,259.031,356.617,248.214,356.617Z" fill="#36b294"/>
      </g>
    </g>
    <g id="Group_184" data-name="Group 184">
      <path id="Path_267" data-name="Path 267" d="M485.73,368.878C344,342,313.99,452.245,91.811,452.272A254.816,254.816,0,0,0,256,512C356.857,512,444.021,453.644,485.73,368.878Z" fill="#44a67d"/>
    </g>
    <g id="Group_185" data-name="Group 185">
      <path id="Path_268" data-name="Path 268" d="M355.042,164.924A22.408,22.408,0,0,1,383.142,143a32.271,32.271,0,0,1,56.039,21.919H355.042Z" fill="#fff"/>
    </g>
    <g id="Group_186" data-name="Group 186">
      <path id="Path_269" data-name="Path 269" d="M308.17,152.032C301.2,143.268,294.44,135.131,288,128c-11.113-12.306-43.567-16-48-16-3.841,0-34.938,36.584-57.636,64-8.7,10.625-17.794,21.8-26.844,32.9,3.913,5.46,11.484,13.15,22.694,12.057,22.061-2.152,26.365-27.979,43.045-25.828C243.981,198.059,240.532,264,264.3,264c23.137,0,7.092-50.01,34.436-60.264,20.142-7.553,27.568,14.1,61.51,16.915C341.686,196.917,323.138,171.852,308.17,152.032Z" fill="#c3e1f5"/>
    </g>
    <g id="Group_187" data-name="Group 187">
      <path id="Path_270" data-name="Path 270" d="M317.75,164.765c-3.311-4.41-6.535-8.7-9.579-12.733-6.968-8.764-13.73-16.9-20.17-24.032-11.113-12.306-43.567-16-48-16-2.677,0-18.6,17.775-35.68,37.827C223,135,233.193,141.1,236.667,158.445c8.023,40.055,16.667,72.221,26.667,46.888s5.605-39.841,34.938-36.833C309.85,169.687,312.235,166.3,317.75,164.765Z" fill="#edf5fb"/>
    </g>
    <g id="Group_188" data-name="Group 188">
      <path id="Path_271" data-name="Path 271" d="M120.451,176a24.313,24.313,0,0,1,30.487-23.781A35.012,35.012,0,0,1,211.737,176H120.451Z" fill="#fff"/>
    </g>
    <g id="Group_189" data-name="Group 189">
      <path id="Path_272" data-name="Path 272" d="M367.479,159.646a16.178,16.178,0,0,0-4.892.828,27.185,27.185,0,0,0-44.73,0,16.178,16.178,0,0,0-4.892-.828A16.354,16.354,0,0,0,296.611,176h87.223A16.356,16.356,0,0,0,367.479,159.646Z" fill="#fff"/>
    </g>
    <g id="Group_190" data-name="Group 190">
      <path id="Path_273" data-name="Path 273" d="M126.467,146.035a12.269,12.269,0,0,0-3.712.628,20.629,20.629,0,0,0-33.942,0,12.269,12.269,0,0,0-3.712-.628,12.41,12.41,0,0,0-12.41,12.41h66.184A12.408,12.408,0,0,0,126.467,146.035Z" fill="#fff"/>
    </g>
    <g id="Group_191" data-name="Group 191" opacity="0.6">
      <path id="Path_274" data-name="Path 274" d="M310.94,63a11.446,11.446,0,0,0-3.463.586,19.247,19.247,0,0,0-31.668,0,11.041,11.041,0,0,0-9.5,1.154,23.447,23.447,0,0,0-38.64-6.139A16.335,16.335,0,0,0,207.185,74.58H322.518A11.577,11.577,0,0,0,310.94,63Z" fill="#fff"/>
    </g>
    <g id="Group_192" data-name="Group 192" opacity="0.6">
      <path id="Path_275" data-name="Path 275" d="M313.888,63a11.446,11.446,0,0,0-3.463.586,19.247,19.247,0,0,0-31.668,0,11.041,11.041,0,0,0-9.5,1.154,23.447,23.447,0,0,0-38.64-6.139A16.335,16.335,0,0,0,210.133,74.58H325.466A11.577,11.577,0,0,0,313.888,63Z" fill="#fff"/>
    </g>
    <g id="Group_193" data-name="Group 193" opacity="0.6">
      <path id="Path_276" data-name="Path 276" d="M182.3,95.136a9.331,9.331,0,0,0-2.823.478,15.644,15.644,0,0,0-23.2-2.89A20.74,20.74,0,0,0,123.89,90.45a14.439,14.439,0,0,0-18.107,14.124h85.955A9.438,9.438,0,0,0,182.3,95.136Z" fill="#fff"/>
    </g>
    <g id="Group_195" data-name="Group 195">
      <path id="Path_278" data-name="Path 278" d="M480.665,227.286c-15.876-11.083-33.422-21.953-41.2-21.953-17.39,0-28.327,14.523-43.307,25.19l.011.007c24.829-4.2,26.642,27.8,38.142,27.8,13.457,0,13.824-17.163,27.02-11.335C487,258.335,467.667,231.834,480.665,227.286Z" fill="#c3e1f5"/>
    </g>
    <g id="Group_196" data-name="Group 196">
      <path id="Path_279" data-name="Path 279" d="M465.063,216.949c-10.631-6.625-20.349-11.616-25.6-11.616-11.887,0-20.767,6.808-29.976,14.509,13.1,5.712,23.494,22.357,39.582,11.657C459.734,224.408,461.669,220.085,465.063,216.949Z" fill="#edf5fb"/>
    </g>
    <g id="Group_202" data-name="Group 202">
      <g id="Group_198" data-name="Group 198">
        <g id="Group_197" data-name="Group 197">
          <path id="Path_280" data-name="Path 280" d="M389.139,388.929a4.154,4.154,0,0,1-4.156-4.152V340.052a4.156,4.156,0,0,1,8.312,0v44.725A4.154,4.154,0,0,1,389.139,388.929Z" fill="#674447"/>
        </g>
      </g>
      <g id="Group_200" data-name="Group 200">
        <g id="Group_199" data-name="Group 199">
          <path id="Path_281" data-name="Path 281" d="M415.31,336.242a26.172,26.172,0,0,1-52.344,0c0-14.454,11.718-58.888,26.172-58.888S415.31,321.787,415.31,336.242Z" fill="#00a07d"/>
        </g>
      </g>
      <g id="Group_201" data-name="Group 201">
        <path id="Path_282" data-name="Path 282" d="M389.138,277.354c-3.629,0-7.084,2.8-10.225,7.228h0c13.23,0,23.954,40.668,23.954,53.9a23.95,23.95,0,0,1-18.941,23.41,26.169,26.169,0,0,0,31.384-25.647C415.31,321.787,403.592,277.354,389.138,277.354Z" fill="#36b294"/>
      </g>
    </g>
    <g id="Group_208" data-name="Group 208">
      <g id="Group_204" data-name="Group 204">
        <g id="Group_203" data-name="Group 203">
          <path id="Path_283" data-name="Path 283" d="M446.273,382.474a3.924,3.924,0,0,1-3.926-3.923V336.294a3.926,3.926,0,0,1,7.852,0v42.257A3.923,3.923,0,0,1,446.273,382.474Z" fill="#674447"/>
        </g>
      </g>
      <g id="Group_206" data-name="Group 206">
        <g id="Group_205" data-name="Group 205">
          <path id="Path_284" data-name="Path 284" d="M471,332.693a24.728,24.728,0,0,1-49.456,0c0-13.657,11.071-55.639,24.728-55.639S471,319.036,471,332.693Z" fill="#00a07d"/>
        </g>
      </g>
      <g id="Group_207" data-name="Group 207">
        <path id="Path_285" data-name="Path 285" d="M446.272,277.054c-3.428,0-6.693,2.65-9.661,6.829h0c12.5,0,22.633,38.424,22.633,50.924a22.627,22.627,0,0,1-17.9,22.118A24.725,24.725,0,0,0,471,332.693C471,319.036,459.929,277.054,446.272,277.054Z" fill="#36b294"/>
      </g>
    </g>
    <g id="Group_214" data-name="Group 214">
      <g id="Group_210" data-name="Group 210">
        <g id="Group_209" data-name="Group 209">
          <path id="Path_286" data-name="Path 286" d="M357.062,393.673a3.427,3.427,0,0,1-3.428-3.426v-36.9a3.428,3.428,0,0,1,6.856,0v36.9A3.427,3.427,0,0,1,357.062,393.673Z" fill="#674447"/>
        </g>
      </g>
      <g id="Group_212" data-name="Group 212">
        <g id="Group_211" data-name="Group 211">
          <path id="Path_287" data-name="Path 287" d="M378.654,350.2a21.593,21.593,0,0,1-43.186,0c0-11.926,9.667-48.584,21.593-48.584S378.654,338.28,378.654,350.2Z" fill="#00a07d"/>
        </g>
      </g>
      <g id="Group_213" data-name="Group 213">
        <path id="Path_288" data-name="Path 288" d="M357.061,301.621c-2.994,0-5.844,2.314-8.436,5.963h0c10.915,0,19.763,33.552,19.763,44.467a19.76,19.76,0,0,1-15.627,19.314,21.59,21.59,0,0,0,25.892-21.16C378.654,338.28,368.986,301.621,357.061,301.621Z" fill="#36b294"/>
      </g>
    </g>
    <g id="Group_220" data-name="Group 220">
      <g id="Group_216" data-name="Group 216">
        <g id="Group_215" data-name="Group 215">
          <path id="Path_289" data-name="Path 289" d="M327.975,432.458a4.87,4.87,0,0,1-4.873-4.869V375.143a4.873,4.873,0,0,1,9.746,0v52.446A4.871,4.871,0,0,1,327.975,432.458Z" fill="#674447"/>
        </g>
      </g>
      <g id="Group_218" data-name="Group 218">
        <g id="Group_217" data-name="Group 217">
          <path id="Path_290" data-name="Path 290" d="M358.664,370.675a30.691,30.691,0,1,1-61.382,0c0-16.95,13.741-69.054,30.691-69.054S358.664,353.725,358.664,370.675Z" fill="#00a07d"/>
        </g>
      </g>
      <g id="Group_219" data-name="Group 219">
        <path id="Path_291" data-name="Path 291" d="M327.974,301.621c-4.255,0-8.306,3.289-11.99,8.475h0c15.514,0,28.09,47.688,28.09,63.2a28.083,28.083,0,0,1-22.211,27.451,30.685,30.685,0,0,0,36.8-30.074C358.664,353.725,344.923,301.621,327.974,301.621Z" fill="#36b294"/>
      </g>
    </g>
    <g id="Group_221" data-name="Group 221">
      <path id="Path_292" data-name="Path 292" d="M256,512a254.911,254.911,0,0,0,174.294-68.6c-27.794,4.6-70.043-42.4-114-25.255-19.586,7.64-81.895,60.5-136.192,82.33A255.673,255.673,0,0,0,256,512Z" fill="#5f5f74"/>
    </g>
    <g id="Group_222" data-name="Group 222">
      <path id="Path_293" data-name="Path 293" d="M316.293,418.146c-19.586,7.64-81.895,60.5-136.192,82.33,1.829.567,3.722.979,5.568,1.506C240.563,489,305.2,431,326.667,430.344c6.128-.187,45.667,29.655,67.928,40.827A257.247,257.247,0,0,0,430.3,443.4C402.5,448,360.251,401,316.293,418.146Z" fill="#6e6e84"/>
    </g>
    <g id="Group_223" data-name="Group 223" transform="translate(261 -22)" opacity="0.6">
      <path id="Path_276-2" data-name="Path 276" d="M182.3,95.136a9.331,9.331,0,0,0-2.823.478,15.644,15.644,0,0,0-23.2-2.89A20.74,20.74,0,0,0,123.89,90.45a14.439,14.439,0,0,0-18.107,14.124h85.955A9.438,9.438,0,0,0,182.3,95.136Z" fill="#fff"/>
    </g>
  </g>
</svg>
