<svg xmlns="http://www.w3.org/2000/svg" width="507.29" height="463.959" viewBox="0 0 507.29 463.959">
  <g id="Group_270" data-name="Group 270" transform="translate(-3.52 -48.041)">
    <g id="Group_226" data-name="Group 226">
      <path id="Path_294" data-name="Path 294" d="M275,330.012C257,330.012,165,256,128,256S12,308.219,12,308.219L177.555,385.09l103.779-12.118Z" fill="#ffea96"/>
    </g>
    <g id="Group_229" data-name="Group 229">
      <g id="Group_227" data-name="Group 227">
        <path id="Path_295" data-name="Path 295" d="M288,224H192v16h8v64a8,8,0,0,0,16,0V240h16v64a8,8,0,0,0,16,0V240h16v64a8,8,0,0,0,16,0V240h8Z" fill="#b8ab90"/>
      </g>
      <g id="Group_228" data-name="Group 228">
        <path id="Path_296" data-name="Path 296" d="M96.664,224v16H104v64a8,8,0,0,0,16,0V240h16v64a8,8,0,0,0,16,0V240h7.336V224Z" fill="#b8ab90"/>
      </g>
    </g>
    <g id="Group_230" data-name="Group 230">
      <path id="Path_297" data-name="Path 297" d="M97.07,337.573h185.6V306.245a1,1,0,0,0-1-1H98.07a1,1,0,0,0-1,1Z" fill="#b09b81"/>
    </g>
    <g id="Group_231" data-name="Group 231">
      <path id="Path_298" data-name="Path 298" d="M499.18,336a254.632,254.632,0,0,0,11.63-55.562c-18.8,3.4-27.515,26.7-47.727,15.562-12.523-6.9-53.339,40-87.083,40Z" fill="#ffea96"/>
    </g>
    <g id="Group_232" data-name="Group 232">
      <path id="Path_299" data-name="Path 299" d="M402.348,337.988c-31.656,3.329-61.806-.265-93.348,1.262-8.7.421-15.895-1.549-21.646-5.063H87V371H484.7a255.348,255.348,0,0,0,12.869-30.719C465.35,338.311,434.662,334.589,402.348,337.988Z" fill="#d0d75b"/>
    </g>
    <g id="Group_233" data-name="Group 233">
      <path id="Path_300" data-name="Path 300" d="M499.723,334.381H275v9.783H496.151C497.35,340.907,498.655,337.7,499.723,334.381Z" fill="#d6eb76"/>
    </g>
    <g id="Group_234" data-name="Group 234">
      <path id="Path_301" data-name="Path 301" d="M408.769,334.973c0-4.28-3.416-20.973-5.577-20.973-.194,0-.4.175-.611.423-.041.049-.082.093-.123.15a6.542,6.542,0,0,0-.644,1.142c-.006.013-.011.018-.017.03s0,0,0,0c-1.985,4.384-4.183,15.79-4.183,19.224,0,3.841,2.047,5.868,4.686,6.264-.059.015-.106.058-.166.071.088.015.182.013.271.024v4.693h1.574v-4.768C406.669,340.9,408.769,338.866,408.769,334.973Z" fill="#d0d75b"/>
    </g>
    <g id="Group_235" data-name="Group 235">
      <path id="Path_302" data-name="Path 302" d="M83.737,360.328H296V329a1,1,0,0,0-1-1H84.737a1,1,0,0,0-1,1Z" fill="#938c82"/>
    </g>
    <g id="Group_239" data-name="Group 239">
      <g id="Group_236" data-name="Group 236">
        <path id="Path_303" data-name="Path 303" d="M384.4,368.5V339.391a2.707,2.707,0,0,0-5.414,0V368.5Z" fill="#828240"/>
      </g>
      <g id="Group_237" data-name="Group 237">
        <path id="Path_304" data-name="Path 304" d="M400.886,330.47c0,14.728-8.592,22.121-19.192,22.121S362.5,345.2,362.5,330.47,374.258,258.3,381.694,258.3,400.886,315.742,400.886,330.47Z" fill="#69be5d"/>
      </g>
      <g id="Group_238" data-name="Group 238">
        <path id="Path_305" data-name="Path 305" d="M381.7,258.3c-1.473,0-3.116,2.277-4.8,6.005,6.066,9.186,13.913,54.574,13.913,67.181,0,12.317-5.477,19.251-12.749,20.774a21.306,21.306,0,0,0,3.638.326c10.6,0,19.192-7.393,19.192-22.121S389.13,258.3,381.7,258.3Z" fill="#9dc85c"/>
      </g>
    </g>
    <g id="Group_240" data-name="Group 240">
      <path id="Path_306" data-name="Path 306" d="M440.352,331.952c0-5.451-4.35-26.707-7.1-26.707-.247,0-.51.222-.778.538-.052.062-.1.118-.157.191a8.326,8.326,0,0,0-.82,1.454c-.007.016-.014.022-.022.039a.017.017,0,0,1,0,.005c-2.527,5.583-5.327,20.107-5.327,24.48,0,4.891,2.607,7.472,5.967,7.976-.075.019-.135.074-.211.09.112.019.231.016.345.031v5.976h2v-6.072C437.678,339.5,440.352,336.908,440.352,331.952Z" fill="#d0d75b"/>
    </g>
    <g id="Group_241" data-name="Group 241">
      <path id="Path_307" data-name="Path 307" d="M478.852,331.952c0-5.451-4.35-26.707-7.1-26.707-.247,0-.51.222-.778.538-.052.062-.1.118-.157.191a8.326,8.326,0,0,0-.82,1.454c-.007.016-.014.022-.022.039a.017.017,0,0,1,0,.005c-2.527,5.583-5.327,20.107-5.327,24.48,0,4.891,2.607,7.472,5.967,7.976-.075.019-.135.074-.211.09.112.019.231.016.345.031v5.976h2v-6.072C476.178,339.5,478.852,336.908,478.852,331.952Z" fill="#d0d75b"/>
    </g>
    <g id="Group_242" data-name="Group 242">
      <path id="Path_308" data-name="Path 308" d="M455.077,334.973c0-4.28-3.416-20.973-5.578-20.973-.194,0-.4.175-.611.423-.041.049-.081.093-.123.15a6.542,6.542,0,0,0-.644,1.142c-.006.013-.011.018-.017.03l0,.005c-1.986,4.383-4.184,15.789-4.184,19.223,0,3.841,2.047,5.868,4.686,6.264-.059.015-.106.058-.166.071.088.015.182.013.271.024v4.693h1.574v-4.768C452.978,340.9,455.077,338.866,455.077,334.973Z" fill="#d0d75b"/>
    </g>
    <g id="Group_243" data-name="Group 243">
      <path id="Path_309" data-name="Path 309" d="M482.9,334.973c0-4.28-3.416-20.973-5.577-20.973-.194,0-.4.175-.611.423-.041.049-.081.093-.123.15a6.542,6.542,0,0,0-.644,1.142c-.006.013-.011.018-.017.03s0,0,0,0c-1.985,4.384-4.183,15.79-4.183,19.224,0,3.841,2.047,5.868,4.686,6.264-.059.015-.106.058-.166.071.088.015.182.013.271.024v4.693h1.574v-4.768C480.8,340.9,482.9,338.866,482.9,334.973Z" fill="#d0d75b"/>
    </g>
    <g id="Group_244" data-name="Group 244">
      <path id="Path_310" data-name="Path 310" d="M256,512c101.216,0,188.691-58.753,230.238-144C445.315,367.829,108.8,362.061,3.52,298.18,23.64,419.485,128.99,512,256,512Z" fill="#d0b459"/>
    </g>
    <g id="Group_245" data-name="Group 245">
      <path id="Path_311" data-name="Path 311" d="M276.812,130.5a27.7,27.7,0,0,1,34.733-27.093A39.889,39.889,0,0,1,380.812,130.5Z" fill="#ffeb97"/>
    </g>
    <g id="Group_246" data-name="Group 246">
      <path id="Path_312" data-name="Path 312" d="M335.45,143.46A17.948,17.948,0,0,1,357.957,125.9a25.848,25.848,0,0,1,44.885,17.556Z" fill="#ffeb97"/>
    </g>
    <g id="Group_247" data-name="Group 247">
      <path id="Path_313" data-name="Path 313" d="M351.2,188.5a15.768,15.768,0,0,1,19.771-15.422A22.706,22.706,0,0,1,410.4,188.5Z" fill="#fff1a9"/>
    </g>
    <g id="Group_248" data-name="Group 248">
      <path id="Path_314" data-name="Path 314" d="M469,241.333a18.191,18.191,0,0,0-22.812-17.794A26.2,26.2,0,0,0,400.7,241.333H469Z" fill="#ffeb97"/>
    </g>
    <g id="Group_249" data-name="Group 249">
      <path id="Path_315" data-name="Path 315" d="M104.51,118.153a16.682,16.682,0,0,1,16.555-16.806,16.208,16.208,0,0,1,3.981.545,23.354,23.354,0,0,1,17.3-7.747A23.832,23.832,0,0,1,166,118.154H104.51Z" fill="#ffeb97"/>
    </g>
    <g id="Group_250" data-name="Group 250">
      <path id="Path_316" data-name="Path 316" d="M232,161.731a23.747,23.747,0,0,0-7.179,1.215,39.895,39.895,0,0,0-65.642,0A23.747,23.747,0,0,0,152,161.731a24,24,0,0,0-24,24H256A24,24,0,0,0,232,161.731Z" fill="#ffeb97"/>
    </g>
    <g id="Group_251" data-name="Group 251">
      <path id="Path_317" data-name="Path 317" d="M203.991,78.855h72.821A13.654,13.654,0,0,0,263.158,65.2a13.509,13.509,0,0,0-4.084.691A22.706,22.706,0,0,0,240.4,56.1a22.1,22.1,0,0,0-3.393.423,19.345,19.345,0,0,0-30.264-2.209,13.457,13.457,0,0,0-16.876,13.164h20.246A13.632,13.632,0,0,0,203.991,78.855Z" fill="#fff1a9"/>
    </g>
    <g id="Group_255" data-name="Group 255">
      <g id="Group_252" data-name="Group 252">
        <path id="Path_318" data-name="Path 318" d="M345.941,366.191V325.216a3.811,3.811,0,0,0-7.622,0v40.975Z" fill="#828240"/>
      </g>
      <g id="Group_253" data-name="Group 253">
        <path id="Path_319" data-name="Path 319" d="M369.146,312.658c0,20.735-12.1,31.142-27.018,31.142s-27.018-10.408-27.018-31.142,16.55-101.594,27.018-101.594S369.146,291.923,369.146,312.658Z" fill="#69be5d"/>
      </g>
      <g id="Group_254" data-name="Group 254">
        <path id="Path_320" data-name="Path 320" d="M342.129,211.063c-2.073,0-4.386,3.206-6.76,8.454,8.539,12.933,19.587,76.829,19.587,94.578,0,17.34-7.711,27.1-17.948,29.246a29.911,29.911,0,0,0,5.122.459c14.922,0,27.018-10.408,27.018-31.142S352.6,211.063,342.129,211.063Z" fill="#9dc85c"/>
      </g>
    </g>
    <g id="Group_256" data-name="Group 256">
      <path id="Path_321" data-name="Path 321" d="M486.238,368C445.315,367.829,108.8,362.061,3.52,298.18c1.312,7.907,3,15.685,5.022,23.33C138.777,404.6,322.927,420.362,442.875,430.743A256.448,256.448,0,0,0,486.238,368Z" fill="#d8c34a"/>
    </g>
    <g id="Group_257" data-name="Group 257">
      <circle id="Ellipse_21" data-name="Ellipse 21" cx="6.667" cy="6.667" r="6.667" transform="translate(170.888 420.666)" fill="#d8c34a"/>
    </g>
    <g id="Group_258" data-name="Group 258">
      <circle id="Ellipse_22" data-name="Ellipse 22" cx="6.667" cy="6.667" r="6.667" transform="translate(231.545 472.666)" fill="#d8c34a"/>
    </g>
    <g id="Group_259" data-name="Group 259">
      <circle id="Ellipse_23" data-name="Ellipse 23" cx="6.667" cy="6.667" r="6.667" transform="translate(281.333 446.666)" fill="#d8c34a"/>
    </g>
    <g id="Group_260" data-name="Group 260">
      <circle id="Ellipse_24" data-name="Ellipse 24" cx="6.667" cy="6.667" r="6.667" transform="translate(138.888 444)" fill="#d0d75b"/>
    </g>
    <g id="Group_261" data-name="Group 261">
      <circle id="Ellipse_25" data-name="Ellipse 25" cx="6.667" cy="6.667" r="6.667" transform="translate(226.666 430.742)" fill="#d0d75b"/>
    </g>
    <g id="Group_262" data-name="Group 262">
      <circle id="Ellipse_26" data-name="Ellipse 26" cx="6.667" cy="6.667" r="6.667" transform="translate(315.11 468.666)" fill="#d0d75b"/>
    </g>
    <g id="Group_263" data-name="Group 263">
      <circle id="Ellipse_27" data-name="Ellipse 27" cx="4.475" cy="4.475" r="4.475" transform="translate(276.858 380.615)" fill="#d0b459"/>
    </g>
    <g id="Group_264" data-name="Group 264">
      <circle id="Ellipse_28" data-name="Ellipse 28" cx="4.475" cy="4.475" r="4.475" transform="translate(315.111 393.948)" fill="#d0d75b"/>
    </g>
    <g id="Group_265" data-name="Group 265">
      <circle id="Ellipse_29" data-name="Ellipse 29" cx="4.475" cy="4.475" r="4.475" transform="translate(358.028 391.757)" fill="#d0d75b"/>
    </g>
    <g id="Group_266" data-name="Group 266">
      <circle id="Ellipse_30" data-name="Ellipse 30" cx="4.475" cy="4.475" r="4.475" transform="translate(396.411 405.09)" fill="#d0b459"/>
    </g>
    <g id="Group_267" data-name="Group 267">
      <circle id="Ellipse_31" data-name="Ellipse 31" cx="4.475" cy="4.475" r="4.475" transform="translate(226.667 385.09)" fill="#d0d75b"/>
    </g>
    <g id="Group_268" data-name="Group 268">
      <circle id="Ellipse_32" data-name="Ellipse 32" cx="4.475" cy="4.475" r="4.475" transform="translate(154.861 364.022)" fill="#d0b459"/>
    </g>
    <g id="Group_269" data-name="Group 269">
      <circle id="Ellipse_33" data-name="Ellipse 33" cx="6.667" cy="6.667" r="6.667" transform="translate(89.997 391.756)" fill="#d0d75b"/>
    </g>
  </g>
</svg>
