<svg xmlns="http://www.w3.org/2000/svg" width="511.452" height="457.29" viewBox="0 0 511.452 457.29">
  <g id="Group_144" data-name="Group 144" transform="translate(0 -54.71)">
    <g id="Group_89" data-name="Group 89">
      <path id="Path_209" data-name="Path 209" d="M483.958,234.58s-.909-.61-2.3-1.466c-1.384-.873-3.274-1.948-5.156-3.039l-5.25-2.85c-.218-.017-.657.429-.779.26a2.7,2.7,0,0,0-1.216-1.928c-.006-.007-.02-.013-.021-.02-.106-.185.5-.384.579-.588-.067-1.628-.157-3.8-.247-5.969-.151-2.17-.283-4.34-.458-5.967-.156-1.627-.3-2.711-.3-2.711a1.153,1.153,0,0,0-2.287.017s-.13,1.086-.261,2.716c-.149,1.63-.248,3.8-.365,5.974l-.154,5.972c.082.2.641.383.576.565a2.7,2.7,0,0,0-1.234,1.94c-.123.169-.561-.276-.779-.26l-5.25,2.85c-1.882,1.091-3.772,2.166-5.156,3.039-1.392.856-2.3,1.466-2.3,1.466a1.153,1.153,0,0,0,1.023,2.046s1.033-.361,2.554-.961c1.529-.583,3.522-1.451,5.524-2.3l5.43-2.491c.13-.149.088-.626.231-.72.052.032.1.073.15.1l-.578,28.459h-.977l-.652,20.607h6.956l-.652-20.607h-.977l-.578-28.459c.054-.029.1-.07.15-.1.142.094.1.571.231.72l5.43,2.491c2,.851,4,1.718,5.524,2.3,1.521.6,2.554.961,2.554.961a1.153,1.153,0,0,0,1.02-2.047Z" fill="#fff"/>
    </g>
    <g id="Group_90" data-name="Group 90">
      <path id="Path_210" data-name="Path 210" d="M414.34,254.426s-.73-.49-1.849-1.177-2.63-1.565-4.142-2.441l-4.218-2.289c-.175-.013-.528.344-.626.209a2.169,2.169,0,0,0-.977-1.549s-.016-.011-.017-.016c-.085-.148.4-.309.465-.473l-.2-4.795c-.121-1.743-.228-3.486-.368-4.793-.125-1.307-.244-2.178-.244-2.178a.927.927,0,0,0-1.838.015s-.105.873-.21,2.182c-.12,1.309-.2,3.054-.293,4.8-.045,1.745-.09,3.489-.124,4.8.066.159.515.308.463.454a2.171,2.171,0,0,0-.992,1.558c-.1.136-.451-.222-.626-.209l-4.218,2.289c-1.512.876-3.03,1.74-4.142,2.441s-1.849,1.177-1.849,1.177a.926.926,0,0,0,.822,1.643s.83-.29,2.051-.772,2.83-1.165,4.438-1.849l4.362-2c.105-.12.071-.5.186-.578.042.026.077.059.121.082l-.464,22.861h-.785l-.524,16.554h5.588l-.524-16.554h-.785l-.464-22.861c.044-.023.079-.056.121-.082.114.075.081.459.186.578l4.362,2c1.608.684,3.21,1.38,4.438,1.849s2.051.772,2.051.772a.927.927,0,0,0,.823-1.644Z" fill="#fff"/>
    </g>
    <g id="Group_91" data-name="Group 91">
      <path id="Path_211" data-name="Path 211" d="M346.529,270.347s-.521-.35-1.32-.84-1.878-1.117-2.957-1.742l-3.011-1.634c-.125-.01-.377.246-.447.149a1.547,1.547,0,0,0-.7-1.105s-.011-.008-.012-.011c-.061-.106.285-.22.332-.337-.039-.933-.09-2.178-.142-3.423-.087-1.244-.162-2.488-.263-3.421s-.174-1.555-.174-1.555a.661.661,0,0,0-1.311.01s-.075.623-.15,1.557-.142,2.18-.209,3.425l-.088,3.424c.047.113.367.22.33.324a1.549,1.549,0,0,0-.708,1.112c-.07.1-.322-.158-.447-.149l-3.011,1.634c-1.079.625-2.163,1.242-2.957,1.742s-1.32.84-1.32.84a.661.661,0,0,0,.586,1.173s.592-.207,1.464-.551,2.02-.832,3.168-1.32l3.114-1.428c.075-.085.05-.359.132-.413.03.018.055.042.086.058l-.331,16.318h-.56L335.255,296h3.988l-.374-11.816h-.56l-.331-16.318c.031-.017.057-.04.086-.058.081.054.058.327.132.413l3.114,1.428c1.148.488,2.291.985,3.168,1.32s1.464.551,1.464.551a.661.661,0,0,0,.587-1.173Z" fill="#fff"/>
    </g>
    <g id="Group_92" data-name="Group 92">
      <path id="Path_212" data-name="Path 212" d="M174.894,256.664s-.521-.35-1.32-.84-1.878-1.117-2.957-1.742l-3.011-1.634c-.125-.01-.377.246-.447.149a1.547,1.547,0,0,0-.7-1.1.039.039,0,0,0-.011-.008c-.062-.11.284-.224.331-.341-.039-.933-.09-2.178-.142-3.423-.087-1.244-.162-2.488-.263-3.421s-.174-1.555-.174-1.555a.661.661,0,0,0-1.311.01s-.075.623-.15,1.557-.142,2.18-.209,3.425l-.088,3.424c.047.113.367.22.33.324a1.549,1.549,0,0,0-.708,1.112c-.07.1-.322-.158-.447-.149l-3.011,1.634c-1.079.625-2.163,1.242-2.957,1.742s-1.32.84-1.32.84a.661.661,0,0,0,.586,1.173s.592-.207,1.464-.551,2.02-.832,3.168-1.32l3.114-1.428c.075-.085.05-.359.132-.413.03.018.055.042.086.058l-.331,16.318h-.56l-.374,11.816H167.6l-.374-11.816h-.56l-.331-16.318c.031-.017.057-.04.086-.058.081.054.058.327.132.413l3.114,1.428c1.148.488,2.291.985,3.168,1.32s1.464.551,1.464.551a.662.662,0,0,0,.59-1.172Z" fill="#74ff9e"/>
    </g>
    <g id="Group_93" data-name="Group 93">
      <path id="Path_213" data-name="Path 213" d="M216.761,269.153s-.521-.35-1.32-.84-1.877-1.117-2.957-1.742l-3.011-1.634c-.125-.01-.377.246-.447.149a1.547,1.547,0,0,0-.7-1.105s-.011-.008-.012-.011c-.061-.106.285-.22.332-.337-.039-.933-.09-2.178-.142-3.423-.087-1.244-.162-2.488-.263-3.421s-.174-1.555-.174-1.555a.661.661,0,0,0-1.311.01s-.075.623-.15,1.557-.142,2.18-.209,3.425l-.088,3.424c.047.113.367.22.33.324a1.549,1.549,0,0,0-.708,1.112c-.07.1-.322-.158-.447-.149l-3.011,1.634c-1.079.625-2.163,1.242-2.957,1.742s-1.32.84-1.32.84a.661.661,0,0,0,.586,1.173s.592-.207,1.464-.551,2.02-.832,3.168-1.32l3.114-1.428c.075-.085.05-.359.132-.413.03.018.055.042.086.058l-.331,16.318h-.56l-.374,11.816h3.988L209.1,282.99h-.56l-.331-16.318c.031-.017.057-.04.086-.058.081.054.058.327.132.413l3.114,1.428c1.148.488,2.291.985,3.168,1.32s1.464.551,1.464.551a.662.662,0,0,0,.59-1.173Z" fill="#74ff9e"/>
    </g>
    <g id="Group_94" data-name="Group 94">
      <path id="Path_214" data-name="Path 214" d="M216.761,270.347s-.521-.35-1.32-.84-1.878-1.117-2.957-1.742l-3.011-1.634c-.125-.01-.377.246-.447.149a1.547,1.547,0,0,0-.7-1.105s-.011-.008-.012-.011c-.061-.106.285-.22.332-.337-.039-.933-.09-2.178-.142-3.423-.087-1.244-.162-2.488-.263-3.421s-.174-1.555-.174-1.555a.661.661,0,0,0-1.311.01s-.075.623-.15,1.557-.142,2.18-.209,3.425l-.088,3.424c.047.113.367.22.33.324a1.549,1.549,0,0,0-.708,1.112c-.07.1-.322-.158-.447-.149l-3.011,1.634c-1.079.625-2.163,1.242-2.957,1.742s-1.32.84-1.32.84a.661.661,0,0,0,.586,1.173s.592-.207,1.464-.551,2.02-.832,3.168-1.32l3.114-1.428c.075-.085.05-.359.132-.413.03.018.055.042.086.058l-.331,16.318h-.56L205.487,296h3.988l-.374-11.816h-.56l-.331-16.318c.031-.017.057-.04.086-.058.081.054.058.327.132.413l3.114,1.428c1.148.488,2.291.985,3.168,1.32s1.464.551,1.464.551a.661.661,0,0,0,.587-1.173Z" fill="#74ff9e"/>
    </g>
    <g id="Group_95" data-name="Group 95">
      <path id="Path_215" data-name="Path 215" d="M70.9,227.255s-.687-.461-1.739-1.107-2.474-1.472-3.9-2.3L61.3,221.7c-.165-.013-.5.324-.589.2a2.037,2.037,0,0,0-.919-1.456c0-.005-.015-.01-.016-.015-.08-.139.376-.29.438-.445l-.187-4.51c-.114-1.639-.214-3.279-.346-4.508s-.229-2.049-.229-2.049a.871.871,0,0,0-1.728.014s-.1.821-.2,2.052-.187,2.872-.276,4.513c-.042,1.641-.085,3.281-.117,4.512.062.149.484.29.435.427a2.042,2.042,0,0,0-.933,1.466c-.093.128-.424-.209-.589-.2l-3.967,2.153c-1.422.824-2.85,1.636-3.9,2.3s-1.739,1.107-1.739,1.107a.871.871,0,0,0,.773,1.546s.781-.273,1.929-.726,2.661-1.1,4.174-1.739l4.1-1.882c.1-.113.066-.473.174-.544.039.024.073.055.114.077l-.436,21.5h-.738l-.493,15.569H61.3L60.8,245.489h-.738l-.436-21.5c.041-.022.075-.053.114-.077.107.071.076.431.174.544l4.1,1.882c1.512.643,3.019,1.3,4.174,1.739s1.929.726,1.929.726a.872.872,0,0,0,.775-1.547Z" fill="#74ff9e"/>
    </g>
    <g id="Group_96" data-name="Group 96">
      <path id="Path_216" data-name="Path 216" d="M125.933,245.623s-.567-.381-1.436-.915-2.043-1.215-3.217-1.9L118,241.034c-.136-.01-.41.268-.486.162a1.686,1.686,0,0,0-.759-1.2.057.057,0,0,0-.012-.008c-.067-.119.31-.244.36-.371l-.154-3.725c-.094-1.354-.177-2.708-.286-3.723s-.189-1.692-.189-1.692a.719.719,0,0,0-1.427.011s-.081.678-.163,1.7-.155,2.372-.228,3.727c-.035,1.355-.07,2.71-.1,3.726.051.123.4.239.36.352a1.684,1.684,0,0,0-.77,1.21c-.076.1-.35-.172-.486-.162l-3.276,1.778c-1.174.681-2.354,1.351-3.217,1.9s-1.436.915-1.436.915a.719.719,0,0,0,.638,1.276s.645-.225,1.593-.6,2.2-.9,3.447-1.436l3.388-1.554c.081-.093.055-.391.144-.449.032.02.06.046.094.063l-.36,17.757h-.61l-.407,12.858h4.34l-.407-12.858h-.61l-.36-17.757c.034-.018.062-.044.094-.063.089.059.063.356.144.449l3.388,1.554c1.249.531,2.493,1.072,3.447,1.436s1.593.6,1.593.6a.719.719,0,0,0,.638-1.275Z" fill="#74ff9e"/>
    </g>
    <g id="Group_97" data-name="Group 97">
      <path id="Path_217" data-name="Path 217" d="M220.4,397.693,320,296C212.8,296,151.3,249.324.2,248.06.12,250.7,0,253.337,0,256A254.747,254.747,0,0,0,38.145,390.434C90.972,392.8,220.4,397.693,220.4,397.693Z" fill="#53dc92"/>
    </g>
    <g id="Group_98" data-name="Group 98">
      <path id="Path_218" data-name="Path 218" d="M.2,248.06c0,.155-.007.311-.012.466,136.875,9.013,169.893,52,231.811,60.839,0,0,44,5.635,72,2.971h0L320,296C212.8,296,151.3,249.324.2,248.06Z" fill="#74ff9e"/>
    </g>
    <g id="Group_99" data-name="Group 99">
      <path id="Path_219" data-name="Path 219" d="M365.952,487.223a256.045,256.045,0,0,0,145.5-215.209c-139.652.151-330.258,58.971-471.33,58.971C40.122,330.985,309.747,462.923,365.952,487.223Z" fill="#52c883"/>
    </g>
    <g id="Group_100" data-name="Group 100">
      <path id="Path_220" data-name="Path 220" d="M58,334.185c35.36,13.495,288.64-29.409,449.6-31.593a255.978,255.978,0,0,0,3.854-30.579C379,272.157,200.8,324.98,62.411,330.439Z" fill="#6bee97"/>
    </g>
    <g id="Group_108" data-name="Group 108">
      <g id="Group_101" data-name="Group 101">
        <path id="Path_221" data-name="Path 221" d="M141.747,201.017c-.19-4.59-.444-10.71-.7-16.83-.425-6.118-.8-12.237-1.292-16.825-.439-4.588-.855-7.645-.855-7.645a3.251,3.251,0,0,0-6.449.05s-.368,3.064-.736,7.658c-.421,4.6-.7,10.718-1.03,16.843-.159,6.123-.317,12.246-.436,16.838.239.572,1.95,1.109,1.658,1.634-.007.04-.091.078-.121.117a38.4,38.4,0,0,1,8.566.047c-.1-.076-.227-.151-.242-.228C139.815,202.155,141.517,201.592,141.747,201.017Z" fill="#fff"/>
      </g>
      <g id="Group_102" data-name="Group 102">
        <path id="Path_222" data-name="Path 222" d="M141.243,297.686H130.757l1.748-86.051h6.99Z" fill="#fffce5"/>
      </g>
      <g id="Group_103" data-name="Group 103">
        <path id="Path_223" data-name="Path 223" d="M145.806,354.317H126.194l1.838-58.1h15.936Z" fill="#e9dcb8"/>
      </g>
      <g id="Group_106" data-name="Group 106">
        <g id="Group_104" data-name="Group 104">
          <path id="Path_224" data-name="Path 224" d="M128.459,208.009c-.022.044-.018.137-.05.161-.336.5-1.591-.782-2.209-.735l-14.8,8.035c-5.306,3.076-10.636,6.1-14.538,8.567-3.926,2.414-6.488,4.133-6.488,4.133a3.251,3.251,0,0,0,2.884,5.768s2.913-1.019,7.2-2.711c4.311-1.644,9.932-4.09,15.576-6.49l15.311-7.022c.408-.466.137-2.239.737-2.208.076-.022.2.062.313.112A38.394,38.394,0,0,1,128.459,208.009Z" fill="#fff"/>
        </g>
        <g id="Group_105" data-name="Group 105">
          <path id="Path_225" data-name="Path 225" d="M143.541,208.009c.022.044.018.137.05.161.336.5,1.591-.782,2.209-.735l14.8,8.035c5.306,3.076,10.636,6.1,14.538,8.567,3.926,2.414,6.488,4.133,6.488,4.133a3.251,3.251,0,0,1-2.884,5.768s-2.913-1.019-7.2-2.711c-4.311-1.644-9.932-4.09-15.576-6.49l-15.311-7.022c-.408-.466-.137-2.239-.737-2.208-.076-.022-.2.062-.313.112A38.394,38.394,0,0,0,143.541,208.009Z" fill="#fff"/>
        </g>
      </g>
      <g id="Group_107" data-name="Group 107">
        <circle id="Ellipse_6" data-name="Ellipse 6" cx="7.801" cy="7.801" r="7.801" transform="translate(128.199 201.353)" fill="#e9dcb8"/>
      </g>
    </g>
    <g id="Group_109" data-name="Group 109">
      <path id="Path_226" data-name="Path 226" d="M256,512a255.062,255.062,0,0,0,176.932-71.083c-130.747-3.993-314.506-116.5-425.064-121.77C35.991,429.99,136.41,512,256,512Z" fill="#43ab5f"/>
    </g>
    <g id="Group_110" data-name="Group 110">
      <path id="Path_227" data-name="Path 227" d="M432.932,440.917c-130.747-3.993-314.506-116.5-425.064-121.77C115.827,327.888,252.642,449,365.875,487.2A256.968,256.968,0,0,0,432.932,440.917Z" fill="#34be69"/>
    </g>
    <g id="Group_118" data-name="Group 118">
      <g id="Group_111" data-name="Group 111">
        <path id="Path_228" data-name="Path 228" d="M263.814,166.563c-.259-6.241-.6-14.562-.948-22.883-.578-8.319-1.086-16.638-1.756-22.876-.6-6.238-1.162-10.395-1.162-10.395a4.42,4.42,0,0,0-8.769.068s-.5,4.166-1,10.412c-.573,6.247-.952,14.573-1.4,22.9-.216,8.325-.431,16.651-.592,22.894.324.778,2.651,1.508,2.254,2.222-.01.054-.124.106-.164.16a52.262,52.262,0,0,1,11.647.064c-.129-.1-.309-.205-.33-.31C261.187,168.112,263.5,167.346,263.814,166.563Z" fill="#fff"/>
      </g>
      <g id="Group_112" data-name="Group 112">
        <path id="Path_229" data-name="Path 229" d="M263.129,298H248.871l2.377-117h9.5Z" fill="#fffce5"/>
      </g>
      <g id="Group_113" data-name="Group 113">
        <path id="Path_230" data-name="Path 230" d="M269.333,375H242.667l2.5-79h21.666Z" fill="#e9dcb8"/>
      </g>
      <g id="Group_116" data-name="Group 116">
        <g id="Group_114" data-name="Group 114">
          <path id="Path_231" data-name="Path 231" d="M245.746,176.071c-.029.06-.024.186-.067.219-.457.678-2.163-1.063-3-1l-20.128,10.925c-7.215,4.182-14.461,8.3-19.767,11.648-5.338,3.283-8.822,5.62-8.822,5.62a4.42,4.42,0,0,0,3.922,7.843s3.96-1.385,9.789-3.686c5.861-2.236,13.5-5.561,21.178-8.824l20.817-9.547c.555-.634.186-3.044,1-3,.1-.029.276.085.426.153A52.407,52.407,0,0,1,245.746,176.071Z" fill="#fff"/>
        </g>
        <g id="Group_115" data-name="Group 115">
          <path id="Path_232" data-name="Path 232" d="M266.254,176.071c.029.06.024.186.067.219.457.678,2.163-1.063,3-1l20.128,10.925c7.215,4.182,14.461,8.3,19.767,11.648,5.338,3.283,8.822,5.62,8.822,5.62a4.42,4.42,0,0,1-3.922,7.843s-3.96-1.385-9.789-3.686c-5.861-2.236-13.5-5.561-21.178-8.824l-20.817-9.547c-.555-.634-.186-3.044-1-3-.1-.029-.276.085-.426.153A52.4,52.4,0,0,0,266.254,176.071Z" fill="#fff"/>
        </g>
      </g>
      <g id="Group_117" data-name="Group 117">
        <circle id="Ellipse_7" data-name="Ellipse 7" cx="10.607" cy="10.607" r="10.607" transform="translate(245.393 167.02)" fill="#e9dcb8"/>
      </g>
    </g>
    <g id="Group_126" data-name="Group 126">
      <g id="Group_119" data-name="Group 119">
        <path id="Path_233" data-name="Path 233" d="M381.747,201.017c-.19-4.59-.444-10.71-.7-16.83-.425-6.118-.8-12.237-1.292-16.825-.439-4.588-.855-7.645-.855-7.645a3.251,3.251,0,0,0-6.449.05s-.368,3.064-.736,7.658c-.421,4.6-.7,10.718-1.03,16.843-.159,6.123-.317,12.246-.436,16.838.239.572,1.95,1.109,1.658,1.634-.007.04-.091.078-.121.117a38.4,38.4,0,0,1,8.566.047c-.1-.076-.227-.151-.242-.228C379.815,202.155,381.517,201.592,381.747,201.017Z" fill="#fff"/>
      </g>
      <g id="Group_120" data-name="Group 120">
        <path id="Path_234" data-name="Path 234" d="M381.243,297.686H370.757l1.748-86.051h6.99Z" fill="#fffce5"/>
      </g>
      <g id="Group_121" data-name="Group 121">
        <path id="Path_235" data-name="Path 235" d="M385.806,354.317H366.194l1.838-58.1h15.936Z" fill="#e9dcb8"/>
      </g>
      <g id="Group_124" data-name="Group 124">
        <g id="Group_122" data-name="Group 122">
          <path id="Path_236" data-name="Path 236" d="M368.459,208.009c-.022.044-.018.137-.05.161-.336.5-1.591-.782-2.209-.735l-14.8,8.035c-5.306,3.076-10.636,6.1-14.538,8.567-3.926,2.414-6.488,4.133-6.488,4.133a3.251,3.251,0,0,0,2.884,5.768s2.913-1.019,7.2-2.711c4.311-1.644,9.932-4.09,15.576-6.49l15.311-7.022c.408-.466.137-2.239.737-2.208.076-.022.2.062.313.112A38.393,38.393,0,0,1,368.459,208.009Z" fill="#fff"/>
        </g>
        <g id="Group_123" data-name="Group 123">
          <path id="Path_237" data-name="Path 237" d="M383.541,208.009c.022.044.018.137.05.161.336.5,1.591-.782,2.209-.735l14.8,8.035c5.306,3.076,10.636,6.1,14.538,8.567,3.926,2.414,6.488,4.133,6.488,4.133a3.251,3.251,0,0,1-2.884,5.768s-2.913-1.019-7.2-2.711c-4.311-1.644-9.932-4.09-15.576-6.49l-15.311-7.022c-.408-.466-.137-2.239-.737-2.208-.076-.022-.2.062-.313.112A38.393,38.393,0,0,0,383.541,208.009Z" fill="#fff"/>
        </g>
      </g>
      <g id="Group_125" data-name="Group 125">
        <circle id="Ellipse_8" data-name="Ellipse 8" cx="7.801" cy="7.801" r="7.801" transform="translate(368.199 201.353)" fill="#e9dcb8"/>
      </g>
    </g>
    <g id="Group_127" data-name="Group 127">
      <circle id="Ellipse_9" data-name="Ellipse 9" cx="6.667" cy="6.667" r="6.667" transform="translate(60 362.768)" fill="#34be69"/>
    </g>
    <g id="Group_128" data-name="Group 128">
      <circle id="Ellipse_10" data-name="Ellipse 10" cx="6.667" cy="6.667" r="6.667" transform="translate(149.375 449.385)" fill="#34be69"/>
    </g>
    <g id="Group_129" data-name="Group 129">
      <circle id="Ellipse_11" data-name="Ellipse 11" cx="6.667" cy="6.667" r="6.667" transform="translate(249.333 470)" fill="#34be69"/>
    </g>
    <g id="Group_130" data-name="Group 130">
      <circle id="Ellipse_12" data-name="Ellipse 12" cx="6.667" cy="6.667" r="6.667" transform="translate(139.139 401.319)" fill="#34be69"/>
    </g>
    <g id="Group_131" data-name="Group 131">
      <circle id="Ellipse_13" data-name="Ellipse 13" cx="6.667" cy="6.667" r="6.667" transform="translate(92.085 391.026)" fill="#52c883"/>
    </g>
    <g id="Group_132" data-name="Group 132">
      <circle id="Ellipse_14" data-name="Ellipse 14" cx="6.667" cy="6.667" r="6.667" transform="translate(112.085 435.333)" fill="#52c883"/>
    </g>
    <g id="Group_133" data-name="Group 133">
      <circle id="Ellipse_15" data-name="Ellipse 15" cx="6.667" cy="6.667" r="6.667" transform="translate(187.481 428.666)" fill="#52c883"/>
    </g>
    <g id="Group_134" data-name="Group 134">
      <circle id="Ellipse_16" data-name="Ellipse 16" cx="6.667" cy="6.667" r="6.667" transform="translate(350.66 445)" fill="#52c883"/>
    </g>
    <g id="Group_135" data-name="Group 135">
      <circle id="Ellipse_17" data-name="Ellipse 17" cx="6.667" cy="6.667" r="6.667" transform="translate(275.786 421.319)" fill="#52c883"/>
    </g>
    <g id="Group_136" data-name="Group 136">
      <circle id="Ellipse_18" data-name="Ellipse 18" cx="6.667" cy="6.667" r="6.667" transform="translate(308.666 438.333)" fill="#43ab5f"/>
    </g>
    <g id="Group_137" data-name="Group 137">
      <circle id="Ellipse_19" data-name="Ellipse 19" cx="6.667" cy="6.667" r="6.667" transform="translate(200.815 467.196)" fill="#52c883"/>
    </g>
    <g id="Group_138" data-name="Group 138" opacity="0.6">
      <path id="Path_238" data-name="Path 238" d="M289.193,67.987A19.691,19.691,0,0,0,283.236,69a33.107,33.107,0,0,0-54.472,0,19.7,19.7,0,0,0-5.957-1.008A19.916,19.916,0,0,0,202.891,87.9H309.109A19.916,19.916,0,0,0,289.193,67.987Z" fill="#fff"/>
    </g>
    <g id="Group_139" data-name="Group 139" opacity="0.6">
      <path id="Path_239" data-name="Path 239" d="M123.661,150.792a12.2,12.2,0,0,0-3.691.625,20.512,20.512,0,0,0-33.748,0,12.2,12.2,0,0,0-3.691-.625,12.339,12.339,0,0,0-12.339,12.339H136A12.339,12.339,0,0,0,123.661,150.792Z" fill="#fff"/>
    </g>
    <g id="Group_140" data-name="Group 140">
      <path id="Path_240" data-name="Path 240" d="M337.356,152.718a10.3,10.3,0,0,0-3.115.527,17.311,17.311,0,0,0-28.482,0,10.3,10.3,0,0,0-3.115-.527,10.413,10.413,0,0,0-10.413,10.413h55.538A10.413,10.413,0,0,0,337.356,152.718Z" fill="#fff"/>
    </g>
    <g id="Group_141" data-name="Group 141">
      <path id="Path_241" data-name="Path 241" d="M121.509,108.548a28.592,28.592,0,0,1,35.853-27.967,41.175,41.175,0,0,1,71.5,27.966H121.509Z" fill="#fff"/>
    </g>
    <g id="Group_142" data-name="Group 142" opacity="0.6">
      <path id="Path_242" data-name="Path 242" d="M165.614,177.164a11.128,11.128,0,0,1,13.953-10.884,16.023,16.023,0,0,1,27.825,10.883H165.614Z" fill="#fff"/>
    </g>
    <g id="Group_143" data-name="Group 143" opacity="0.6">
      <path id="Path_243" data-name="Path 243" d="M392.372,121.275a16.582,16.582,0,0,0-16.582,16.582h61.591a23.689,23.689,0,0,0-23.689-23.689,23.077,23.077,0,0,0-8.1,1.564,9.687,9.687,0,0,0-11.949-5.273,16.553,16.553,0,0,0-27.236,0,9.828,9.828,0,0,0-12.937,9.454H398.5a24.318,24.318,0,0,0-2.141,1.9A16.433,16.433,0,0,0,392.372,121.275Z" fill="#fff"/>
    </g>
  </g>
</svg>
