<svg id="Layer_1" enable-background="new 0 0 256 256" height="512" viewBox="0 0 256 256" width="512" xmlns="http://www.w3.org/2000/svg"><g><g><path d="m133.502 194.675h-58.71c-1.419 0-2.731.751-3.449 1.975l-32.206 54.844c-.392.666.089 1.506.862 1.506h12.681c.354 0 .682-.188.862-.493l26.96-45.832h53c2.209 0 4-1.791 4-4v-4c0-2.209-1.791-4-4-4z" fill="#f9cfcf"/></g><g><path d="m52.681 255h-12.682c-1.072 0-2.07-.578-2.604-1.51s-.526-2.084.017-3.01l32.206-54.844c1.073-1.827 3.056-2.962 5.174-2.962h58.71c3.309 0 6 2.691 6 6v4c0 3.309-2.691 6-6 6h-51.856l-26.38 44.846c-.537.913-1.527 1.48-2.585 1.48zm-10.935-4h10.362l26.67-45.339c.359-.611 1.015-.986 1.724-.986h53c1.103 0 2-.897 2-2v-4c0-1.103-.897-2-2-2h-58.71c-.706 0-1.367.378-1.725.987z" fill="#3762cc"/></g><g><path d="m194.502 131.25h-59c-1.657 0-3-1.343-3-3v-6c0-1.657 1.343-3 3-3h59c1.657 0 3 1.343 3 3v6c0 1.657-1.343 3-3 3z" fill="#f9cfcf"/></g><g><path d="m194.502 133.25h-59c-2.757 0-5-2.243-5-5v-6c0-2.757 2.243-5 5-5h59c2.757 0 5 2.243 5 5v6c0 2.757-2.243 5-5 5zm-59-12c-.552 0-1 .448-1 1v6c0 .552.448 1 1 1h59c.552 0 1-.448 1-1v-6c0-.552-.448-1-1-1z" fill="#3762cc"/></g><g><path d="m146.502 95.825h-59c-1.657 0-3-1.343-3-3v-6c0-1.657 1.343-3 3-3h59c1.657 0 3 1.343 3 3v6c0 1.657-1.343 3-3 3z" fill="#f9cfcf"/></g><g><path d="m146.502 97.825h-59c-2.757 0-5-2.243-5-5v-6c0-2.757 2.243-5 5-5h59c2.757 0 5 2.243 5 5v6c0 2.757-2.243 5-5 5zm-59-12c-.552 0-1 .448-1 1v6c0 .552.448 1 1 1h59c.552 0 1-.448 1-1v-6c0-.552-.448-1-1-1z" fill="#3762cc"/></g><g><path d="m207.752 253h-128c-1.657 0-3-1.343-3-3v-14c0-1.657 1.343-3 3-3h128c1.657 0 3 1.343 3 3v14c0 1.657-1.343 3-3 3z" fill="#4671c6"/></g><g><path d="m179.752 233h-72v-212.5c0-1.657 1.343-3 3-3h66c1.657 0 3 1.343 3 3z" fill="#f9a7a7"/></g><g><path d="m171.752 17.5h-56v-11.5c0-1.657 1.343-3 3-3h50c1.657 0 3 1.343 3 3z" fill="#4671c6"/></g><g><path d="m207.752 255h-128c-2.757 0-5-2.243-5-5v-14c0-2.757 2.243-5 5-5h128c2.757 0 5 2.243 5 5v14c0 2.757-2.243 5-5 5zm-128-20c-.552 0-1 .448-1 1v14c0 .552.448 1 1 1h128c.552 0 1-.448 1-1v-14c0-.552-.448-1-1-1z" fill="#3762cc"/></g><g><path d="m179.752 235h-72c-1.104 0-2-.896-2-2v-212.5c0-2.757 2.243-5 5-5h66c2.757 0 5 2.243 5 5v212.5c0 1.104-.896 2-2 2zm-70-4h68v-210.5c0-.552-.448-1-1-1h-66c-.552 0-1 .448-1 1z" fill="#3762cc"/></g><g><path d="m171.752 19.5h-56c-1.104 0-2-.896-2-2v-11.5c0-2.757 2.243-5 5-5h50c2.757 0 5 2.243 5 5v11.5c0 1.104-.896 2-2 2zm-54-4h52v-9.5c0-.552-.448-1-1-1h-50c-.552 0-1 .448-1 1z" fill="#3762cc"/></g><g><path d="m142.502 166.675h-59c-1.657 0-3-1.343-3-3v-6c0-1.657 1.343-3 3-3h59c1.657 0 3 1.343 3 3v6c0 1.657-1.343 3-3 3z" fill="#f9cfcf"/></g><g><path d="m142.502 168.675h-59c-2.757 0-5-2.243-5-5v-6c0-2.757 2.243-5 5-5h59c2.757 0 5 2.243 5 5v6c0 2.757-2.243 5-5 5zm-59-12c-.552 0-1 .448-1 1v6c0 .552.448 1 1 1h59c.552 0 1-.448 1-1v-6c0-.552-.448-1-1-1z" fill="#3762cc"/></g><g><path d="m213.002 66.2h-72c-2.209 0-4-1.791-4-4v-4c0-2.209 1.791-4 4-4h72c2.209 0 4 1.791 4 4v4c0 2.209-1.791 4-4 4z" fill="#f9cfcf"/></g><g><path d="m213.002 68.2h-72c-3.309 0-6-2.691-6-6v-4c0-3.309 2.691-6 6-6h72c3.309 0 6 2.691 6 6v4c0 3.309-2.691 6-6 6zm-72-12c-1.103 0-2 .897-2 2v4c0 1.103.897 2 2 2h72c1.103 0 2-.897 2-2v-4c0-1.103-.897-2-2-2z" fill="#3762cc"/></g></g></svg>